<svg width="28" height="28" viewBox="0 0 28 28" fill="none" xmlns="http://www.w3.org/2000/svg">
<g clip-path="url(#clip0_100_22)">
<path d="M4.66656 7.48297L0.883057 3.70064L2.53389 2.0498L6.31622 5.8333H24.0986C24.2804 5.83329 24.4597 5.87579 24.6222 5.9574C24.7847 6.03901 24.9259 6.15748 25.0345 6.30335C25.1431 6.44922 25.2161 6.61845 25.2476 6.79754C25.2792 6.97663 25.2684 7.16061 25.2162 7.3348L22.4162 16.6681C22.3442 16.9086 22.1965 17.1194 21.9952 17.2692C21.7938 17.4191 21.5495 17.5 21.2986 17.5H6.99989V19.8333H19.8332V22.1666H5.83322C5.5238 22.1666 5.22706 22.0437 5.00827 21.8249C4.78947 21.6061 4.66656 21.3094 4.66656 21V7.48297ZM6.41656 26.8333C5.95243 26.8333 5.50731 26.6489 5.17912 26.3207C4.85093 25.9925 4.66656 25.5474 4.66656 25.0833C4.66656 24.6192 4.85093 24.1741 5.17912 23.8459C5.50731 23.5177 5.95243 23.3333 6.41656 23.3333C6.88069 23.3333 7.3258 23.5177 7.65399 23.8459C7.98218 24.1741 8.16656 24.6192 8.16656 25.0833C8.16656 25.5474 7.98218 25.9925 7.65399 26.3207C7.3258 26.6489 6.88069 26.8333 6.41656 26.8333ZM20.4166 26.8333C19.9524 26.8333 19.5073 26.6489 19.1791 26.3207C18.8509 25.9925 18.6666 25.5474 18.6666 25.0833C18.6666 24.6192 18.8509 24.1741 19.1791 23.8459C19.5073 23.5177 19.9524 23.3333 20.4166 23.3333C20.8807 23.3333 21.3258 23.5177 21.654 23.8459C21.9822 24.1741 22.1666 24.6192 22.1666 25.0833C22.1666 25.5474 21.9822 25.9925 21.654 26.3207C21.3258 26.6489 20.8807 26.8333 20.4166 26.8333Z" fill="white"/>
</g>
<defs>
<clipPath id="clip0_100_22">
<rect width="28" height="28" fill="white"/>
</clipPath>
</defs>
</svg>
