<svg width="40" height="40" viewBox="0 0 40 40" fill="none" xmlns="http://www.w3.org/2000/svg">
<g clip-path="url(#clip0_100_1115)">
<path d="M6.66672 10.6899L1.26172 5.28656L3.62005 2.92822L9.02339 8.33322H34.4267C34.6865 8.3332 34.9427 8.39391 35.1748 8.5105C35.407 8.62709 35.6087 8.79633 35.7638 9.00472C35.9189 9.2131 36.0231 9.45486 36.0682 9.7107C36.1133 9.96654 36.0979 10.2294 36.0234 10.4782L32.0234 23.8116C31.9205 24.155 31.7095 24.4562 31.4219 24.6702C31.1343 24.8843 30.7853 24.9999 30.4267 24.9999H10.0001V28.3332H28.3334V31.6666H8.33339C7.89136 31.6666 7.46743 31.491 7.15487 31.1784C6.84231 30.8658 6.66672 30.4419 6.66672 29.9999V10.6899ZM9.16672 38.3332C8.50368 38.3332 7.86779 38.0698 7.39895 37.601C6.93011 37.1321 6.66672 36.4963 6.66672 35.8332C6.66672 35.1702 6.93011 34.5343 7.39895 34.0655C7.86779 33.5966 8.50368 33.3332 9.16672 33.3332C9.82976 33.3332 10.4656 33.5966 10.9345 34.0655C11.4033 34.5343 11.6667 35.1702 11.6667 35.8332C11.6667 36.4963 11.4033 37.1321 10.9345 37.601C10.4656 38.0698 9.82976 38.3332 9.16672 38.3332ZM29.1667 38.3332C28.5037 38.3332 27.8678 38.0698 27.399 37.601C26.9301 37.1321 26.6667 36.4963 26.6667 35.8332C26.6667 35.1702 26.9301 34.5343 27.399 34.0655C27.8678 33.5966 28.5037 33.3332 29.1667 33.3332C29.8298 33.3332 30.4656 33.5966 30.9345 34.0655C31.4033 34.5343 31.6667 35.1702 31.6667 35.8332C31.6667 36.4963 31.4033 37.1321 30.9345 37.601C30.4656 38.0698 29.8298 38.3332 29.1667 38.3332Z" fill="white"/>
</g>
<defs>
<clipPath id="clip0_100_1115">
<rect width="40" height="40" fill="white"/>
</clipPath>
</defs>
</svg>
