<svg width="498" height="325" viewBox="0 0 498 325" fill="none" xmlns="http://www.w3.org/2000/svg">
<path d="M240.503 196.623H93.6038C93.3503 196.623 93.1071 196.523 92.9278 196.344C92.7487 196.165 92.6479 195.921 92.6479 195.668C92.6479 195.414 92.7487 195.17 92.9278 194.991C93.1071 194.813 93.3503 194.712 93.6038 194.712H240.503C240.757 194.712 240.999 194.813 241.178 194.991C241.358 195.17 241.459 195.414 241.459 195.668C241.459 195.921 241.358 196.165 241.178 196.344C240.999 196.523 240.757 196.623 240.503 196.623Z" fill="black"/>
<path d="M169.967 225.153C169.713 225.153 169.471 225.052 169.292 224.873C169.112 224.693 169.011 224.451 169.011 224.197V60.2379C169.011 59.9844 169.112 59.7413 169.292 59.562C169.471 59.3829 169.713 59.2821 169.967 59.2821C170.221 59.2821 170.464 59.3829 170.643 59.562C170.822 59.7413 170.924 59.9844 170.924 60.2379V224.197C170.924 224.451 170.822 224.693 170.643 224.873C170.464 225.052 170.221 225.153 169.967 225.153Z" fill="black"/>
<path d="M242.557 242.976H91.2617V58.5175H242.557V242.976ZM93.1732 241.066H240.645V60.4289H93.1732V241.066Z" fill="black"/>
<path d="M349.696 317.047L354.236 420.794C354.276 421.357 354.199 421.92 354.013 422.451C353.829 422.984 353.537 423.472 353.157 423.887C352.777 424.302 352.317 424.637 351.804 424.869C351.291 425.102 350.736 425.226 350.174 425.238L315.863 425.812C314.834 425.842 313.831 425.487 313.053 424.815C312.274 424.142 311.776 423.203 311.657 422.18L302.817 348.3L297.942 421.702C297.88 422.758 297.414 423.751 296.64 424.471C295.865 425.193 294.843 425.586 293.785 425.573L257.227 424.999C256.681 424.987 256.143 424.868 255.643 424.647C255.144 424.426 254.692 424.109 254.315 423.714C253.939 423.319 253.643 422.854 253.446 422.344C253.248 421.837 253.153 421.292 253.165 420.746L254.503 367.799L349.696 317.047Z" fill="black"/>
<path d="M227.696 243.36H34.156C33.9025 243.36 33.6594 243.259 33.4801 243.079C33.301 242.9 33.2002 242.658 33.2002 242.404C33.2002 242.15 33.301 241.907 33.4801 241.728C33.6594 241.549 33.9025 241.448 34.156 241.448H227.696C227.948 241.448 228.192 241.549 228.371 241.728C228.551 241.907 228.65 242.15 228.65 242.404C228.65 242.658 228.551 242.9 228.371 243.079C228.192 243.259 227.948 243.36 227.696 243.36Z" fill="black"/>
<path d="M243.799 258.698H50.6424C50.3889 258.698 50.1457 258.599 49.9666 258.419C49.7873 258.24 49.6865 257.996 49.6865 257.744C49.6865 257.49 49.7873 257.248 49.9666 257.068C50.1457 256.889 50.3889 256.788 50.6424 256.788H243.799C244.053 256.788 244.295 256.889 244.475 257.068C244.654 257.248 244.755 257.49 244.755 257.744C244.755 257.996 244.654 258.24 244.475 258.419C244.295 258.599 244.053 258.698 243.799 258.698Z" fill="black"/>
<path d="M463.861 243.36H367.235C366.981 243.36 366.737 243.259 366.558 243.079C366.379 242.9 366.279 242.658 366.279 242.404C366.279 242.15 366.379 241.907 366.558 241.728C366.737 241.549 366.981 241.448 367.235 241.448H463.861C464.114 241.448 464.357 241.549 464.536 241.728C464.715 241.907 464.817 242.15 464.817 242.404C464.817 242.658 464.715 242.9 464.536 243.079C464.357 243.259 464.114 243.36 463.861 243.36Z" fill="black"/>
<path d="M457.074 258.698H366.135C365.882 258.698 365.638 258.599 365.459 258.419C365.28 258.24 365.18 257.996 365.18 257.744C365.18 257.49 365.28 257.248 365.459 257.068C365.638 256.889 365.882 256.788 366.135 256.788H457.074C457.328 256.788 457.571 256.889 457.75 257.068C457.929 257.248 458.031 257.49 458.031 257.744C458.031 257.996 457.929 258.24 457.75 258.419C457.571 258.599 457.328 258.698 457.074 258.698Z" fill="black"/>
<path d="M112.001 314.61L123.232 165.753L216.944 151.13L365.562 182.622L353.902 318.052L284.753 380.509L112.001 314.61Z" fill="#3474C9"/>
<path d="M284.753 381.465H284.659C284.534 381.454 284.413 381.417 284.303 381.357C284.195 381.298 284.099 381.215 284.023 381.117C283.946 381.017 283.892 380.904 283.862 380.783C283.83 380.664 283.825 380.537 283.845 380.415L303.247 211.39L130.83 168.668C130.579 168.6 130.364 168.438 130.23 168.215C130.097 167.993 130.055 167.725 130.113 167.473C130.18 167.234 130.338 167.032 130.551 166.907C130.765 166.783 131.019 166.744 131.26 166.804L305.351 209.956L305.254 210.769L285.709 380.605C285.686 380.841 285.575 381.06 285.397 381.22C285.221 381.379 284.991 381.467 284.753 381.465Z" fill="black"/>
<path d="M304.298 211.629C304.115 211.626 303.936 211.569 303.783 211.468C303.631 211.367 303.511 211.222 303.438 211.055C303.382 210.94 303.35 210.814 303.344 210.685C303.339 210.557 303.358 210.429 303.403 210.308C303.446 210.188 303.516 210.077 303.604 209.984C303.692 209.891 303.798 209.816 303.916 209.765L344.392 192.514C344.626 192.413 344.892 192.408 345.129 192.503C345.366 192.596 345.557 192.781 345.659 193.016C345.76 193.25 345.763 193.515 345.669 193.753C345.576 193.99 345.391 194.181 345.156 194.282L304.68 211.533L304.298 211.629Z" fill="black"/>
<path d="M301.526 116.866C298.787 116.911 296.084 116.236 293.689 114.907C276.151 105.254 278.54 63.3441 278.684 61.5759C278.691 61.4504 278.721 61.3272 278.774 61.2137C278.829 61.0999 278.903 60.998 278.998 60.9137C279.091 60.8294 279.199 60.7643 279.318 60.7221C279.436 60.68 279.562 60.6615 279.687 60.668C279.811 60.6738 279.932 60.7049 280.044 60.7591C280.155 60.8136 280.253 60.8901 280.334 60.9841C280.414 61.078 280.475 61.1874 280.512 61.3058C280.548 61.424 280.56 61.5485 280.548 61.6715C280.548 62.1016 278.11 104.155 294.597 113.234C301.287 116.914 310.367 114.716 321.549 106.592C321.653 106.519 321.769 106.467 321.892 106.44C322.017 106.412 322.143 106.41 322.267 106.432C322.392 106.454 322.511 106.501 322.618 106.569C322.724 106.638 322.815 106.727 322.887 106.831C323.039 107.033 323.104 107.288 323.069 107.539C323.033 107.79 322.898 108.017 322.696 108.169C314.605 113.935 307.548 116.834 301.526 116.866Z" fill="black"/>
<path d="M345.3 123.269H344.87C341.286 121.597 336.937 113.999 336.65 112.278L332.254 87.6677L332.827 87.3332C332.875 87.2854 338.705 83.8447 339.613 79.6873C339.774 79.0299 339.785 78.3448 339.644 77.6828C339.503 77.0208 339.216 76.3991 338.801 75.8643C337.797 74.3829 336.794 73.666 335.79 73.7616C333.783 73.9528 331.872 77.2023 331.346 78.4448C331.293 78.5608 331.216 78.6654 331.123 78.7522C331.029 78.839 330.919 78.9066 330.8 78.9509C330.68 78.9954 330.552 79.0156 330.425 79.0108C330.297 79.006 330.172 78.976 330.056 78.9227C329.94 78.8692 329.835 78.7937 329.749 78.6999C329.661 78.6061 329.595 78.4962 329.55 78.3765C329.505 78.2567 329.485 78.1294 329.49 78.0015C329.495 77.8739 329.525 77.7486 329.578 77.6324C329.817 77.1066 332.158 72.1846 335.599 71.8501C337.367 71.7067 338.944 72.6625 340.378 74.7652C340.932 75.5268 341.318 76.3988 341.508 77.3221C341.698 78.2452 341.686 79.1984 341.477 80.1174C340.569 84.2748 335.981 87.5721 334.357 88.6235L338.562 111.944C338.753 113.33 342.863 120.211 345.682 121.501C345.799 121.553 345.906 121.628 345.994 121.721C346.082 121.814 346.15 121.924 346.195 122.045C346.239 122.165 346.259 122.293 346.254 122.422C346.248 122.55 346.216 122.676 346.16 122.791C346.073 122.942 345.947 123.066 345.796 123.15C345.645 123.234 345.473 123.275 345.3 123.269Z" fill="black"/>
<path d="M293.06 78.3787C294.031 78.2665 294.676 76.964 294.504 75.4697C294.331 73.9754 293.403 72.8549 292.434 72.9671C291.464 73.0793 290.817 74.3817 290.991 75.8761C291.164 77.3706 292.09 78.4909 293.06 78.3787Z" fill="black"/>
<path d="M312.722 76.7954C313.694 76.6832 314.339 75.3808 314.167 73.8863C313.994 72.3919 313.066 71.2714 312.097 71.3837C311.127 71.4959 310.48 72.7983 310.654 74.2928C310.827 75.7871 311.753 76.9076 312.722 76.7954Z" fill="black"/>
<path d="M286.856 71.9937C286.635 71.9897 286.421 71.9251 286.235 71.8071C286.051 71.6891 285.902 71.5221 285.804 71.3246C285.731 71.1873 285.688 71.0367 285.674 70.8817C285.661 70.7268 285.679 70.5709 285.729 70.4233C285.779 70.2759 285.857 70.14 285.96 70.0238C286.063 69.9076 286.189 69.8136 286.33 69.7476L294.502 65.3512C294.638 65.2687 294.789 65.2154 294.949 65.1948C295.106 65.1743 295.266 65.1869 295.42 65.2319C295.573 65.2768 295.714 65.3532 295.835 65.456C295.958 65.5589 296.056 65.6859 296.126 65.8291C296.202 65.9671 296.25 66.1186 296.267 66.275C296.283 66.4315 296.27 66.5897 296.225 66.7408C296.18 66.8917 296.107 67.0325 296.008 67.1548C295.91 67.2771 295.787 67.3787 295.649 67.4538L287.429 71.8503L286.856 71.9937Z" fill="black"/>
<path d="M317.87 69.0306H317.583L309.842 67.3103C309.532 67.2406 309.261 67.0504 309.09 66.7816C308.921 66.5127 308.864 66.1872 308.934 65.8768C309.004 65.5662 309.193 65.2961 309.462 65.1258C309.731 64.9555 310.056 64.899 310.367 64.9687L318.109 66.7368C318.262 66.7652 318.406 66.824 318.536 66.9098C318.663 66.9954 318.775 67.1065 318.859 67.236C318.944 67.3654 319.002 67.5107 319.029 67.6631C319.055 67.8156 319.052 67.9718 319.017 68.1227C318.954 68.3797 318.806 68.6085 318.599 68.7728C318.391 68.9371 318.136 69.0278 317.87 69.0306Z" fill="black"/>
<path d="M301.574 90.2484C299.902 90.2484 298.802 89.7228 298.277 88.7192C297.13 86.4254 299.806 82.7458 300.379 82.029C300.442 81.902 300.533 81.7907 300.643 81.7029C300.754 81.615 300.883 81.553 301.021 81.5211C301.159 81.4894 301.303 81.4885 301.441 81.5189C301.579 81.5493 301.71 81.6101 301.821 81.6967C301.932 81.7834 302.024 81.8939 302.089 82.0202C302.153 82.1464 302.188 82.2853 302.191 82.4269C302.195 82.5685 302.168 82.7091 302.11 82.8386C302.054 82.9681 301.967 83.0833 301.861 83.1759C300.809 84.6095 299.567 86.9989 299.997 87.8591C300.427 88.7192 300.857 88.3847 301.861 88.3369C301.986 88.3306 302.112 88.3488 302.23 88.391C302.349 88.4332 302.457 88.4984 302.552 88.5827C302.645 88.6671 302.719 88.769 302.774 88.8825C302.827 88.9962 302.859 89.1194 302.864 89.2449C302.854 89.4995 302.751 89.7419 302.575 89.9265C302.399 90.1111 302.163 90.2255 301.909 90.2484H301.574Z" fill="black"/>
<path d="M321.311 65.6379C319.51 65.6097 317.792 64.8711 316.532 63.5831C308.647 55.4593 281.217 30.5141 259.378 50.2025C256.033 53.1653 256.033 54.0255 256.081 54.2168C256.463 55.268 262.341 55.6503 268.553 55.9848C277.251 56.5105 290.344 57.2751 307.213 60.2379C307.35 60.2434 307.483 60.2781 307.606 60.3397C307.727 60.4011 307.835 60.4881 307.92 60.5946C308.006 60.701 308.068 60.8247 308.101 60.957C308.136 61.0893 308.139 61.2273 308.116 61.3617C308.091 61.4962 308.039 61.6238 307.961 61.7362C307.883 61.8486 307.782 61.9431 307.666 62.0131C307.548 62.0832 307.417 62.1273 307.282 62.1426C307.146 62.1579 307.008 62.1439 306.879 62.1016C290.153 59.1866 277.107 58.422 268.458 57.8963C259.808 57.3708 255.077 57.1317 254.265 54.8857C253.452 52.6398 255.316 51.3016 258.088 48.769C266.498 41.2185 276.39 39.0681 287.668 42.4132C287.664 42.2058 287.733 42.0035 287.859 41.8398C292.59 36.392 297.082 34.4805 302.052 32.7601C312.661 29.0327 321.406 29.2716 328.097 33.4292C337.702 39.4982 340.426 52.1618 341.238 59.1388C341.306 59.8126 341.241 60.4934 341.043 61.1414C340.846 61.7895 340.522 62.3921 340.091 62.914C339.659 63.4439 339.121 63.8785 338.512 64.191C337.904 64.5034 337.237 64.6869 336.555 64.73L321.741 65.5901L321.311 65.6379ZM289.436 42.9867C290.966 43.5122 292.543 44.1336 294.12 44.8504C305.254 49.9637 314.477 58.7087 317.918 62.245C318.388 62.7402 318.96 63.1255 319.598 63.3733C320.234 63.6212 320.916 63.7254 321.598 63.6786L336.412 62.8184C337.26 62.754 338.049 62.3594 338.61 61.7193C338.887 61.4011 339.093 61.0281 339.217 60.6247C339.34 60.2213 339.378 59.7965 339.327 59.3777C338.562 52.6876 335.982 40.6929 327.093 35.0539C320.928 31.1831 312.709 31.0398 302.674 34.5283C297.99 36.2008 293.785 37.969 289.436 42.9867Z" fill="black"/>
<path d="M256.749 55.698C256.749 55.698 247.431 56.2237 280.404 65.829L282.124 58.4219L256.749 55.698Z" fill="black"/>
<path d="M341.381 77.4891L341.142 59.76C341.142 59.76 340.665 66.8326 317.583 64.1087L329.243 78.8273C329.96 79.6873 331.346 78.7795 331.442 77.6804C331.728 75.0041 336.459 68.1228 340.999 77.5848C341.012 77.6354 341.044 77.679 341.089 77.7059C341.133 77.7328 341.187 77.7408 341.238 77.728C341.289 77.7154 341.333 77.683 341.359 77.6384C341.386 77.5935 341.394 77.5398 341.381 77.4891Z" fill="black"/>
<path d="M326.185 59.1865H333.162C334.033 59.1865 334.739 58.4805 334.739 57.6095V55.698C334.739 54.827 334.033 54.121 333.162 54.121H326.185C325.313 54.121 324.608 54.827 324.608 55.698V57.6095C324.608 58.4805 325.313 59.1865 326.185 59.1865Z" fill="#3474C9"/>
<path d="M302.817 149.457C302.658 149.452 302.502 149.411 302.361 149.336C302.22 149.261 302.099 149.155 302.004 149.027C298.659 144.439 294.024 138.562 292.112 137.271C291.156 136.602 289.149 137.462 286.808 139.661C286.579 139.876 286.285 140.007 285.973 140.033C285.66 140.059 285.347 139.978 285.087 139.804C284.831 139.631 284.64 139.377 284.544 139.082C284.449 138.788 284.456 138.47 284.562 138.179C288.289 128.096 293.45 115.863 296.748 115.002C296.992 114.942 297.248 114.936 297.497 114.986C297.744 115.035 297.978 115.139 298.181 115.289C300.666 117.009 302.004 127.236 303.342 143.197C303.581 145.634 303.725 147.593 303.82 148.262C303.871 148.484 303.842 148.717 303.735 148.918C303.631 149.118 303.458 149.276 303.247 149.361L302.817 149.457ZM291.348 135.121C292.012 135.12 292.661 135.32 293.211 135.694C295.218 137.08 299.089 141.954 301.622 145.299C301.574 144.678 301.526 144.057 301.431 143.34C301.096 138.992 300.523 132.445 299.71 126.949C298.564 118.634 297.464 117.153 297.13 116.914C295.648 117.487 292.017 123.891 287.047 136.937C288.671 135.742 290.105 135.121 291.348 135.121Z" fill="black"/>
<path d="M247.67 158.919C247.516 158.922 247.363 158.884 247.229 158.81C247.094 158.733 246.983 158.622 246.905 158.489C246.771 158.277 246.719 158.021 246.764 157.774C246.809 157.525 246.945 157.304 247.144 157.151C247.655 156.442 248.103 155.69 248.482 154.905C250.489 151.177 254.217 144.2 261.05 141.907C269.7 139.039 287.286 131.585 287.429 131.537C287.648 131.482 287.877 131.507 288.08 131.605C288.282 131.704 288.443 131.871 288.534 132.076C288.626 132.281 288.641 132.512 288.579 132.728C288.516 132.944 288.38 133.132 288.194 133.257C288.003 133.353 270.369 140.808 261.672 143.723C255.555 145.777 252.162 152.037 250.155 155.813C249.199 157.581 248.769 158.393 248.196 158.776C248.039 158.873 247.856 158.922 247.67 158.919Z" fill="black"/>
<path d="M380.088 195.859C379.846 195.847 379.617 195.751 379.441 195.583C379.265 195.417 379.156 195.192 379.134 194.951C379.127 194.825 379.146 194.7 379.187 194.581C379.23 194.463 379.295 194.353 379.38 194.26C379.463 194.168 379.566 194.091 379.678 194.038C379.793 193.985 379.916 193.953 380.04 193.947C393.518 193.135 404.125 184.39 409.24 180.184L409.525 179.993C410.959 178.799 411.867 177.604 411.916 177.174C405.847 168.907 385.488 141.811 375.548 135.838C363.603 128.669 345.204 123.317 345.013 123.269C344.78 123.183 344.588 123.012 344.471 122.792C344.357 122.571 344.329 122.315 344.392 122.075C344.418 121.953 344.471 121.839 344.545 121.738C344.619 121.638 344.712 121.554 344.82 121.491C344.928 121.428 345.046 121.388 345.17 121.374C345.293 121.359 345.419 121.37 345.539 121.406C345.73 121.454 364.367 126.901 376.505 134.213C386.541 140.186 405.702 165.514 413.493 176.122C414.782 177.843 411.964 180.423 410.72 181.475L410.481 181.666C405.178 186.014 394.233 195.046 380.137 195.859H380.088Z" fill="black"/>
<path d="M360.305 176.505C360.15 176.508 359.998 176.47 359.863 176.394C359.729 176.319 359.617 176.208 359.541 176.075C356.477 171.592 354.093 166.68 352.468 161.5C349.218 150.652 351.226 141.907 358.346 136.22C358.542 136.063 358.794 135.99 359.045 136.016C359.295 136.043 359.524 136.168 359.684 136.363C359.768 136.458 359.832 136.569 359.87 136.69C359.91 136.811 359.923 136.938 359.908 137.064C359.895 137.19 359.855 137.312 359.792 137.422C359.729 137.532 359.642 137.627 359.541 137.702C343.866 150.317 360.879 174.737 361.07 174.976C361.143 175.079 361.194 175.195 361.221 175.32C361.249 175.443 361.251 175.571 361.229 175.695C361.208 175.82 361.161 175.937 361.092 176.044C361.023 176.15 360.935 176.243 360.831 176.314C360.676 176.425 360.496 176.492 360.305 176.505Z" fill="black"/>
<path d="M265.925 161.499L195.057 183.577L191.567 220.565L217.659 229.215L220.431 189.885L292.59 167.138L265.925 161.499Z" fill="black"/>
<path d="M268.218 342.137L275.626 282.068C275.709 281.241 275.474 280.415 274.967 279.757C274.461 279.1 273.721 278.662 272.902 278.53L245.28 274.565C244.862 274.505 244.437 274.528 244.027 274.636C243.618 274.744 243.236 274.933 242.901 275.192C242.567 275.449 242.289 275.773 242.081 276.142C241.874 276.51 241.744 276.917 241.696 277.337L234.958 333.486C234.862 334.24 235.041 335.004 235.463 335.636C235.884 336.267 236.52 336.727 237.252 336.928L264.157 344.813C264.601 344.94 265.067 344.97 265.524 344.901C265.982 344.831 266.417 344.663 266.803 344.409C267.189 344.155 267.516 343.82 267.76 343.428C268.004 343.035 268.161 342.595 268.218 342.137Z" fill="#E9EFF6"/>
<path d="M144.64 308.302L149.276 277.91C149.419 277.05 148.654 276.284 147.603 276.142L130.208 274.135C129.109 273.992 128.106 274.613 127.962 275.521L123.709 303.953C123.693 304.367 123.831 304.772 124.096 305.09C124.36 305.407 124.733 305.615 125.143 305.675L142.108 309.689C143.254 309.976 144.497 309.307 144.64 308.302Z" fill="#E9EFF6"/>
<path d="M264.204 291.673H264.013L247.48 288.28C247.353 288.258 247.234 288.21 247.128 288.139C247.021 288.067 246.932 287.974 246.864 287.866C246.797 287.758 246.753 287.637 246.734 287.511C246.718 287.385 246.726 287.255 246.762 287.133C246.777 287.01 246.821 286.89 246.887 286.784C246.952 286.678 247.041 286.588 247.146 286.52C247.251 286.452 247.368 286.407 247.491 286.389C247.616 286.371 247.742 286.381 247.861 286.415L264.395 289.808C264.521 289.83 264.641 289.878 264.747 289.95C264.853 290.021 264.943 290.114 265.011 290.222C265.077 290.331 265.122 290.453 265.139 290.579C265.157 290.705 265.149 290.833 265.112 290.956C265.061 291.158 264.943 291.337 264.778 291.467C264.616 291.596 264.413 291.669 264.204 291.673Z" fill="black"/>
<path d="M264.204 302.378H263.965L247.431 297.981C247.307 297.947 247.192 297.891 247.091 297.811C246.991 297.733 246.907 297.635 246.844 297.524C246.782 297.413 246.742 297.29 246.727 297.164C246.714 297.036 246.726 296.908 246.762 296.785C246.829 296.548 246.986 296.344 247.201 296.219C247.415 296.095 247.669 296.058 247.909 296.116L264.443 300.514C264.566 300.547 264.682 300.603 264.783 300.681C264.883 300.761 264.968 300.859 265.029 300.97C265.092 301.081 265.132 301.204 265.145 301.33C265.16 301.457 265.149 301.586 265.112 301.707C265.067 301.91 264.949 302.089 264.783 302.212C264.616 302.335 264.411 302.393 264.204 302.378Z" fill="black"/>
<path d="M264.204 314.132H263.918L247.383 308.732C247.142 308.656 246.943 308.487 246.827 308.264C246.711 308.04 246.688 307.78 246.762 307.539C246.849 307.305 247.02 307.112 247.24 306.998C247.461 306.883 247.715 306.853 247.956 306.916L264.491 312.316C264.732 312.394 264.931 312.562 265.047 312.786C265.163 313.01 265.187 313.271 265.112 313.512C265.037 313.693 264.913 313.847 264.752 313.958C264.589 314.068 264.4 314.129 264.204 314.132Z" fill="black"/>
<path d="M133.458 302.376H133.314C133.068 302.33 132.85 302.189 132.707 301.983C132.564 301.779 132.508 301.525 132.55 301.277L135.56 284.218C135.598 283.964 135.735 283.736 135.942 283.583C136.148 283.432 136.406 283.368 136.659 283.406C136.913 283.444 137.141 283.58 137.293 283.786C137.446 283.993 137.51 284.251 137.472 284.505L134.413 301.613C134.378 301.837 134.261 302.038 134.084 302.18C133.907 302.322 133.684 302.391 133.458 302.376Z" fill="black"/>
<path d="M142.49 293.631C142.32 293.625 142.155 293.572 142.012 293.48C141.869 293.387 141.754 293.258 141.677 293.107L136.325 283.5C134.127 285.891 132.024 288.519 131.977 289.284C131.977 289.412 131.951 289.538 131.9 289.654C131.848 289.772 131.772 289.877 131.678 289.961C131.583 290.047 131.471 290.112 131.35 290.152C131.228 290.192 131.1 290.205 130.973 290.192C130.724 290.167 130.492 290.051 130.324 289.865C130.156 289.681 130.064 289.438 130.065 289.188C130.208 287.133 134.509 282.592 135.847 281.254L136.707 280.346L143.35 292.199C143.469 292.42 143.496 292.68 143.424 292.923C143.353 293.163 143.189 293.367 142.968 293.489C142.827 293.585 142.66 293.635 142.49 293.631Z" fill="black"/>
<path d="M304.298 103.055C304.077 103.051 303.863 102.974 303.69 102.836C303.518 102.697 303.395 102.506 303.342 102.291C303.299 102.038 303.355 101.779 303.496 101.565C303.639 101.352 303.856 101.201 304.107 101.144C304.155 101.144 311.944 99.3757 313.808 95.4571C313.913 95.2317 314.1 95.0556 314.333 94.9664C314.563 94.8771 314.822 94.8818 315.05 94.9794C315.279 95.0931 315.457 95.2898 315.544 95.5297C315.634 95.7695 315.627 96.0341 315.528 96.2695C313.234 101.048 304.872 102.912 304.489 103.008L304.298 103.055Z" fill="black"/>
<path d="M328.288 113.378C328.288 113.378 334.882 105.636 338.036 107.452C341.19 109.268 344.201 119.542 340.665 123.413C337.128 127.284 326.758 140.378 324.321 137.462C321.884 134.548 314.19 128.574 317.583 122.84C320.976 117.105 328.288 113.378 328.288 113.378Z" fill="#E9EFF6"/>
<path d="M306.066 170.149C305.833 170.149 305.609 170.061 305.44 169.9C305.272 169.741 305.171 169.522 305.158 169.289L301.096 139.422L308.647 128.956C309.333 127.928 310.171 127.01 311.132 126.232L328.861 111.657L329.434 111.179C335.647 105.732 336.411 105.588 337.128 105.779C339.04 106.353 340.951 108.551 342.098 111.466C342.911 113.569 344.44 118.969 341.095 124.464V124.608C339.183 126.997 329.673 138.466 324.751 138.466L324.13 138.37C319.256 137.319 316.532 129.1 316.388 128.765C316.323 128.518 316.349 128.255 316.464 128.027C316.579 127.798 316.773 127.619 317.01 127.523C317.251 127.448 317.511 127.471 317.736 127.587C317.958 127.703 318.127 127.904 318.204 128.144C318.921 130.247 321.406 135.838 324.56 136.507C327.714 137.176 334.882 129.243 339.565 123.461C340.544 121.765 341.127 119.869 341.268 117.915C341.409 115.962 341.103 114.002 340.378 112.183C339.374 109.65 337.941 108.121 336.842 107.691C335.742 107.261 334.93 108.981 330.725 112.613L330.151 113.139L312.326 127.714C311.502 128.388 310.777 129.176 310.176 130.055L303.103 139.9L307.022 169.05C307.042 169.176 307.037 169.304 307.007 169.429C306.977 169.551 306.922 169.668 306.848 169.771C306.771 169.873 306.677 169.96 306.567 170.025C306.458 170.089 306.336 170.132 306.21 170.149H306.066Z" fill="black"/>
<path d="M240.121 108.79H93.2212C92.9677 108.79 92.7247 108.689 92.5454 108.51C92.3661 108.331 92.2655 108.088 92.2655 107.834C92.2585 107.707 92.2786 107.579 92.3241 107.46C92.3698 107.341 92.4398 107.233 92.5301 107.143C92.6203 107.053 92.7283 106.983 92.8475 106.937C92.9665 106.892 93.0938 106.871 93.2212 106.878H240.121C240.247 106.871 240.375 106.892 240.494 106.937C240.614 106.983 240.721 107.053 240.811 107.143C240.901 107.233 240.972 107.341 241.017 107.46C241.062 107.579 241.083 107.707 241.075 107.834C241.075 108.088 240.975 108.331 240.796 108.51C240.617 108.689 240.373 108.79 240.121 108.79Z" fill="black"/>
<path d="M240.121 108.79H93.2212C92.9677 108.79 92.7247 108.689 92.5454 108.51C92.3661 108.331 92.2655 108.088 92.2655 107.834C92.2585 107.707 92.2786 107.579 92.3241 107.46C92.3698 107.341 92.4398 107.233 92.5301 107.143C92.6203 107.053 92.7283 106.983 92.8475 106.937C92.9665 106.892 93.0938 106.871 93.2212 106.878H240.121C240.247 106.871 240.375 106.892 240.494 106.937C240.614 106.983 240.721 107.053 240.811 107.143C240.901 107.233 240.972 107.341 241.017 107.46C241.062 107.579 241.083 107.707 241.075 107.834C241.075 108.088 240.975 108.331 240.796 108.51C240.617 108.689 240.373 108.79 240.121 108.79Z" fill="black"/>
<path d="M366.757 222.62C366.757 222.62 349.983 235.475 345.635 231.986C341.286 228.498 334.883 224.436 330.438 223.91C325.994 223.385 315.481 218.223 312.231 219.944C308.982 221.664 309.698 228.259 315.146 229.071C320.594 229.884 329.148 232.942 327.858 234.471C326.568 236 306.21 239.585 299.472 236.431C294.837 234.232 294.932 238.008 297.895 240.97C302.626 245.654 315.863 243.073 315.863 243.073C315.863 243.073 292.304 238.868 289.341 244.459C288.433 246.131 292.017 247.422 293.833 250.576C295.649 253.73 295.697 256.215 298.803 258.986C301.909 261.758 307.739 262.045 308.456 265.342C309.412 269.978 315.003 270.169 316.389 270.694C320.785 272.51 327.428 273.084 352.325 252.678C356.435 249.333 362.169 248.664 367.378 243.981L379.707 239.823L366.757 222.62Z" fill="#E9EFF6"/>
<path d="M320.881 257.123C302.673 257.123 290.535 250.767 288.528 246.56C288.05 245.462 288.146 244.459 288.863 243.694C292.065 240.445 299.28 241.496 299.615 241.544C299.861 241.579 300.081 241.708 300.234 241.904C300.385 242.102 300.455 242.349 300.427 242.595C300.41 242.721 300.367 242.842 300.302 242.952C300.237 243.061 300.151 243.157 300.048 243.232C299.947 243.309 299.829 243.363 299.706 243.393C299.582 243.423 299.454 243.428 299.328 243.406C297.512 243.169 292.303 242.93 290.201 245.08C290.153 245.128 290.057 245.223 290.249 245.749C291.873 249.19 305.541 256.93 328.192 254.877C328.315 254.864 328.439 254.875 328.557 254.912C328.677 254.948 328.786 255.01 328.879 255.09C328.974 255.171 329.05 255.269 329.105 255.38C329.158 255.491 329.19 255.612 329.196 255.737C329.208 255.861 329.196 255.989 329.161 256.11C329.125 256.232 329.065 256.344 328.985 256.441C328.904 256.539 328.806 256.62 328.695 256.68C328.584 256.74 328.461 256.776 328.335 256.788C325.755 257.027 323.27 257.123 320.881 257.123Z" fill="black"/>
<path d="M318.443 265.677C309.65 265.677 303.008 263.813 298.564 260.084C294.119 256.358 293.833 252.583 293.785 252.439C293.769 252.183 293.848 251.929 294.006 251.726C294.165 251.524 294.393 251.386 294.645 251.34C294.771 251.326 294.897 251.338 295.018 251.374C295.14 251.411 295.253 251.471 295.35 251.55C295.448 251.63 295.528 251.73 295.588 251.841C295.648 251.952 295.684 252.075 295.696 252.199C295.696 252.248 296.174 255.689 299.902 258.747C303.629 261.806 310.654 264.815 324.942 263.478C325.068 263.466 325.194 263.478 325.315 263.514C325.436 263.551 325.548 263.61 325.645 263.69C325.743 263.77 325.825 263.869 325.885 263.981C325.944 264.092 325.981 264.213 325.994 264.337C326.006 264.464 325.994 264.59 325.958 264.711C325.921 264.832 325.861 264.945 325.782 265.041C325.702 265.139 325.602 265.221 325.491 265.28C325.38 265.34 325.259 265.377 325.133 265.39C322.792 265.581 320.546 265.677 318.443 265.677Z" fill="black"/>
<path d="M319.256 271.937C315.242 271.937 311.323 270.551 307.882 266.776L307.596 266.441C307.404 266.306 307.268 266.104 307.215 265.875C307.161 265.645 307.195 265.405 307.309 265.199C307.439 264.986 307.643 264.829 307.88 264.759C308.119 264.688 308.375 264.709 308.599 264.815C308.875 264.996 309.117 265.222 309.316 265.484C314.955 271.698 322.983 271.553 333.162 265.103C342.289 259.369 344.679 257.123 346.781 255.163C348.884 253.204 350.031 252.105 354.666 249.238C364.893 242.93 384.486 237.769 385.298 237.577C385.426 237.517 385.563 237.485 385.704 237.484C385.845 237.484 385.985 237.513 386.111 237.573C386.239 237.631 386.352 237.718 386.443 237.826C386.533 237.933 386.599 238.06 386.634 238.196C386.671 238.332 386.675 238.475 386.651 238.612C386.624 238.752 386.569 238.883 386.486 238.998C386.405 239.11 386.299 239.205 386.176 239.275C386.053 239.343 385.917 239.383 385.776 239.393C385.585 239.441 365.61 244.698 355.67 250.862C351.178 253.634 349.744 254.972 348.072 256.549C346.399 258.126 343.484 260.898 334.213 266.728C329.865 269.5 324.512 271.937 319.256 271.937Z" fill="black"/>
<path d="M308.121 244.746C304.155 244.746 299.711 244.077 297.226 241.639C294.741 239.202 294.406 237.147 295.41 235.714C295.888 235.045 297.13 234.089 300.141 235.523C306.353 238.39 324.13 235.379 326.902 233.946C325.898 232.894 320.785 230.744 315.958 230.027C312.088 229.454 309.555 226.443 309.125 223.815C308.79 221.903 309.507 220.326 310.988 219.514C313.426 218.176 318.873 219.8 324.13 221.33C326.225 222.017 328.365 222.56 330.534 222.954C336.268 223.623 344.01 229.501 346.208 231.27C346.734 231.652 349.266 232.56 360.019 226.204C365.992 222.716 371.535 218.701 371.583 218.701C371.785 218.55 372.041 218.483 372.292 218.52C372.542 218.556 372.77 218.689 372.921 218.892C373.057 219.104 373.107 219.36 373.063 219.609C373.019 219.856 372.883 220.078 372.682 220.231C372.635 220.278 367.043 224.292 361.022 227.877C349.601 234.567 346.447 233.85 345.013 232.751C340.665 229.262 334.5 225.344 330.342 224.866C328.67 224.675 326.233 223.958 323.604 223.193C319.399 221.951 313.665 220.231 311.896 221.186C310.128 222.142 310.893 222.859 310.988 223.48C311.323 225.392 313.282 227.685 316.245 228.163C320.164 228.737 327.953 231.126 328.861 233.516C328.959 233.78 328.984 234.066 328.932 234.343C328.883 234.62 328.758 234.879 328.574 235.093C326.758 237.195 306.066 240.397 299.328 237.243C297.895 236.526 297.082 236.622 296.939 236.813C296.796 237.004 297.034 238.724 298.564 240.301C302.912 244.553 315.528 242.117 315.672 242.117C315.903 242.108 316.129 242.183 316.308 242.327C316.489 242.472 316.61 242.676 316.652 242.903C316.691 243.131 316.648 243.365 316.53 243.562C316.413 243.76 316.225 243.909 316.006 243.981C313.406 244.474 310.767 244.729 308.121 244.746Z" fill="black"/>
<path d="M385.537 239.441C385.336 239.432 385.142 239.366 384.981 239.247C384.818 239.127 384.695 238.961 384.629 238.772C384.592 238.649 384.581 238.521 384.595 238.395C384.609 238.267 384.649 238.144 384.712 238.033C384.773 237.922 384.858 237.824 384.959 237.746C385.059 237.668 385.175 237.61 385.298 237.577C410.148 230.314 424.006 220.469 426.539 208.236C429.835 192.275 412.298 177.556 412.107 177.413C411.911 177.247 411.786 177.011 411.765 176.756C411.741 176.502 411.823 176.248 411.987 176.05C412.151 175.854 412.387 175.732 412.643 175.708C412.898 175.687 413.152 175.766 413.348 175.931C414.114 176.553 431.939 191.558 428.401 208.618C425.725 221.569 411.389 231.938 385.824 239.393L385.537 239.441Z" fill="black"/>
<path d="M372.157 220.422C371.996 220.424 371.837 220.386 371.696 220.311C371.553 220.236 371.433 220.125 371.344 219.992C371.209 219.78 371.158 219.524 371.203 219.275C371.247 219.028 371.384 218.805 371.583 218.654C371.775 218.51 390.842 205.369 405.369 198.105C405.482 198.049 405.604 198.015 405.731 198.006C405.857 197.997 405.983 198.012 406.104 198.052C406.224 198.092 406.333 198.155 406.429 198.238C406.524 198.321 406.602 198.422 406.659 198.535C406.717 198.648 406.75 198.771 406.758 198.897C406.768 199.023 406.752 199.149 406.712 199.269C406.672 199.388 406.609 199.5 406.526 199.596C406.443 199.69 406.341 199.768 406.229 199.825C391.845 206.993 372.874 220.087 372.682 220.23C372.532 220.347 372.348 220.415 372.157 220.422Z" fill="black"/>
<path d="M393.612 205.751C393.413 205.748 393.217 205.7 393.04 205.607L376.84 194.138L376.41 193.947L374.785 192.657C374.307 192.275 373.59 191.701 374.164 190.984C374.737 190.268 375.357 190.65 376.314 191.367L377.509 192.275L377.652 192.37L394.139 204.03C394.243 204.103 394.331 204.194 394.399 204.3C394.469 204.406 394.516 204.524 394.537 204.649C394.56 204.773 394.557 204.901 394.529 205.026C394.502 205.148 394.451 205.265 394.378 205.369C394.286 205.484 394.17 205.578 394.037 205.645C393.906 205.711 393.76 205.748 393.612 205.751Z" fill="black"/>
<path d="M373.256 218.797H373.208C372.959 218.772 372.726 218.656 372.559 218.472C372.391 218.286 372.298 218.043 372.3 217.793L373.781 191.749C373.805 191.5 373.922 191.268 374.108 191.1C374.292 190.932 374.534 190.839 374.785 190.841C374.911 190.848 375.034 190.877 375.147 190.932C375.261 190.985 375.363 191.062 375.447 191.155C375.532 191.248 375.597 191.357 375.638 191.475C375.681 191.593 375.699 191.719 375.693 191.845L374.21 217.889C374.199 218.135 374.093 218.365 373.915 218.533C373.737 218.702 373.502 218.797 373.256 218.797Z" fill="black"/>
</svg>
