<svg width="244" height="37" viewBox="0 0 244 37" fill="none" xmlns="http://www.w3.org/2000/svg">
<g clip-path="url(#clip0_100_155)">
<path d="M4.202 25.957L20.78 29.14L22.068 26.917L7.332 20.55L4.202 25.957ZM11.882 12.69L24.777 22.244L26.065 20.02L15.013 7.282L11.883 12.69H11.882ZM8.03 19.348L22.766 25.717L24.079 23.445L11.184 13.892L8.03 19.348ZM19.227 0L15.747 6.02L26.8 18.76L28.438 15.936L19.227 0ZM0 33.227H18.42L20.057 30.403L3.48 27.22L0 33.227ZM29.231 25.789L33.541 33.227H38.441L29.231 17.305L20.021 33.227H24.921L29.231 25.789Z" fill="#FCAF17"/>
<path d="M68.4298 33.203H75.4498L77.0628 30.355H68.4308L68.4298 33.203ZM68.4298 25.295V28.143H78.3398L79.9888 25.295H68.4298ZM217.214 28.672V20.26H214.107V33.203H216.708L224.184 24.731V33.203H227.29V20.26H224.546L217.214 28.672ZM86.6948 20.26L79.2548 33.203H82.9148L87.8148 24.658L92.7508 33.203H96.6038L89.1638 20.26H86.6948ZM64.3388 30.354L56.8988 17.4H54.3588L46.9178 30.354H45.0518V37H48.0128V33.202H63.2428V37H66.2048V30.354H64.3388ZM50.6258 30.354L55.5258 21.798L60.4618 30.354H50.6258ZM165.877 20.26H151.418V23.108H164.215L165.877 20.26ZM82.8778 20.26H68.4308V23.108H81.2288L82.8778 20.26ZM241.255 20.26L233.923 28.672V20.26H230.817V33.203H233.429L240.894 24.731V33.203H244V20.26H241.255ZM207.473 25.295H200.671V20.26H197.564V33.203H200.671V28.143H207.473V33.203H210.579V20.26H207.473V25.295ZM169.682 20.26L162.242 33.203H165.914L170.814 24.658L175.75 33.203H179.591L172.15 20.26H169.682ZM138.981 24.9H134.262V20.249H131.156V33.203H138.957C141.064 33.203 143.255 32.038 143.255 28.985C143.243 24.972 140.426 24.9 138.981 24.9ZM138.801 30.464H134.25V27.58H138.801C139.33 27.58 140.137 27.724 140.137 29.022C140.137 30.223 139.475 30.464 138.801 30.464ZM147.903 20.26H144.833V33.215H147.903V20.26ZM104.43 19.947C99.2398 19.947 96.7848 23.12 96.7848 26.665C96.7848 30.366 99.1798 33.382 104.43 33.382C106.717 33.382 112.014 32.325 112.014 26.665C112.014 22.964 109.643 19.947 104.43 19.947ZM104.394 30.534C101.396 30.534 100.132 28.816 100.132 26.701C100.132 24.381 101.576 22.831 104.394 22.831C107.572 22.831 108.655 24.381 108.655 26.701C108.655 29.477 106.573 30.534 104.394 30.534ZM151.418 33.203H158.437L160.062 30.355H151.418V33.203ZM151.418 25.295V28.143H161.326L162.987 25.295H151.418ZM183.961 28.6V20.26H180.855V33.203H183.468L190.944 24.803V33.203H194.05V20.26H191.438L183.961 28.6ZM125.57 25.572C126.388 25.223 127.087 24.659 127.087 23.252C127.087 20.572 124.835 20.26 123.246 20.26H114.855V33.215H123.391C127.303 33.215 128.11 31.064 128.11 29.093C128.122 26.87 126.858 25.956 125.57 25.572ZM117.925 23H122.897C123.643 23 123.956 23.385 123.956 24.13C123.956 24.899 123.463 25.295 122.897 25.295H117.925V23ZM123.391 30.463H117.925V27.687H123.391C124.269 27.687 124.908 27.903 124.908 29.057C124.908 29.97 124.522 30.463 123.391 30.463Z" fill="black"/>
</g>
<defs>
<clipPath id="clip0_100_155">
<rect width="244" height="37" fill="white"/>
</clipPath>
</defs>
</svg>
