<svg width="121" height="51" viewBox="0 0 121 51" fill="none" xmlns="http://www.w3.org/2000/svg">
<g clip-path="url(#clip0_100_54)">
<path fill-rule="evenodd" clip-rule="evenodd" d="M77.8589 40.2496C75.6563 40.8665 72.7878 41.1235 70.329 41.1235C63.9263 41.1235 59.7261 37.7822 59.7261 31.6651C59.7261 25.8564 63.6702 22.1039 69.407 22.1039C70.6876 22.1039 72.0706 22.2581 72.8902 22.6693V14.239H77.8589V40.2496ZM72.8902 26.9873C72.1218 26.6274 71.0462 26.4218 69.8168 26.4218C66.7948 26.4218 64.7971 28.2724 64.7971 31.5109C64.7971 34.9549 66.9485 36.9083 70.4827 36.9083C71.0974 36.9083 72.0706 36.9083 72.8902 36.7027V26.9873ZM118.684 40.2496C116.481 40.8665 113.613 41.1235 111.103 41.1235C104.751 41.1235 100.5 37.7822 100.5 31.6651C100.5 25.8564 104.444 22.1039 110.181 22.1039C111.513 22.1039 112.844 22.2581 113.664 22.6693V14.239H118.684V40.2496ZM113.664 26.9873C112.896 26.6274 111.871 26.4218 110.642 26.4218C107.568 26.4218 105.571 28.2724 105.571 31.5109C105.571 34.9549 107.773 36.9083 111.308 36.9083C111.922 36.9083 112.844 36.9083 113.664 36.7027V26.9873ZM85.696 26.9873C86.5156 26.6274 87.6937 26.5246 88.667 26.5246C91.7404 26.5246 93.8405 28.2724 93.8405 31.4081C93.8405 35.1091 91.4843 36.8055 88.3596 36.8569V41.1235H88.6158C95.0699 41.1235 98.9117 37.5766 98.9117 31.2539C98.9117 25.4965 94.8138 22.1039 88.7694 22.1039C85.696 22.1039 82.6739 22.8235 80.6761 23.646V48.0631H85.696V26.9873Z" fill="black"/>
<path fill-rule="evenodd" clip-rule="evenodd" d="M41.3882 10.2295L42.2077 11.1548L42.6687 10.8978L41.3882 10.2295Z" fill="#DC0032"/>
<path fill-rule="evenodd" clip-rule="evenodd" d="M40.1587 9.56122L41.7465 11.4118L42.31 11.1034L41.6953 10.3837L40.1587 9.56122Z" fill="#DC0032"/>
<path fill-rule="evenodd" clip-rule="evenodd" d="M38.8784 8.89294L41.2859 11.6688L41.8493 11.3604L40.4663 9.71542L38.8784 8.89294Z" fill="#DC0032"/>
<path fill-rule="evenodd" clip-rule="evenodd" d="M37.6489 8.22467L40.8248 11.9258L41.3882 11.6174L39.1856 9.04715L37.6489 8.22467ZM43.7444 14.753L43.3859 14.9586L43.7444 15.3699V14.753Z" fill="#DC0032"/>
<path fill-rule="evenodd" clip-rule="evenodd" d="M36.4194 7.55646L40.3636 12.1829L40.9271 11.8745L37.9561 8.37893L36.4194 7.55646ZM43.5394 14.8559L42.976 15.2157L43.7443 16.141V15.1643L43.5394 14.8559Z" fill="#DC0032"/>
<path fill-rule="evenodd" clip-rule="evenodd" d="M35.1392 6.88818L39.9029 12.4399L40.5176 12.1315L36.7271 7.71066L35.1392 6.88818ZM43.0787 15.1129L42.5153 15.4727L43.7446 16.912V15.9354L43.0787 15.1129Z" fill="#DC0032"/>
<path fill-rule="evenodd" clip-rule="evenodd" d="M33.9097 6.21991L39.493 12.6969L40.0565 12.3885L35.4464 7.04237L33.9097 6.21991ZM42.6176 15.4213L42.0541 15.7297L43.7445 17.7345V16.7578L42.6176 15.4213Z" fill="#DC0032"/>
<path fill-rule="evenodd" clip-rule="evenodd" d="M32.6802 5.5517L39.0319 12.954L39.5953 12.6455L34.2169 6.37417L32.6802 5.5517ZM42.1564 15.6783L41.593 15.9868L43.7443 18.5056V17.5289L42.1564 15.6783Z" fill="#DC0032"/>
<path fill-rule="evenodd" clip-rule="evenodd" d="M31.3999 4.88342L38.5711 13.211L39.1346 12.9025L32.9878 5.70589L31.3999 4.88342ZM41.6957 15.9353L41.1323 16.2438L43.7446 19.2767V18.3L41.6957 15.9353Z" fill="#DC0032"/>
<path fill-rule="evenodd" clip-rule="evenodd" d="M30.1704 4.21515L38.11 13.5194L38.6734 13.1595L31.7071 5.03762L30.1704 4.21515ZM41.2346 16.1924L40.6711 16.5008L43.7445 20.0991V19.1224L41.2346 16.1924Z" fill="#DC0032"/>
<path fill-rule="evenodd" clip-rule="evenodd" d="M28.8896 3.54688L37.6488 13.7764L38.2122 13.4165L30.4776 4.36934L28.8896 3.54688ZM40.8246 16.4494L40.2099 16.7578L43.7443 20.8702V19.8935L40.8246 16.4494Z" fill="#DC0032"/>
<path fill-rule="evenodd" clip-rule="evenodd" d="M27.6602 2.87866L37.1876 14.0334L37.8023 13.6736L29.2481 3.70113L27.6602 2.87866ZM40.3635 16.7064L39.8 17.0149L43.7441 21.6927V20.6646L40.3635 16.7064Z" fill="#DC0032"/>
<path fill-rule="evenodd" clip-rule="evenodd" d="M26.4312 2.21039L36.7782 14.2904L37.3417 13.9306L27.9679 3.03286L26.4312 2.21039ZM39.9028 16.9634L39.3394 17.2719L43.7445 22.4637V21.4871L39.9028 16.9634Z" fill="#DC0032"/>
<path fill-rule="evenodd" clip-rule="evenodd" d="M25.1504 1.49072L36.317 14.5474L36.8805 14.1876L26.7383 2.3646L25.1504 1.49072ZM39.4416 17.2205L38.8782 17.5289L43.7443 23.2347V22.2581L39.4416 17.2205Z" fill="#DC0032"/>
<path fill-rule="evenodd" clip-rule="evenodd" d="M23.9209 0.822449L35.8559 14.8044L36.4193 14.496L25.5088 1.69632L23.9209 0.822449ZM38.9805 17.4775L38.417 17.7859L43.7442 24.0572V23.0292L38.9805 17.4775Z" fill="#DC0032"/>
<path fill-rule="evenodd" clip-rule="evenodd" d="M22.6919 0.205627L35.3951 15.0615L35.9586 14.753L24.2285 1.0281L22.6919 0.205627ZM38.5198 17.7345L37.9563 18.0429L43.7445 24.8283V23.8516L38.5198 17.7345Z" fill="#DC0032"/>
<path fill-rule="evenodd" clip-rule="evenodd" d="M21.8721 0L34.9339 15.3185L35.4973 15.0101L22.999 0.359831L22.6916 0.205618C22.4355 0.0514044 22.1794 0 21.8721 0ZM38.0585 17.9915L37.4951 18.3L43.7442 25.5994V24.6227L38.0585 17.9915Z" fill="#DC0032"/>
<path fill-rule="evenodd" clip-rule="evenodd" d="M21.872 0C21.6671 0 21.4622 0.0514044 21.2573 0.102809L34.4728 15.5755L35.0875 15.2671L22.0257 0C21.9744 0 21.9232 0 21.872 0ZM37.6487 18.2486L37.0852 18.557L43.7442 26.4218V25.3937L37.6487 18.2486Z" fill="#DC0032"/>
<path fill-rule="evenodd" clip-rule="evenodd" d="M21.4111 0.0513916C21.3086 0.102796 21.1549 0.1542 21.1037 0.205605L20.7964 0.359818L34.0631 15.8325L34.6265 15.5241L21.4111 0.0513916ZM37.1877 18.5056L36.6243 18.8654L43.7442 27.1929V26.2162L37.1877 18.5056Z" fill="#DC0032"/>
<path fill-rule="evenodd" clip-rule="evenodd" d="M20.8989 0.257019L20.3354 0.565446L33.6022 16.0896L34.1656 15.7811L20.8989 0.257019ZM36.7268 18.7626L36.1633 19.1224L43.7443 27.964V26.9873L36.7268 18.7626Z" fill="#DC0032"/>
<path fill-rule="evenodd" clip-rule="evenodd" d="M20.438 0.514038L19.8745 0.822464L33.1412 16.3466L33.7047 16.0381L20.438 0.514038ZM36.2658 19.0196L35.7024 19.3795L43.7444 28.7865V27.8098L36.2658 19.0196Z" fill="#DC0032"/>
<path fill-rule="evenodd" clip-rule="evenodd" d="M19.977 0.771057L19.4136 1.07949L32.6803 16.6036L33.2437 16.2952L19.977 0.771057ZM35.8049 19.2766L35.2414 19.6365L43.7445 29.5575V28.5808L35.8049 19.2766Z" fill="#DC0032"/>
<path fill-rule="evenodd" clip-rule="evenodd" d="M19.5161 1.02808L18.9526 1.3365L32.2194 16.8606L32.7828 16.5522L19.5161 1.02808ZM35.344 19.5337L34.7805 19.8935L43.7445 30.3286V29.3519L35.344 19.5337Z" fill="#DC0032"/>
<path fill-rule="evenodd" clip-rule="evenodd" d="M19.0552 1.2851L18.4917 1.59352L31.7585 17.1176L32.3219 16.8092L19.0552 1.2851ZM34.9343 19.7907L34.3708 20.1505L43.7446 31.1511V30.1744L34.9343 19.7907Z" fill="#DC0032"/>
<path fill-rule="evenodd" clip-rule="evenodd" d="M18.5937 1.49072L18.0303 1.85056L31.3483 17.3747L31.9117 17.0662L18.5937 1.49072ZM34.4728 20.0991L33.9094 20.4076L43.7442 31.9221V30.9455L34.4728 20.0991Z" fill="#DC0032"/>
<path fill-rule="evenodd" clip-rule="evenodd" d="M18.1328 1.74774L17.5693 2.05617L30.8873 17.6317L31.4508 17.3233L18.1328 1.74774ZM34.0119 20.3561L33.4484 20.6646L43.7443 32.7446V31.7165L34.0119 20.3561Z" fill="#DC0032"/>
<path fill-rule="evenodd" clip-rule="evenodd" d="M17.6719 2.00476L17.1084 2.31319L30.4264 17.9401L30.9899 17.5803L17.6719 2.00476ZM33.551 20.6132L32.9875 20.9216L43.7443 33.5156V32.5389L33.551 20.6132Z" fill="#DC0032"/>
<path fill-rule="evenodd" clip-rule="evenodd" d="M17.2109 2.26178L16.6475 2.5702L29.9655 18.1971L30.5289 17.8373L17.2109 2.26178ZM33.09 20.8702L32.5266 21.1786L43.7444 34.2867V33.31L33.09 20.8702Z" fill="#DC0032"/>
<path fill-rule="evenodd" clip-rule="evenodd" d="M16.75 2.5188L16.1865 2.82723L29.5045 18.4542L30.068 18.0943L16.75 2.5188ZM32.6291 21.1272L32.0657 21.4356L43.7445 35.1092V34.0811L32.6291 21.1272Z" fill="#DC0032"/>
<path fill-rule="evenodd" clip-rule="evenodd" d="M16.289 2.77582L15.7256 3.08425L29.0436 18.7112L29.607 18.3513L16.289 2.77582ZM32.2194 21.3842L31.656 21.6927L43.7445 35.8802V34.9035L32.2194 21.3842Z" fill="#DC0032"/>
<path fill-rule="evenodd" clip-rule="evenodd" d="M15.8281 2.98145L15.2134 3.28987L28.6338 18.9682L29.1973 18.6084L15.8281 2.98145ZM31.7584 21.6413L31.195 21.9497L43.7446 36.6513V35.6746L31.7584 21.6413Z" fill="#DC0032"/>
<path fill-rule="evenodd" clip-rule="evenodd" d="M15.3666 3.23847L14.752 3.54689L28.2236 19.2766C28.2749 19.1738 28.3261 19.1224 28.4285 19.071L28.7359 18.8654L15.3666 3.23847ZM31.297 21.8983L30.7336 22.2067L43.6417 37.3196C43.6929 37.1654 43.7441 37.0111 43.7441 36.8569V36.4457L31.297 21.8983Z" fill="#DC0032"/>
<path fill-rule="evenodd" clip-rule="evenodd" d="M14.9057 3.49548L14.291 3.80391L28.07 19.8935V19.6879C28.07 19.5337 28.1725 19.328 28.2749 19.1738L14.9057 3.49548ZM30.8361 22.1553L30.4263 22.4123C30.3751 22.4123 30.3239 22.4637 30.2726 22.4637L43.3857 37.8336C43.5393 37.628 43.6418 37.4224 43.693 37.2168L30.8361 22.1553Z" fill="#DC0032"/>
<path fill-rule="evenodd" clip-rule="evenodd" d="M14.4447 3.7525L13.8301 4.06093L28.07 20.716V19.6879L14.4447 3.7525ZM29.4018 22.2067L43.0271 38.1934C43.1808 38.0906 43.3344 37.885 43.4881 37.7308L30.3751 22.4123C30.1702 22.5151 29.8628 22.5151 29.658 22.4123L29.4018 22.2067Z" fill="#DC0032"/>
<path fill-rule="evenodd" clip-rule="evenodd" d="M13.9838 4.00952L13.3691 4.31794L42.5662 38.4505L42.976 38.2448C43.0272 38.1934 43.0784 38.142 43.1296 38.0906L29.7092 22.4123H29.658L28.4799 21.6926C28.3774 21.6412 28.3262 21.5384 28.2238 21.4356C28.1213 21.2814 28.1213 21.1786 28.0701 21.0758V20.5103L13.9838 4.00952Z" fill="#DC0032"/>
<path fill-rule="evenodd" clip-rule="evenodd" d="M13.5229 4.26654L12.9082 4.57497L42.1052 38.7075L42.6687 38.3991L13.5229 4.26654Z" fill="#DC0032"/>
<path fill-rule="evenodd" clip-rule="evenodd" d="M13.0619 4.47217L12.4473 4.7806L41.6955 38.9645L42.259 38.6561L13.0619 4.47217Z" fill="#DC0032"/>
<path fill-rule="evenodd" clip-rule="evenodd" d="M12.601 4.72919L11.9863 5.03762L41.2346 39.2215L41.798 38.9131L12.601 4.72919Z" fill="#DC0032"/>
<path fill-rule="evenodd" clip-rule="evenodd" d="M12.1401 4.98621L11.5254 5.29463L40.7737 39.4786L41.3372 39.1701L12.1401 4.98621Z" fill="#DC0032"/>
<path fill-rule="evenodd" clip-rule="evenodd" d="M11.6274 5.24323L11.064 5.55165L40.3123 39.787L40.8757 39.4272L11.6274 5.24323Z" fill="#DC0032"/>
<path fill-rule="evenodd" clip-rule="evenodd" d="M11.1665 5.50024L10.603 5.80867L39.8513 40.044L40.4148 39.6842L11.1665 5.50024Z" fill="#DC0032"/>
<path fill-rule="evenodd" clip-rule="evenodd" d="M10.7055 5.75726L10.1421 6.06568L39.4416 40.301L40.0051 39.9412L10.7055 5.75726Z" fill="#DC0032"/>
<path fill-rule="evenodd" clip-rule="evenodd" d="M10.2446 5.96289L9.68115 6.27131L38.9807 40.5581L39.5441 40.1982L10.2446 5.96289Z" fill="#DC0032"/>
<path fill-rule="evenodd" clip-rule="evenodd" d="M9.78367 6.21991L9.22021 6.52834L38.5198 40.8151L39.0832 40.5067L9.78367 6.21991Z" fill="#DC0032"/>
<path fill-rule="evenodd" clip-rule="evenodd" d="M9.32273 6.47693L8.75928 6.78536L22.9993 23.4403L23.4602 23.7488C23.6651 23.8516 23.87 24.1086 23.87 24.3656V24.417L38.0588 41.0721L38.6223 40.7637L9.32273 6.47693Z" fill="#DC0032"/>
<path fill-rule="evenodd" clip-rule="evenodd" d="M8.8618 6.73395L8.29834 7.04236L21.6676 22.7207L23.3579 23.646L8.8618 6.73395ZM23.8189 24.2114C23.8189 24.2628 23.8701 24.3142 23.8701 24.3656V25.2395L37.5979 41.3291L38.1613 41.0207L23.8189 24.2114Z" fill="#DC0032"/>
<path fill-rule="evenodd" clip-rule="evenodd" d="M8.40037 6.99097L7.83691 7.2994L20.3353 21.9497L22.0257 22.875L8.40037 6.99097ZM23.8697 25.0339V26.0106L37.1877 41.5862L37.7511 41.2777L23.8697 25.0339Z" fill="#DC0032"/>
<path fill-rule="evenodd" clip-rule="evenodd" d="M7.93943 7.24799L7.37598 7.55641L19.0548 21.1786L20.694 22.1039L7.93943 7.24799ZM23.8698 25.805V26.8331L36.7267 41.8431L37.2902 41.5348L23.8698 25.805Z" fill="#DC0032"/>
<path fill-rule="evenodd" clip-rule="evenodd" d="M7.4785 7.45361L6.91504 7.76204L17.7231 20.4075L19.3622 21.3842L7.4785 7.45361ZM23.8698 26.6275V27.6041L36.2658 42.1002L36.8293 41.7917L23.8698 26.6275Z" fill="#DC0032"/>
<path fill-rule="evenodd" clip-rule="evenodd" d="M7.01754 7.71063L6.4541 8.01906L16.3913 19.6365L18.0305 20.6132L7.01754 7.71063ZM23.8699 27.3985V28.3752L35.8048 42.3572L36.3683 42.0487L23.8699 27.3985Z" fill="#DC0032"/>
<path fill-rule="evenodd" clip-rule="evenodd" d="M6.55661 7.96765L5.99316 8.27608L15.0596 18.9168L16.6987 19.8421L6.55661 7.96765ZM23.8699 28.1696V29.1977L35.3439 42.6656L35.9074 42.3058L23.8699 28.1696Z" fill="#DC0032"/>
<path fill-rule="evenodd" clip-rule="evenodd" d="M6.09568 8.22467L5.53223 8.5331L13.7279 18.1457L15.367 19.071L6.09568 8.22467ZM23.87 28.9921V29.9687L34.9342 42.9226L35.4976 42.5628L23.87 28.9921Z" fill="#DC0032"/>
<path fill-rule="evenodd" clip-rule="evenodd" d="M5.63474 8.48169L5.07129 8.79012L12.3962 17.3746L14.0865 18.2999L5.63474 8.48169ZM23.8701 29.7631V30.7398L34.4732 43.1796L35.0367 42.8198L23.8701 29.7631Z" fill="#DC0032"/>
<path fill-rule="evenodd" clip-rule="evenodd" d="M5.17331 8.73877L4.60986 9.0472L11.064 16.6036L12.7543 17.5803L5.17331 8.73877ZM18.5937 25.3938L19.9255 26.9359V26.3705C19.9255 26.2677 19.8231 26.1134 19.7206 26.062L18.5937 25.3938ZM23.8697 30.5343V31.5623L34.0118 43.4367L34.5753 43.0769L23.8697 30.5343Z" fill="#DB0032"/>
<path fill-rule="evenodd" clip-rule="evenodd" d="M4.71238 8.94434L4.14893 9.25276L9.73223 15.8325L11.4226 16.8092L4.71238 8.94434ZM17.262 24.6227L19.9256 27.7069V26.7302L18.9524 25.5993L17.262 24.6227ZM23.8697 31.3567V32.3334L33.5509 43.6937L34.1143 43.3853L23.8697 31.3567Z" fill="#DC0032"/>
<path fill-rule="evenodd" clip-rule="evenodd" d="M4.25144 9.20135L3.68799 9.50978L8.45172 15.1128L10.0909 16.0381L4.25144 9.20135ZM15.9303 23.903L19.9257 28.5294V27.5527L17.6206 24.8283L15.9303 23.903ZM23.8698 32.1277V33.1044L33.0899 43.9507L33.6534 43.6423L23.8698 32.1277Z" fill="#DC0032"/>
<path fill-rule="evenodd" clip-rule="evenodd" d="M3.7905 9.45844L3.22705 9.76686L7.11998 14.3418L8.75912 15.2671L3.7905 9.45844ZM14.6497 23.132L19.9257 29.3005V28.3238L16.2889 24.0573L14.6497 23.132ZM23.8699 32.9502V33.9269L32.6802 44.2078L33.2437 43.8994L23.8699 32.9502Z" fill="#DC0032"/>
<path fill-rule="evenodd" clip-rule="evenodd" d="M3.32956 9.71545L2.76611 10.0239L5.78827 13.5708L7.42739 14.496L3.32956 9.71545ZM13.3181 22.361L19.9258 30.0716V29.0949L14.9572 23.3376L13.3181 22.361ZM23.8699 33.7213V34.698L32.2193 44.4648L32.7827 44.1564L23.8699 33.7213Z" fill="#DC0032"/>
<path fill-rule="evenodd" clip-rule="evenodd" d="M2.86863 9.97247L2.30518 10.2809L4.45654 12.7997L6.09567 13.7764L2.86863 9.97247ZM11.9863 21.5899L19.9259 30.8941V29.9174L13.6255 22.5666L11.9863 21.5899ZM23.87 34.4923V35.469L31.7584 44.7218L32.3218 44.4134L23.87 34.4923Z" fill="#DC0032"/>
<path fill-rule="evenodd" clip-rule="evenodd" d="M2.40769 10.2295L1.84424 10.5379L3.12481 12.0287L4.81517 13.0053L2.40769 10.2295ZM10.6546 20.8702L19.926 31.6651V30.6884L12.2937 21.7955L10.6546 20.8702ZM23.8701 35.3148V36.2915L31.2975 44.9788L31.8609 44.6704L23.8701 35.3148Z" fill="#DC0032"/>
<path fill-rule="evenodd" clip-rule="evenodd" d="M1.9467 10.4351L1.33203 10.7435L1.79303 11.309L3.48339 12.2343L1.9467 10.4351ZM9.32281 20.0991L19.926 32.4876V31.4595L11.0132 21.0244L9.32281 20.0991ZM23.8701 36.0859V37.0626L30.8365 45.2873L31.3999 44.9274L23.8701 36.0859Z" fill="#DC0032"/>
<path fill-rule="evenodd" clip-rule="evenodd" d="M1.48551 10.6921L1.12695 10.8978L2.15141 11.4632L1.48551 10.6921ZM7.99082 19.3281L19.9258 33.2586V32.282L9.68119 20.3048L7.99082 19.3281ZM23.8699 36.857V37.8851L30.4265 45.5443L30.99 45.1845L23.8699 36.857Z" fill="#DC0032"/>
<path fill-rule="evenodd" clip-rule="evenodd" d="M6.70996 18.557L19.9255 34.0297V33.053L8.34909 19.5337L6.70996 18.557ZM23.8696 37.6794V38.6561L29.9652 45.8013L30.5287 45.4415L23.8696 37.6794Z" fill="#DC0032"/>
<path fill-rule="evenodd" clip-rule="evenodd" d="M5.37842 17.8373L19.9257 34.8522V33.8241L7.01754 18.7626L5.37842 17.8373ZM23.8699 38.4505V39.4272L29.5044 46.0584L30.0679 45.6985L23.8699 38.4505Z" fill="#DC0032"/>
<path fill-rule="evenodd" clip-rule="evenodd" d="M4.04639 17.0662L19.9255 35.6232V34.6465L5.68552 17.9915L4.04639 17.0662ZM23.8696 39.2215V40.2496L29.0432 46.3153L29.6067 46.0069L23.8696 39.2215Z" fill="#DC0032"/>
<path fill-rule="evenodd" clip-rule="evenodd" d="M2.71484 16.2952L19.9258 36.3943V35.4176L4.35398 17.2719L2.71484 16.2952ZM23.8699 40.044V41.0207L28.5824 46.5724L29.1459 46.2639L23.8699 40.044Z" fill="#DB0032"/>
<path fill-rule="evenodd" clip-rule="evenodd" d="M1.38281 15.5241L19.9255 37.2168V36.2401L3.02195 16.5008L1.38281 15.5241ZM23.8697 40.8151V41.7917L28.1724 46.8294L28.7359 46.521L23.8697 40.8151Z" fill="#DA0032"/>
<path fill-rule="evenodd" clip-rule="evenodd" d="M0.0512695 14.8044L19.9258 37.9879V37.0112L1.74163 15.7297L0.0512695 14.8044ZM23.8699 41.5862V42.6142L27.7117 47.0864L28.2751 46.778L23.8699 41.5862Z" fill="#D90032"/>
<path fill-rule="evenodd" clip-rule="evenodd" d="M0 14.7531V15.4727L19.9257 38.7589V37.7823L0.409784 14.9587L0 14.7531ZM23.8699 42.4086V43.0255C23.8699 43.1283 23.8186 43.2311 23.7674 43.2825L27.2506 47.3435L27.8141 47.035L23.8699 42.4086Z" fill="#D80032"/>
<path fill-rule="evenodd" clip-rule="evenodd" d="M0 15.2671V16.2952L19.9257 39.5814V38.6047L0 15.2671ZM23.8186 43.1797C23.7674 43.3853 23.6138 43.5909 23.4601 43.6423L23.4089 43.6937L26.7896 47.6005L27.3531 47.2921L23.8186 43.1797Z" fill="#D70032"/>
<path fill-rule="evenodd" clip-rule="evenodd" d="M0 16.0895V17.0662L19.9257 40.3524V39.3758L0 16.0895ZM23.5113 43.5909C23.5113 43.6423 23.5113 43.6423 23.4601 43.6423L22.9479 43.9507L26.3286 47.8575L26.892 47.5491L23.5113 43.5909Z" fill="#D60032"/>
<path fill-rule="evenodd" clip-rule="evenodd" d="M0 16.8606V17.8373L19.9257 41.1235V40.1468L0 16.8606ZM23.1015 43.8479L22.4869 44.2077L25.9188 48.1659L26.4823 47.8061L23.1015 43.8479Z" fill="#D50032"/>
<path fill-rule="evenodd" clip-rule="evenodd" d="M0 17.6831V18.6598L19.9257 41.9459V40.9693L0 17.6831ZM22.6406 44.1049L22.282 44.3106C22.1796 44.362 22.0771 44.362 21.9747 44.362L25.4578 48.423L26.0212 48.0631L22.6406 44.1049Z" fill="#D40032"/>
<path fill-rule="evenodd" clip-rule="evenodd" d="M0 18.4542V19.4309L19.9257 42.717V41.7403L0 18.4542ZM21.0527 44.1049L24.9968 48.68L25.5602 48.3201L22.1283 44.362C22.0771 44.362 21.9747 44.4134 21.9235 44.4134H21.8722C21.7186 44.4134 21.6161 44.362 21.5137 44.3106L21.0527 44.1049Z" fill="#D30032"/>
<path fill-rule="evenodd" clip-rule="evenodd" d="M0 19.2252V20.2533L24.5358 48.937L25.0992 48.5771L21.4112 44.2591L20.2843 43.6423C20.0794 43.5395 19.9257 43.2824 19.9257 43.0254V42.5114L0 19.2252Z" fill="#D20032"/>
<path fill-rule="evenodd" clip-rule="evenodd" d="M0 20.0477V21.0244L24.0748 49.194L24.6382 48.8856L0 20.0477Z" fill="#D10032"/>
<path fill-rule="evenodd" clip-rule="evenodd" d="M0 20.8188V21.7955L23.6138 49.451L24.1772 49.1426L0 20.8188Z" fill="#D00032"/>
<path fill-rule="evenodd" clip-rule="evenodd" d="M0 21.5898V22.6179L23.204 49.708L23.7674 49.3996L0 21.5898Z" fill="#CF0032"/>
<path fill-rule="evenodd" clip-rule="evenodd" d="M0 22.4124V23.389L22.743 49.9651L23.3064 49.6567L0 22.4124Z" fill="#CE0032"/>
<path fill-rule="evenodd" clip-rule="evenodd" d="M0 23.1833V24.16L22.2308 50.1707C22.3845 50.1193 22.5381 50.0679 22.6918 50.0165L22.8455 49.9137L0 23.1833Z" fill="#CD0032"/>
<path fill-rule="evenodd" clip-rule="evenodd" d="M0 23.9544V24.9825L21.5649 50.1707C21.6673 50.1707 21.7698 50.1707 21.8722 50.1707C22.0259 50.1707 22.1796 50.1707 22.3332 50.1193L0 23.9544Z" fill="#CC0032"/>
<path fill-rule="evenodd" clip-rule="evenodd" d="M0 24.7769V25.7536L20.3868 49.6053L21.1039 50.0165C21.2575 50.1193 21.5137 50.1707 21.7186 50.1707L0 24.7769Z" fill="#CB0032"/>
<path fill-rule="evenodd" clip-rule="evenodd" d="M0 25.548V26.5247L19.0549 48.8342L20.7453 49.8109L0 25.548Z" fill="#CA0032"/>
<path fill-rule="evenodd" clip-rule="evenodd" d="M0 26.3704V27.3471L17.7231 48.0631L19.4135 49.0398L0 26.3704Z" fill="#C90032"/>
<path fill-rule="evenodd" clip-rule="evenodd" d="M0 27.1415V28.1182L16.3913 47.292L18.0305 48.2687L0 27.1415Z" fill="#C80033"/>
<path fill-rule="evenodd" clip-rule="evenodd" d="M0 27.9126V28.8893L15.0595 46.521L16.6987 47.4977L0 27.9126Z" fill="#C70033"/>
<path fill-rule="evenodd" clip-rule="evenodd" d="M0 28.735V29.7117L13.6766 45.6985L15.3669 46.6752L0 28.735Z" fill="#C60033"/>
<path fill-rule="evenodd" clip-rule="evenodd" d="M0 29.5061V30.4828L12.3448 44.9274L14.0351 45.9041L0 29.5061Z" fill="#C50033"/>
<path fill-rule="evenodd" clip-rule="evenodd" d="M0 30.2772V31.2539L11.0129 44.1564L12.7033 45.1331L0 30.2772Z" fill="#C40033"/>
<path fill-rule="evenodd" clip-rule="evenodd" d="M0 31.0997V32.0764L9.68114 43.3853L11.3715 44.362L0 31.0997Z" fill="#C30033"/>
<path fill-rule="evenodd" clip-rule="evenodd" d="M0 31.8707V32.8473L8.34933 42.6142L10.0397 43.5909L0 31.8707Z" fill="#C20033"/>
<path fill-rule="evenodd" clip-rule="evenodd" d="M0 32.6417V33.6698L7.01753 41.8431L8.65668 42.8198L0 32.6417Z" fill="#C10033"/>
<path fill-rule="evenodd" clip-rule="evenodd" d="M0 33.4642V34.4409L5.63452 41.0721L7.32487 42.0488L0 33.4642Z" fill="#C00033"/>
<path fill-rule="evenodd" clip-rule="evenodd" d="M0 34.2353V35.212L4.30273 40.3011L5.99309 41.2263L0 34.2353Z" fill="#BF0033"/>
<path fill-rule="evenodd" clip-rule="evenodd" d="M0 35.0063V36.0344L2.97093 39.4786L4.66129 40.4553L0 35.0063Z" fill="#BE0033"/>
<path fill-rule="evenodd" clip-rule="evenodd" d="M0 35.8289V36.8055L1.63913 38.7075L3.32949 39.6842L0 35.8289Z" fill="#BD0033"/>
<path fill-rule="evenodd" clip-rule="evenodd" d="M0 36.5999V36.8569C0 37.371 0.358561 37.9878 0.768343 38.2449L1.9977 38.9131L0 36.5999Z" fill="#BC0033"/>
<path fill-rule="evenodd" clip-rule="evenodd" d="M0.307129 37.7822C0.409575 37.885 0.460797 37.9879 0.563244 38.0392L0.307129 37.7822Z" fill="#BB0033"/>
</g>
<defs>
<clipPath id="clip0_100_54">
<rect width="121" height="51" fill="white"/>
</clipPath>
</defs>
</svg>
