<svg width="539" height="337" viewBox="0 0 539 337" fill="none" xmlns="http://www.w3.org/2000/svg">
<path d="M324.711 480.836C297.533 480.836 238.89 471.83 235.87 471.406L200.217 467.327C196.456 466.957 108.092 457.526 100.675 451.7C99.2977 450.64 95.6954 447.832 93.4704 348.925C92.3579 300.295 92.146 251.715 92.146 251.239C91.6692 237.411 94.7949 226.021 101.311 217.492C106.502 210.659 113.76 205.625 123.455 202.076C123.587 202.026 123.728 202.003 123.869 202.006C124.01 202.012 124.149 202.044 124.277 202.103C124.406 202.163 124.521 202.247 124.616 202.351C124.712 202.455 124.785 202.579 124.832 202.712C124.92 202.98 124.903 203.269 124.786 203.526C124.667 203.781 124.457 203.983 124.196 204.089C103.271 211.717 93.4704 227.134 94.265 251.185C94.265 251.715 94.4769 299.977 95.5365 348.449C97.5495 436.549 100.728 448.838 101.946 450.058C107.774 454.56 175.001 462.507 200.429 465.209L236.136 469.287C260.61 473.048 303.838 478.77 324.923 478.77C330.38 478.77 334.406 478.4 336.207 477.498C341.875 474.692 349.027 462.877 355.914 445.129C357.51 440.992 358.456 436.631 358.722 432.204L371.33 221.784C371.536 218.618 370.501 215.497 368.444 213.085C366.387 210.67 363.469 209.153 360.311 208.857L348.922 207.745C338.485 206.685 325.558 205.361 310.83 204.143C310.692 204.128 310.557 204.087 310.433 204.02C310.311 203.956 310.202 203.866 310.114 203.756C310.024 203.648 309.957 203.524 309.918 203.39C309.876 203.257 309.864 203.117 309.878 202.976C309.891 202.838 309.932 202.703 309.999 202.579C310.065 202.455 310.155 202.348 310.263 202.258C310.37 202.17 310.496 202.103 310.629 202.064C310.764 202.022 310.904 202.01 311.042 202.022C325.718 203.294 338.697 204.567 349.134 205.625L360.47 206.739C364.186 207.062 367.627 208.832 370.052 211.663C372.479 214.497 373.699 218.167 373.45 221.89L360.841 432.31C360.56 436.956 359.558 441.533 357.874 445.871C353.742 456.572 345.531 475.22 337.107 479.406C335.094 480.412 330.644 480.836 324.711 480.836Z" fill="black"/>
<path d="M329.108 187.879L329.426 208.645C329.478 211.25 330.482 213.744 332.249 215.657C334.017 217.571 336.422 218.769 339.015 219.028L383.355 220.194C392.944 221.094 396.918 211.347 388.759 206.209C387.616 205.53 386.359 205.062 385.051 204.831C374.88 203.082 370.164 198.474 369.635 185.125C369.621 184.519 369.488 183.923 369.244 183.368C368.999 182.814 368.647 182.313 368.211 181.896C367.772 181.478 367.257 181.151 366.693 180.931C366.127 180.712 365.525 180.606 364.919 180.621L335.889 180.886C334.985 180.899 334.092 181.091 333.262 181.451C332.432 181.81 331.679 182.329 331.05 182.978C330.42 183.626 329.924 184.394 329.591 185.234C329.259 186.075 329.094 186.974 329.108 187.879Z" fill="black"/>
<path d="M329.108 187.879L329.426 208.645C329.478 211.25 330.482 213.744 332.249 215.657C334.017 217.571 336.422 218.769 339.015 219.028L383.355 220.194C392.944 221.094 396.918 211.347 388.759 206.209C387.616 205.53 386.359 205.062 385.051 204.831C374.88 203.082 370.164 198.474 369.635 185.125C369.621 184.519 369.488 183.923 369.244 183.368C368.999 182.814 368.647 182.313 368.211 181.896C367.772 181.478 367.257 181.151 366.693 180.931C366.127 180.712 365.525 180.606 364.919 180.621L335.889 180.886C334.985 180.899 334.092 181.091 333.262 181.451C332.432 181.81 331.679 182.329 331.05 182.978C330.42 183.626 329.924 184.394 329.591 185.234C329.259 186.075 329.094 186.974 329.108 187.879Z" fill="black"/>
<path d="M330.538 213.573C332.074 217.334 334.988 220.088 338.643 220.512H338.749L383.143 221.942H383.249C388.493 222.526 392.043 219.24 392.837 215.109L392.519 214.791C392.519 214.791 353.158 216.858 331.598 212.301C331.433 212.272 331.262 212.287 331.104 212.344C330.946 212.402 330.808 212.501 330.7 212.63C330.592 212.759 330.52 212.914 330.491 213.079C330.464 213.244 330.479 213.415 330.538 213.573Z" fill="#3474C9"/>
<path d="M342.881 204.567C345.632 204.567 347.862 202.337 347.862 199.586C347.862 196.835 345.632 194.606 342.881 194.606C340.133 194.606 337.903 196.835 337.903 199.586C337.903 202.337 340.133 204.567 342.881 204.567Z" fill="#3474C9"/>
<path d="M371.7 207.639H371.384C371.247 207.603 371.12 207.54 371.01 207.452C370.9 207.364 370.809 207.254 370.744 207.129C370.679 207.005 370.642 206.868 370.633 206.728C370.624 206.586 370.645 206.446 370.694 206.315C371.312 204.302 372.564 202.543 374.264 201.302C375.963 200.061 378.019 199.403 380.124 199.428C380.261 199.428 380.396 199.455 380.521 199.509C380.647 199.563 380.76 199.642 380.856 199.741C380.949 199.84 381.023 199.958 381.069 200.086C381.116 200.213 381.138 200.35 381.131 200.486C381.131 200.768 381.019 201.038 380.82 201.236C380.622 201.435 380.353 201.546 380.071 201.546C379.806 201.546 374.456 201.494 372.708 206.951C372.631 207.154 372.494 207.33 372.313 207.454C372.133 207.578 371.919 207.642 371.7 207.639Z" fill="white"/>
<path d="M378.322 211.135H378.058C377.922 211.099 377.792 211.035 377.681 210.948C377.57 210.862 377.476 210.752 377.408 210.63C377.338 210.506 377.295 210.37 377.278 210.23C377.264 210.089 377.277 209.946 377.316 209.811C378.852 204.195 384.575 202.552 387.329 202.446C387.469 202.432 387.611 202.446 387.746 202.491C387.881 202.535 388.005 202.606 388.111 202.702C388.215 202.797 388.299 202.914 388.355 203.043C388.412 203.172 388.441 203.312 388.441 203.454C388.448 203.593 388.429 203.733 388.382 203.864C388.335 203.995 388.261 204.116 388.168 204.22C388.075 204.322 387.961 204.407 387.836 204.466C387.71 204.525 387.573 204.559 387.435 204.567C387.117 204.567 380.866 204.885 379.328 210.393C379.278 210.618 379.149 210.815 378.964 210.952C378.779 211.088 378.552 211.153 378.322 211.135Z" fill="white"/>
<path d="M387.117 155.14L404.864 165.893C407.085 167.248 409.728 167.738 412.288 167.27C414.849 166.801 417.146 165.405 418.744 163.351L443.324 126.374C449.204 118.745 443.06 110.216 434.371 114.401C433.182 114.981 432.12 115.791 431.245 116.785C424.358 124.466 417.95 126.003 406.347 119.328C405.281 118.721 404.022 118.554 402.836 118.861C401.648 119.167 400.628 119.924 399.99 120.97L384.839 145.657C384.357 146.427 384.034 147.285 383.888 148.181C383.743 149.077 383.777 149.993 383.989 150.876C384.201 151.759 384.585 152.591 385.123 153.323C385.66 154.055 386.339 154.672 387.117 155.14Z" fill="black"/>
<path d="M387.117 155.14L404.864 165.893C407.085 167.248 409.728 167.738 412.288 167.27C414.849 166.801 417.146 165.405 418.744 163.351L443.324 126.374C449.204 118.745 443.06 110.216 434.371 114.401C433.182 114.981 432.12 115.791 431.245 116.785C424.358 124.466 417.95 126.003 406.347 119.328C405.281 118.721 404.022 118.554 402.836 118.861C401.648 119.167 400.628 119.924 399.99 120.97L384.839 145.657C384.357 146.427 384.034 147.285 383.888 148.181C383.743 149.077 383.777 149.993 383.989 150.876C384.201 151.759 384.585 152.591 385.123 153.323C385.66 154.055 386.339 154.672 387.117 155.14Z" fill="black"/>
<path d="M409.631 167.589C413.657 168.277 417.472 167.323 419.804 164.411H419.91L444.702 127.539H444.754C448.038 123.407 447.138 118.639 444.066 115.779L443.642 115.884C443.642 115.884 424.412 150.319 409.101 166.159C409.009 166.28 408.948 166.421 408.925 166.572C408.903 166.723 408.918 166.878 408.972 167.02C409.024 167.164 409.112 167.291 409.229 167.39C409.344 167.489 409.482 167.557 409.631 167.589Z" fill="#3474C9"/>
<path d="M404.334 154.716C407.083 154.716 409.313 152.486 409.313 149.736C409.313 146.986 407.083 144.756 404.334 144.756C401.584 144.756 399.354 146.986 399.354 149.736C399.354 152.486 401.584 154.716 404.334 154.716Z" fill="#3474C9"/>
<path d="M425.576 130.082C425.425 130.084 425.274 130.052 425.138 129.988C425 129.923 424.879 129.829 424.782 129.711C423.417 128.111 422.603 126.114 422.459 124.015C422.315 121.916 422.853 119.827 423.988 118.056C424.062 117.943 424.159 117.845 424.272 117.77C424.385 117.695 424.513 117.643 424.646 117.618C424.78 117.594 424.917 117.596 425.05 117.626C425.183 117.656 425.309 117.712 425.418 117.792C425.539 117.867 425.641 117.965 425.722 118.081C425.803 118.197 425.86 118.328 425.889 118.466C425.919 118.604 425.921 118.747 425.894 118.886C425.869 119.025 425.814 119.157 425.736 119.275C424.856 120.656 424.448 122.286 424.572 123.919C424.696 125.552 425.346 127.101 426.424 128.334C426.602 128.561 426.685 128.847 426.656 129.134C426.626 129.421 426.485 129.685 426.266 129.87C426.072 130.028 425.826 130.104 425.576 130.082Z" fill="white"/>
<path d="M432.093 126.374C431.942 126.376 431.791 126.344 431.653 126.279C431.516 126.215 431.394 126.12 431.299 126.003C427.379 121.712 429.021 115.99 430.451 113.606C430.586 113.361 430.812 113.179 431.08 113.1C431.347 113.021 431.635 113.05 431.881 113.183C432.122 113.336 432.292 113.575 432.362 113.85C432.431 114.126 432.391 114.418 432.253 114.666C432.093 114.878 429.021 120.387 432.889 124.572C433.067 124.791 433.16 125.068 433.151 125.351C433.14 125.633 433.029 125.903 432.835 126.109C432.623 126.273 432.362 126.366 432.093 126.374Z" fill="white"/>
<path d="M179.186 145.657C179.036 145.678 178.884 145.64 178.762 145.551C178.632 145.494 178.514 145.411 178.416 145.308C178.319 145.204 178.243 145.082 178.193 144.948C178.144 144.815 178.122 144.673 178.128 144.531C178.135 144.388 178.171 144.249 178.232 144.121C179.133 142.319 178.179 138.399 177.12 134.85C176.874 134.139 176.573 133.448 176.219 132.784L167.584 116.997C165.359 117.262 161.227 117.421 158.949 115.408C158.431 114.962 158.015 114.409 157.731 113.787C157.448 113.165 157.303 112.489 157.307 111.805C157.307 109.845 157.89 108.415 159.161 107.62C161.598 106.031 165.412 107.673 165.836 107.885C165.986 107.922 166.126 107.992 166.246 108.089C166.367 108.187 166.464 108.309 166.532 108.448C166.6 108.587 166.636 108.74 166.639 108.894C166.642 109.049 166.611 109.202 166.548 109.344C166.485 109.485 166.392 109.611 166.275 109.712C166.159 109.814 166.021 109.889 165.873 109.931C165.724 109.974 165.568 109.984 165.415 109.96C165.262 109.936 165.117 109.879 164.988 109.792C164.141 109.421 161.545 108.574 160.273 109.368C159.002 110.163 159.426 110.587 159.426 111.752C159.418 112.141 159.495 112.527 159.65 112.884C159.806 113.24 160.036 113.559 160.326 113.818C162.128 115.408 166.154 115.037 167.319 114.878C167.751 114.824 168.189 114.902 168.576 115.1C168.963 115.299 169.282 115.609 169.491 115.99L178.073 131.777C178.503 132.573 178.857 133.406 179.133 134.267C180.563 139.035 181.305 142.69 180.139 145.074C180.057 145.255 179.92 145.406 179.751 145.51C179.581 145.614 179.385 145.665 179.186 145.657Z" fill="black"/>
<path d="M174.614 100.509C175.186 100.155 175.2 99.1414 174.645 98.2461C174.09 97.351 173.176 96.9128 172.604 97.2674C172.032 97.6219 172.018 98.6351 172.573 99.5303C173.129 100.425 174.042 100.864 174.614 100.509Z" fill="black"/>
<path d="M181.411 88.9196C181.129 88.9318 180.851 88.8499 180.621 88.6869C180.391 88.524 180.222 88.289 180.139 88.0191C180.082 87.8522 180.058 87.6754 180.069 87.4992C180.08 87.3231 180.126 87.1508 180.206 86.9929C180.285 86.8349 180.394 86.6944 180.529 86.5794C180.664 86.4646 180.818 86.3777 180.987 86.3238L187.08 84.2578C187.416 84.1453 187.784 84.1716 188.102 84.3306C188.42 84.4894 188.662 84.7682 188.774 85.1055C188.887 85.4425 188.86 85.8107 188.702 86.1285C188.542 86.4465 188.264 86.6881 187.926 86.8006L181.835 88.8666L181.411 88.9196Z" fill="black"/>
<path d="M165.995 97.8726C165.699 97.8711 165.415 97.7576 165.2 97.5546C165.059 97.4509 164.94 97.3192 164.852 97.1677C164.765 97.0161 164.709 96.8479 164.689 96.6738C164.669 96.4997 164.685 96.3235 164.737 96.1559C164.788 95.9884 164.874 95.8334 164.988 95.7004L168.961 90.6148C169.069 90.4757 169.203 90.3591 169.356 90.2718C169.509 90.1845 169.678 90.1282 169.852 90.1061C170.027 90.084 170.204 90.0964 170.374 90.1428C170.544 90.1891 170.703 90.2685 170.842 90.3763C170.981 90.4841 171.098 90.6184 171.185 90.7713C171.272 90.9242 171.328 91.0927 171.351 91.2673C171.373 91.4419 171.36 91.6193 171.314 91.7891C171.268 91.9588 171.188 92.1179 171.08 92.2571L167.054 97.3427C166.928 97.5043 166.768 97.6356 166.584 97.7274C166.401 97.819 166.2 97.8686 165.995 97.8726Z" fill="black"/>
<path d="M185.808 103.647C185.634 103.66 185.459 103.628 185.301 103.554C185.143 103.48 185.008 103.366 184.908 103.223C184.757 102.988 184.701 102.705 184.75 102.43C184.8 102.155 184.951 101.909 185.172 101.74C185.65 101.369 185.808 101.157 185.808 101.051C185.808 100.945 184.484 99.9916 183.054 99.6737C182.789 99.5992 182.563 99.4251 182.425 99.1879C182.286 98.9506 182.247 98.669 182.312 98.4022C182.335 98.263 182.389 98.1302 182.468 98.0129C182.547 97.8954 182.649 97.796 182.77 97.7209C182.89 97.646 183.025 97.5972 183.165 97.5776C183.305 97.5582 183.447 97.5684 183.584 97.6077C184.484 97.8196 187.504 98.7202 187.874 100.68C188.032 101.369 187.874 102.429 186.39 103.488C186.216 103.596 186.013 103.652 185.808 103.647Z" fill="black"/>
<path d="M205.991 132.201L205.621 132.095C200.483 130.135 194.072 120.864 193.806 120.44C193.693 120.21 193.668 119.946 193.735 119.697C193.801 119.449 193.956 119.233 194.169 119.09C194.383 118.948 194.642 118.888 194.897 118.922C195.152 118.956 195.386 119.081 195.555 119.275C195.609 119.328 201.859 128.387 206.363 130.135C206.496 130.182 206.618 130.255 206.723 130.351C206.827 130.446 206.911 130.561 206.971 130.69C207.03 130.818 207.062 130.957 207.068 131.098C207.073 131.239 207.048 131.38 206.998 131.512C206.915 131.713 206.777 131.885 206.597 132.007C206.419 132.129 206.209 132.197 205.991 132.201Z" fill="black"/>
<path d="M182.576 122.242C182.304 122.242 182.042 122.138 181.846 121.95C181.649 121.763 181.53 121.507 181.517 121.235C181.501 121.094 181.517 120.952 181.56 120.817C181.605 120.683 181.677 120.559 181.771 120.454C181.866 120.349 181.983 120.265 182.112 120.208C182.241 120.151 182.382 120.122 182.524 120.122C191.952 119.699 197.727 117.103 199.687 112.388C204.667 100.521 185.438 78.8543 185.226 78.6423C185.125 78.5444 185.048 78.4269 184.996 78.2972C184.944 78.1674 184.92 78.0286 184.926 77.889C184.931 77.7495 184.963 77.6126 185.024 77.4869C185.086 77.3613 185.172 77.2495 185.278 77.159C185.499 76.9752 185.781 76.8834 186.068 76.9031C186.354 76.9229 186.622 77.0526 186.814 77.265C187.61 78.1655 207.158 100.151 201.647 113.183C199.317 118.745 192.906 121.765 182.576 122.242Z" fill="black"/>
<path d="M174.047 143.803L148.301 161.233C147.969 161.466 147.693 161.772 147.493 162.124C147.293 162.478 147.173 162.871 147.143 163.276C147.113 163.682 147.172 164.088 147.317 164.467C147.463 164.846 147.69 165.189 147.983 165.469C153.069 170.132 163.558 181.31 162.922 193.972C162.913 194.277 162.982 194.579 163.122 194.852C163.262 195.123 163.469 195.355 163.724 195.524C163.978 195.693 164.271 195.795 164.576 195.82C164.881 195.846 165.187 195.792 165.465 195.666C173.411 191.799 195.821 182.211 209.33 189.097C225.963 197.574 275.284 210.553 275.284 210.553C275.284 210.553 264.053 169.39 288.581 143.22C288.76 143.04 288.895 142.82 288.976 142.579C289.055 142.338 289.078 142.081 289.042 141.83C289.007 141.578 288.913 141.338 288.769 141.129C288.624 140.92 288.433 140.747 288.211 140.624L256.796 123.089C256.796 123.089 255.366 103.435 236.93 98.6142C235.976 98.3494 233.38 99.2499 232.638 99.8856L206.098 126.162C205.672 126.658 205.37 127.248 205.214 127.882C205.057 128.517 205.052 129.18 205.197 129.817C206.786 136.757 209.648 158.583 176.696 143.591C176.273 143.4 175.808 143.319 175.344 143.356C174.881 143.393 174.435 143.547 174.047 143.803Z" fill="black"/>
<path d="M285.826 212.831C283.449 212.837 281.078 212.659 278.728 212.301C277.409 212.096 276.18 211.502 275.199 210.596C274.218 209.691 273.528 208.514 273.219 207.215C270.729 196.62 267.285 169.019 288.952 141.366C289.123 141.195 289.265 140.998 289.376 140.783C292.183 135.592 317.559 90.0321 337.903 87.0654C356.284 84.3638 390.189 113.607 400.148 122.612C401.043 123.424 401.699 124.466 402.045 125.624C402.39 126.781 402.412 128.012 402.108 129.181C400.698 135.05 398.2 140.602 394.745 145.551C393.827 146.839 392.485 147.763 390.954 148.16C389.424 148.557 387.803 148.402 386.375 147.723C381.236 145.286 371.277 140.677 362.377 137.181C347.013 131.195 345.531 132.784 345.425 132.89C345.319 132.996 338.643 183.377 311.36 204.09C303.698 209.917 295.185 212.831 285.826 212.831ZM340.445 88.9726C339.699 88.9708 338.957 89.024 338.221 89.1316C318.883 91.9922 293.985 136.704 291.23 141.79C291.054 142.102 290.86 142.403 290.647 142.69C269.511 169.602 272.847 196.408 275.283 206.739C275.49 207.624 275.959 208.429 276.631 209.044C277.301 209.658 278.144 210.055 279.046 210.181C290.541 211.929 300.977 209.335 310.09 202.394C336.63 182.211 343.305 133.102 343.359 132.625C343.386 132.278 343.503 131.945 343.699 131.657C343.893 131.369 344.159 131.137 344.471 130.983C345.901 130.188 349.504 129.817 364.125 135.592C372.814 139.035 382.348 143.485 387.275 145.816C388.252 146.278 389.359 146.383 390.405 146.112C391.45 145.841 392.368 145.211 392.997 144.333C396.314 139.59 398.721 134.273 400.096 128.652C400.283 127.854 400.252 127.022 400.01 126.24C399.769 125.458 399.322 124.754 398.718 124.202C379.594 106.826 354.748 88.9726 340.445 88.9726Z" fill="black"/>
<path d="M345.848 209.705C342.321 209.748 338.823 209.064 335.571 207.693L335.041 207.427L333.452 169.708C333.451 169.431 333.553 169.163 333.74 168.957C333.925 168.75 334.182 168.622 334.459 168.595C334.597 168.588 334.737 168.608 334.868 168.657C334.999 168.703 335.12 168.775 335.224 168.869C335.326 168.962 335.411 169.075 335.47 169.201C335.529 169.327 335.564 169.463 335.571 169.602L337.055 205.997C339.651 207.057 350.086 210.393 360.999 202.5L365.449 138.876C365.428 138.72 365.442 138.56 365.491 138.41C365.539 138.26 365.62 138.122 365.73 138.007C365.837 137.892 365.97 137.803 366.118 137.746C366.265 137.689 366.423 137.666 366.581 137.678C366.737 137.69 366.892 137.738 367.029 137.816C367.165 137.895 367.282 138.003 367.372 138.134C367.462 138.264 367.521 138.412 367.546 138.568C367.571 138.724 367.56 138.884 367.515 139.035L363.065 203.612L362.641 203.931C356.602 208.433 350.616 209.705 345.848 209.705Z" fill="black"/>
<path d="M135.798 208.169C130.183 208.169 125.097 206.049 120.647 201.812C102.847 184.859 132.567 122.03 133.838 119.381C133.895 119.257 133.976 119.146 134.077 119.054C134.178 118.962 134.296 118.892 134.425 118.847C134.554 118.803 134.69 118.785 134.826 118.795C134.962 118.804 135.095 118.842 135.216 118.904C135.344 118.956 135.461 119.033 135.558 119.132C135.655 119.23 135.731 119.348 135.781 119.477C135.831 119.606 135.853 119.745 135.847 119.883C135.841 120.022 135.807 120.157 135.745 120.282C135.428 120.917 105.443 184.383 122.131 200.276C126.369 204.355 131.296 206.261 136.699 206.049C150.579 205.415 163.558 190.739 163.664 190.633C163.856 190.461 164.105 190.364 164.363 190.36C164.622 190.359 164.872 190.45 165.067 190.619C165.263 190.79 165.39 191.023 165.424 191.28C165.458 191.537 165.397 191.796 165.253 192.011C164.723 192.647 151.585 207.481 136.805 208.169H135.798Z" fill="black"/>
<path d="M138.023 170.98C137.751 170.98 137.49 170.875 137.292 170.689C137.095 170.5 136.977 170.245 136.964 169.974C136.964 169.708 136.169 142.319 151.797 122.135C152.225 121.594 152.724 121.113 153.28 120.705C157.36 118.003 158.684 115.99 158.525 115.407C158.479 115.134 158.541 114.853 158.7 114.625C158.858 114.397 159.1 114.241 159.373 114.189C159.505 114.149 159.645 114.139 159.782 114.159C159.919 114.179 160.05 114.229 160.166 114.304C160.282 114.38 160.38 114.48 160.453 114.597C160.527 114.715 160.574 114.846 160.591 114.984C161.015 116.944 158.949 119.434 154.446 122.506C154.074 122.763 153.736 123.065 153.439 123.407C138.288 143.008 139.083 169.655 139.083 169.92C139.09 170.056 139.069 170.193 139.022 170.322C138.975 170.45 138.902 170.566 138.807 170.665C138.713 170.766 138.6 170.845 138.474 170.899C138.348 170.953 138.213 170.98 138.076 170.98H138.023Z" fill="black"/>
<path d="M134.792 120.917C134.528 120.919 134.274 120.822 134.078 120.645C133.882 120.469 133.758 120.226 133.732 119.964C133.679 119.487 132.249 107.514 137.123 99.3559C137.188 99.2337 137.278 99.1263 137.388 99.0406C137.497 98.9549 137.622 98.8927 137.757 98.8579C137.891 98.823 138.031 98.8164 138.168 98.8383C138.305 98.8602 138.436 98.9102 138.553 98.9851C138.675 99.0508 138.782 99.141 138.868 99.2501C138.954 99.3593 139.016 99.4849 139.051 99.6193C139.086 99.7535 139.093 99.8937 139.071 100.031C139.049 100.168 138.999 100.299 138.924 100.415C134.474 107.991 135.798 119.593 135.851 119.699C135.866 119.838 135.853 119.979 135.813 120.113C135.773 120.247 135.706 120.372 135.617 120.48C135.529 120.589 135.419 120.678 135.296 120.744C135.172 120.81 135.037 120.851 134.898 120.864L134.792 120.917Z" fill="black"/>
<path d="M236.24 100.627C236.102 100.641 235.962 100.628 235.827 100.587C235.694 100.547 235.568 100.48 235.46 100.392C235.352 100.303 235.263 100.194 235.196 100.071C235.13 99.9479 235.09 99.8128 235.076 99.6737C235.061 99.5347 235.076 99.394 235.115 99.2601C235.157 99.1263 235.223 99.0018 235.311 98.8934C235.399 98.7853 235.509 98.6956 235.631 98.6295C235.755 98.5634 235.89 98.5222 236.03 98.5082C240.958 97.2134 245.421 94.5502 248.903 90.8268C256.742 82.6155 259.392 69.7423 256.584 53.5846L256.426 52.9489C256.318 52.5525 256.117 52.1873 255.84 51.8835C255.565 51.5795 255.22 51.3456 254.835 51.2007C250.173 49.5584 244.505 46.8566 243.763 43.4661C243.551 42.5656 243.605 41.1881 245.035 39.8108C246.465 38.4334 247.895 39.8638 249.325 41.0823C250.757 42.3006 251.815 43.2543 253.033 43.2543H253.087C253.368 43.2543 253.637 43.3658 253.837 43.5645C254.036 43.7633 254.147 44.0328 254.147 44.3138C254.155 44.4503 254.133 44.587 254.086 44.7153C254.038 44.8436 253.966 44.9609 253.871 45.0599C253.777 45.1591 253.664 45.2381 253.538 45.2919C253.413 45.3458 253.278 45.3734 253.139 45.3733H253.033C251.073 45.3733 249.325 43.8899 247.895 42.6714C247.415 42.2264 246.901 41.8191 246.359 41.4531C246.145 41.6412 245.983 41.8818 245.892 42.1511C245.798 42.4204 245.777 42.7093 245.829 42.9894C246.253 44.8436 249.961 47.2274 255.524 49.2406C256.237 49.4934 256.88 49.9141 257.396 50.4675C257.911 51.0207 258.287 51.6902 258.49 52.4191L258.65 53.1607C262.41 74.5632 256.214 86.3238 250.333 92.4161C246.549 96.3779 241.747 99.2192 236.452 100.627H236.24Z" fill="black"/>
<path d="M260.028 112.971C259.811 112.966 259.601 112.899 259.421 112.776C259.243 112.654 259.103 112.482 259.02 112.282C258.945 112.014 258.968 111.728 259.083 111.476C259.2 111.223 259.403 111.021 259.656 110.905C259.71 110.905 264.159 109.05 268.133 100.415C272.105 91.7803 275.868 76.5231 273.853 47.1744C273.801 46.6448 273.589 42.1418 274.649 39.9168C274.914 39.2809 275.602 38.3805 276.928 36.6851C279.682 33.1888 284.766 26.6197 284.078 23.0703C283.994 22.4898 283.796 21.9318 283.496 21.428C283.178 21.587 282.436 22.3287 281.482 24.4477C281.367 24.6978 281.159 24.8929 280.902 24.9919C280.645 25.0907 280.359 25.0857 280.106 24.9775C279.975 24.9204 279.858 24.8375 279.759 24.7341C279.662 24.6306 279.587 24.5084 279.536 24.3749C279.488 24.2414 279.464 24.0993 279.472 23.957C279.479 23.8149 279.513 23.6755 279.576 23.5472C280.952 20.5275 282.278 19.0972 283.708 19.256C285.138 19.415 285.986 21.8518 286.144 22.6465C287.045 27.1495 281.96 33.6655 278.622 37.9566C277.876 38.8672 277.186 39.8226 276.556 40.8173C275.868 42.2476 275.92 45.7971 275.974 47.0684C279.894 104.918 261.192 112.6 260.398 112.918L260.028 112.971Z" fill="black"/>
<path d="M236.77 198.526H236.664C212.666 196.938 181.093 195.508 164.776 195.984C164.635 195.991 164.494 195.969 164.362 195.919C164.23 195.869 164.11 195.792 164.01 195.691C163.91 195.59 163.832 195.472 163.782 195.339C163.731 195.208 163.709 195.066 163.717 194.924C163.71 194.787 163.73 194.651 163.778 194.523C163.825 194.396 163.898 194.277 163.992 194.178C164.086 194.079 164.2 194 164.326 193.946C164.451 193.893 164.587 193.866 164.723 193.866C181.093 193.388 212.72 194.818 236.824 196.408C237.101 196.435 237.356 196.562 237.543 196.769C237.73 196.976 237.832 197.243 237.83 197.52C237.805 197.788 237.683 198.037 237.489 198.222C237.295 198.408 237.04 198.515 236.77 198.526Z" fill="black"/>
<path d="M115.773 255.265C115.787 253.138 116.642 251.104 118.151 249.605C119.659 248.105 121.699 247.264 123.826 247.264C160.485 247.158 311.308 247.794 312.315 263.9C313.481 282.229 315.175 442.057 307.176 443.753C299.177 445.447 121.601 420.867 117.628 415.147C113.654 409.424 115.403 287.898 115.773 255.265Z" fill="#3474C9"/>
<path d="M299.548 395.227H299.494C299.357 395.227 299.222 395.2 299.097 395.146C298.971 395.092 298.858 395.013 298.764 394.914C298.669 394.814 298.595 394.697 298.549 394.569C298.502 394.44 298.48 394.303 298.488 394.167C298.542 393.055 303.256 286.574 296.951 272.905C295.521 269.832 284.132 264.112 223.739 260.403C189.146 258.283 154.87 257.859 154.499 257.807C154.362 257.807 154.227 257.78 154.101 257.726C153.976 257.672 153.862 257.593 153.768 257.495C153.674 257.394 153.601 257.277 153.553 257.15C153.506 257.02 153.485 256.884 153.493 256.747C153.493 256.467 153.604 256.197 153.803 255.998C154.002 255.8 154.271 255.689 154.552 255.689C154.87 255.741 189.198 256.165 223.845 258.283C244.241 259.555 260.716 261.145 272.901 263.052C293.985 266.284 297.799 269.726 298.86 272.004C305.374 286.15 300.766 389.823 300.608 394.221C300.583 394.489 300.46 394.736 300.266 394.922C300.07 395.107 299.815 395.214 299.548 395.227Z" fill="black"/>
<path d="M134.527 269.78C136.604 269.78 138.288 267.716 138.288 265.172C138.288 262.626 136.604 260.561 134.527 260.561C132.449 260.561 130.766 262.626 130.766 265.172C130.766 267.716 132.449 269.78 134.527 269.78Z" fill="black"/>
<path d="M288.157 284.348C290.85 284.348 293.031 282.166 293.031 279.475C293.031 276.782 290.85 274.601 288.157 274.601C285.465 274.601 283.284 276.782 283.284 279.475C283.284 282.166 285.465 284.348 288.157 284.348Z" fill="black"/>
<path d="M334.512 436.39H334.458C334.182 436.363 333.927 436.234 333.74 436.029C333.553 435.823 333.451 435.555 333.452 435.277C333.452 434.8 335.571 388.18 336.101 340.556C336.949 261.197 333.08 240.114 329.69 236.405C329.054 235.663 324.34 233.597 295.257 230.471C277.934 228.617 254.359 226.657 225.115 224.538C175.318 220.99 125.733 218.34 125.256 218.34C124.98 218.315 124.723 218.185 124.537 217.979C124.351 217.774 124.248 217.506 124.25 217.228C124.256 217.089 124.29 216.953 124.35 216.825C124.41 216.699 124.494 216.586 124.597 216.493C124.7 216.399 124.821 216.328 124.952 216.281C125.084 216.234 125.223 216.214 125.362 216.222C125.892 216.222 175.425 218.87 225.275 222.42C326.46 229.677 330.062 233.651 331.28 234.975C336.577 240.75 338.909 276.297 338.221 340.556C337.691 388.286 335.571 434.906 335.571 435.383C335.558 435.656 335.439 435.911 335.242 436.098C335.046 436.286 334.784 436.39 334.512 436.39Z" fill="black"/>
<path d="M176.378 383.096C167.137 383.096 158.103 380.356 150.419 375.221C142.735 370.086 136.746 362.79 133.21 354.252C129.674 345.714 128.748 336.32 130.551 327.256C132.354 318.191 136.804 309.866 143.339 303.331C149.873 296.797 158.199 292.346 167.263 290.544C176.326 288.74 185.722 289.666 194.259 293.203C202.797 296.739 210.095 302.727 215.228 310.412C220.363 318.096 223.103 327.13 223.103 336.37C223.089 348.758 218.162 360.636 209.402 369.395C200.643 378.155 188.767 383.082 176.378 383.096ZM176.378 291.764C167.556 291.764 158.932 294.382 151.596 299.283C144.261 304.185 138.544 311.15 135.168 319.302C131.792 327.451 130.908 336.42 132.629 345.073C134.351 353.726 138.599 361.674 144.837 367.912C151.075 374.15 159.023 378.398 167.676 380.119C176.329 381.84 185.298 380.958 193.447 377.582C201.599 374.206 208.564 368.487 213.466 361.153C218.367 353.817 220.985 345.193 220.985 336.37C220.97 324.544 216.267 313.207 207.903 304.846C199.542 296.482 188.205 291.779 176.378 291.764Z" fill="black"/>
<path d="M175.16 375.361C155.665 375.361 139.825 358.25 139.825 337.166C139.825 316.08 155.665 298.969 175.16 298.969C194.655 298.969 210.494 316.134 210.494 337.166C210.494 358.196 194.655 375.361 175.16 375.361ZM175.16 301.089C156.83 301.089 141.944 317.298 141.944 337.166C141.944 357.032 156.83 373.241 175.16 373.241C193.489 373.241 208.376 357.084 208.376 337.166C208.376 317.246 193.489 301.089 175.16 301.089Z" fill="black"/>
<path d="M169.279 312.478H169.226C169.087 312.471 168.951 312.437 168.825 312.377C168.698 312.318 168.586 312.234 168.492 312.131C168.399 312.027 168.326 311.907 168.28 311.775C168.233 311.644 168.212 311.506 168.22 311.366L168.537 301.459C168.537 301.317 168.566 301.177 168.623 301.048C168.68 300.918 168.764 300.803 168.869 300.708C168.974 300.613 169.098 300.541 169.232 300.496C169.367 300.453 169.509 300.438 169.65 300.453C169.787 300.453 169.922 300.48 170.048 300.534C170.174 300.588 170.287 300.667 170.381 300.765C170.475 300.866 170.548 300.983 170.596 301.11C170.643 301.24 170.664 301.376 170.656 301.513L170.339 311.472C170.325 311.743 170.207 312 170.01 312.187C169.813 312.374 169.551 312.478 169.279 312.478Z" fill="black"/>
<path d="M180.615 310.466H180.299C180.028 310.369 179.805 310.171 179.677 309.914C179.549 309.659 179.524 309.363 179.609 309.088L182.469 300.983C182.518 300.85 182.592 300.726 182.687 300.622C182.782 300.518 182.897 300.433 183.025 300.374C183.154 300.315 183.292 300.282 183.434 300.277C183.574 300.273 183.716 300.297 183.847 300.347C183.979 300.388 184.101 300.456 184.205 300.546C184.309 300.636 184.394 300.748 184.453 300.871C184.512 300.995 184.546 301.13 184.55 301.269C184.555 301.405 184.534 301.543 184.483 301.671L181.623 309.776C181.546 309.981 181.409 310.157 181.228 310.281C181.048 310.403 180.834 310.467 180.615 310.466Z" fill="black"/>
<path d="M187.556 314.492C187.409 314.497 187.261 314.47 187.125 314.417C186.988 314.361 186.864 314.278 186.762 314.174C186.579 313.969 186.478 313.705 186.478 313.432C186.478 313.159 186.579 312.895 186.762 312.69L193.278 306.227C193.481 306.075 193.735 305.999 193.988 306.017C194.243 306.035 194.482 306.145 194.662 306.326C194.843 306.506 194.953 306.745 194.971 307C194.989 307.253 194.913 307.507 194.761 307.71L188.298 314.174C188.102 314.373 187.836 314.487 187.556 314.492Z" fill="black"/>
<path d="M193.594 320.161C193.37 320.159 193.152 320.087 192.971 319.954C192.789 319.821 192.656 319.632 192.588 319.418C192.522 319.145 192.561 318.856 192.698 318.61C192.836 318.364 193.063 318.181 193.33 318.094L202.389 315.34C202.664 315.263 202.957 315.297 203.205 315.435C203.453 315.575 203.636 315.807 203.713 316.08C203.79 316.355 203.756 316.648 203.616 316.896C203.478 317.146 203.246 317.329 202.971 317.406L193.912 320.161H193.594Z" fill="black"/>
<path d="M196.88 329.113C196.744 329.12 196.607 329.099 196.478 329.052C196.35 329.005 196.232 328.932 196.133 328.838C196.034 328.743 195.955 328.63 195.901 328.504C195.847 328.378 195.82 328.244 195.82 328.107C195.806 327.965 195.82 327.823 195.863 327.689C195.908 327.554 195.98 327.43 196.075 327.326C196.169 327.22 196.286 327.137 196.415 327.079C196.544 327.022 196.685 326.993 196.826 326.993L206.945 326.571C207.089 326.564 207.233 326.585 207.368 326.636C207.502 326.684 207.624 326.761 207.729 326.86C207.833 326.961 207.915 327.079 207.973 327.212C208.029 327.344 208.057 327.485 208.057 327.629C208.065 327.766 208.045 327.902 207.996 328.032C207.95 328.159 207.876 328.276 207.783 328.377C207.687 328.475 207.574 328.555 207.448 328.608C207.323 328.662 207.188 328.689 207.051 328.689L196.932 329.113H196.88Z" fill="black"/>
<path d="M161.545 312.054C161.328 312.05 161.117 311.982 160.939 311.86C160.76 311.738 160.621 311.567 160.538 311.366L158.525 305.273C158.44 305 158.464 304.704 158.593 304.447C158.721 304.19 158.943 303.992 159.214 303.897C159.481 303.827 159.764 303.858 160.009 303.985C160.253 304.113 160.442 304.326 160.538 304.585L162.551 310.678C162.601 310.805 162.624 310.944 162.619 311.08C162.613 311.218 162.58 311.353 162.52 311.477C162.461 311.601 162.376 311.713 162.272 311.802C162.168 311.892 162.047 311.96 161.916 312.002L161.545 312.054Z" fill="black"/>
<path d="M153.863 316.558C153.681 316.549 153.504 316.497 153.347 316.405C153.19 316.312 153.058 316.183 152.962 316.028L150.208 311.632C150.063 311.389 150.016 311.102 150.074 310.827C150.134 310.552 150.295 310.309 150.525 310.148C150.646 310.072 150.781 310.022 150.922 309.999C151.064 309.975 151.208 309.982 151.346 310.016C151.485 310.052 151.615 310.114 151.729 310.2C151.843 310.286 151.938 310.394 152.009 310.518L154.764 314.916C154.84 315.036 154.89 315.171 154.913 315.313C154.935 315.453 154.929 315.597 154.894 315.737C154.86 315.875 154.797 316.005 154.711 316.118C154.625 316.233 154.517 316.328 154.393 316.398C154.234 316.501 154.051 316.555 153.863 316.558Z" fill="black"/>
<path d="M149.413 323.815C149.278 323.824 149.143 323.804 149.016 323.759C148.888 323.712 148.771 323.642 148.672 323.551L144.805 320.16C144.603 319.961 144.481 319.695 144.462 319.411C144.442 319.129 144.526 318.849 144.699 318.624C144.899 318.42 145.17 318.299 145.456 318.29C145.742 318.279 146.021 318.38 146.235 318.57L150.102 321.961C150.304 322.16 150.425 322.426 150.445 322.71C150.464 322.992 150.38 323.272 150.208 323.497C149.993 323.7 149.709 323.815 149.413 323.815Z" fill="black"/>
<path d="M146.128 331.974L145.705 331.868L142.049 330.225C141.799 330.11 141.604 329.902 141.505 329.643C141.406 329.386 141.411 329.101 141.52 328.847C141.571 328.72 141.648 328.603 141.747 328.506C141.846 328.409 141.963 328.332 142.093 328.283C142.222 328.233 142.36 328.21 142.498 328.217C142.637 328.222 142.773 328.258 142.897 328.317L146.552 329.907C146.816 330.024 147.024 330.238 147.132 330.506C147.241 330.772 147.242 331.07 147.135 331.338C147.04 331.524 146.896 331.683 146.719 331.794C146.542 331.905 146.338 331.968 146.128 331.974Z" fill="black"/>
<path d="M166.63 352.263C158.578 352.263 152.009 345.113 152.009 336.37C152.009 327.629 158.578 320.478 166.63 320.478C174.683 320.478 181.305 327.629 181.305 336.37C181.305 345.113 174.736 352.263 166.63 352.263ZM166.63 322.597C159.743 322.597 154.128 328.795 154.128 336.37C154.128 343.947 159.743 350.145 166.63 350.145C173.517 350.145 179.186 343.947 179.186 336.37C179.186 328.795 173.57 322.597 166.63 322.597Z" fill="black"/>
<path d="M162.18 347.125C167.213 347.125 171.292 342.856 171.292 337.59C171.292 332.322 167.213 328.053 162.18 328.053C157.148 328.053 153.068 332.322 153.068 337.59C153.068 342.856 157.148 347.125 162.18 347.125Z" fill="white"/>
<path d="M162.18 348.185C156.565 348.185 152.009 343.417 152.009 337.59C152.009 331.762 156.565 326.993 162.18 326.993C167.796 326.993 172.352 331.762 172.352 337.59C172.352 343.417 167.796 348.185 162.18 348.185ZM162.18 329.113C157.73 329.113 154.128 332.928 154.128 337.59C154.128 342.25 157.73 346.065 162.18 346.065C166.63 346.065 170.233 342.25 170.233 337.59C170.233 332.928 166.63 329.113 162.18 329.113Z" fill="black"/>
<path d="M259.338 41.6651C259.079 41.7284 258.804 41.6858 258.576 41.5467C258.346 41.4077 258.183 41.1834 258.12 40.9235C258.057 40.6635 258.1 40.3891 258.238 40.1606C258.377 39.9322 258.601 39.7682 258.862 39.705C259.71 39.2283 260.134 38.7515 260.186 38.1688C260.24 37.586 258.65 35.308 257.75 34.6723C254.623 33.295 253.511 34.5663 252.187 36.1026C251.688 36.6828 251.118 37.1988 250.491 37.639C250.18 37.8594 249.826 38.0152 249.454 38.0971C249.081 38.1789 248.694 38.1853 248.319 38.1158C247.891 37.9906 247.492 37.7805 247.146 37.4985C246.801 37.2164 246.515 36.8678 246.307 36.4735C245.861 35.7104 245.644 34.8355 245.681 33.9526C245.719 33.0697 246.008 32.2161 246.519 31.4938C248.362 28.8247 251.176 26.981 254.359 26.355C258.12 25.6133 262.04 26.62 266.013 29.3217C266.133 29.3971 266.237 29.4956 266.318 29.6115C266.399 29.7274 266.454 29.8581 266.485 29.9965C266.514 30.1347 266.516 30.2773 266.49 30.4162C266.463 30.5551 266.41 30.6873 266.331 30.805C266.251 30.9205 266.151 31.019 266.032 31.0948C265.914 31.1708 265.783 31.2225 265.644 31.2471C265.508 31.2718 265.366 31.2689 265.229 31.2383C265.093 31.208 264.963 31.1507 264.848 31.07C261.298 28.686 257.908 27.7855 254.782 28.4212C252.148 28.9472 249.816 30.4642 248.267 32.6591C247.983 33.0571 247.819 33.5264 247.791 34.0137C247.762 34.5009 247.872 34.9864 248.107 35.414C248.265 35.6925 248.506 35.9147 248.797 36.0496C249.007 36.0358 249.208 35.9621 249.379 35.8378C249.837 35.5076 250.247 35.1154 250.597 34.6723C251.975 33.083 254.093 30.6992 258.702 32.7652L258.914 32.8712C259.286 33.136 262.516 35.573 262.304 38.3276C262.252 39.2283 261.776 40.5526 259.816 41.5591C259.672 41.6437 259.505 41.6808 259.338 41.6651Z" fill="black"/>
<path d="M263.947 29.7983C263.726 29.7897 263.51 29.7144 263.33 29.5822C263.151 29.4499 263.016 29.2669 262.94 29.0566C262.57 27.7851 261.352 26.143 260.186 24.5537C258.226 21.9048 256.214 19.203 256.584 16.8192C256.803 15.7581 257.432 14.826 258.332 14.2234C258.828 13.8942 259.399 13.6973 259.992 13.6509C260.587 13.6046 261.182 13.7104 261.722 13.9584C266.385 15.8655 271.311 27.0435 271.469 27.9972C271.518 28.2632 271.462 28.5378 271.315 28.7641C271.167 28.9907 270.939 29.1522 270.675 29.2155C270.54 29.2469 270.398 29.2512 270.262 29.2282C270.125 29.2054 269.992 29.1556 269.876 29.0818C269.757 29.008 269.655 28.9117 269.574 28.7983C269.493 28.6847 269.435 28.5566 269.405 28.4208C268.981 26.9905 264.319 17.19 260.822 15.8655C260.617 15.7795 260.395 15.7441 260.174 15.7624C259.953 15.7809 259.739 15.8526 259.55 15.9715C259.333 16.0915 259.142 16.2583 258.997 16.4597C258.849 16.6611 258.751 16.8923 258.702 17.137C258.438 18.6733 260.238 21.1102 261.882 23.2822C263.524 25.4541 264.477 26.8317 264.955 28.4208C265.003 28.5527 265.025 28.6934 265.016 28.8337C265.007 28.9742 264.969 29.1111 264.904 29.236C264.84 29.3606 264.748 29.4704 264.638 29.5583C264.529 29.646 264.401 29.7097 264.265 29.7453L263.947 29.7983Z" fill="black"/>
<path d="M275.708 29.5335L275.232 29.4275C275.002 29.3039 274.824 29.1035 274.727 28.8613C274.63 28.6193 274.621 28.3509 274.702 28.1031C274.967 26.7786 274.914 15.177 272.635 12.4752C272.576 12.4105 272.499 12.3656 272.414 12.3466C272.328 12.3277 272.24 12.3356 272.159 12.3692C272.077 12.4281 272.014 12.5093 271.976 12.6031C271.938 12.6971 271.928 12.7997 271.947 12.899C272.583 15.3359 272.477 22.1168 271.047 26.09C270.999 26.2233 270.925 26.3457 270.83 26.4502C270.735 26.5546 270.62 26.639 270.492 26.6982C270.363 26.7574 270.224 26.7903 270.082 26.7952C269.942 26.7998 269.8 26.7763 269.669 26.7256C269.538 26.6843 269.416 26.6164 269.312 26.5262C269.207 26.436 269.123 26.3255 269.064 26.2014C269.004 26.0772 268.97 25.9421 268.967 25.8045C268.961 25.6669 268.983 25.5296 269.033 25.4013C270.305 21.9048 270.463 15.5479 269.881 13.4287C269.745 12.8649 269.8 12.2716 270.041 11.7434C270.28 11.2154 270.691 10.7829 271.205 10.515C271.699 10.2504 272.269 10.1638 272.819 10.27C273.368 10.3762 273.866 10.6685 274.225 11.0979C277.244 14.6472 277.244 27.8383 276.662 28.9508C276.579 29.1312 276.443 29.2828 276.274 29.3865C276.103 29.4904 275.907 29.5414 275.708 29.5335Z" fill="black"/>
<path d="M135.057 179.879C134.482 179.873 133.911 179.783 133.362 179.614C133.228 179.568 133.106 179.494 133.001 179.399C132.897 179.304 132.812 179.189 132.753 179.059C132.694 178.932 132.661 178.792 132.656 178.651C132.652 178.509 132.675 178.369 132.726 178.236C132.767 178.105 132.835 177.985 132.925 177.881C133.015 177.776 133.126 177.692 133.25 177.633C133.374 177.573 133.509 177.539 133.647 177.534C133.785 177.528 133.922 177.552 134.05 177.602C137.864 178.978 145.122 171.562 148.83 166.581C148.914 166.472 149.019 166.377 149.138 166.307C149.258 166.235 149.391 166.188 149.528 166.17C149.666 166.15 149.806 166.157 149.941 166.192C150.076 166.226 150.202 166.287 150.314 166.371C150.518 166.553 150.651 166.802 150.69 167.074C150.728 167.345 150.67 167.622 150.526 167.853C149.519 169.178 141.414 179.879 135.057 179.879Z" fill="black"/>
<path d="M283.018 187.243L282.542 187.137C282.416 187.076 282.303 186.99 282.211 186.884C282.12 186.778 282.05 186.656 282.005 186.521C281.96 186.388 281.944 186.248 281.953 186.108C281.963 185.967 282.001 185.833 282.066 185.707C282.172 185.495 293.243 163.563 312.05 170.026C312.181 170.067 312.302 170.135 312.406 170.225C312.51 170.315 312.595 170.426 312.654 170.55C312.713 170.674 312.747 170.809 312.753 170.947C312.758 171.086 312.735 171.222 312.685 171.35C312.6 171.617 312.413 171.838 312.165 171.968C311.917 172.097 311.628 172.122 311.36 172.04C294.303 166.159 284.078 186.449 283.972 186.661C283.884 186.837 283.747 186.984 283.579 187.089C283.41 187.191 283.216 187.245 283.018 187.243Z" fill="black"/>
<path d="M183.266 112.441C180.828 112.441 177.809 110.481 177.491 110.216C177.371 110.141 177.268 110.042 177.187 109.926C177.106 109.811 177.049 109.68 177.019 109.541C176.989 109.403 176.988 109.26 177.014 109.121C177.041 108.983 177.095 108.85 177.173 108.733C177.342 108.51 177.588 108.36 177.863 108.311C178.138 108.262 178.421 108.318 178.656 108.468C179.821 109.262 182.206 110.481 183.478 110.322C183.614 110.3 183.752 110.305 183.887 110.339C184.02 110.373 184.146 110.434 184.256 110.519C184.365 110.603 184.455 110.709 184.521 110.83C184.59 110.951 184.629 111.085 184.642 111.223C184.665 111.362 184.66 111.504 184.626 111.641C184.593 111.779 184.532 111.908 184.448 112.021C184.365 112.135 184.259 112.23 184.137 112.302C184.017 112.375 183.882 112.422 183.742 112.441H183.266Z" fill="black"/>
<path d="M184.536 93.7402C184.37 93.7559 184.203 93.7189 184.06 93.6342C183.815 93.4998 183.632 93.2742 183.553 93.0063C183.474 92.7384 183.504 92.4501 183.636 92.2039C184.584 90.7017 186.027 89.5777 187.716 89.0254C187.975 88.9205 188.266 88.923 188.524 89.0323C188.783 89.1415 188.986 89.3485 189.092 89.6081C189.18 89.8754 189.164 90.1663 189.045 90.422C188.929 90.6775 188.717 90.8789 188.456 90.9854C187.258 91.3945 186.219 92.1735 185.49 93.2104C185.395 93.377 185.254 93.5142 185.087 93.6075C184.918 93.7009 184.728 93.7467 184.536 93.7402Z" fill="black"/>
<path d="M256.478 123.301H256.214L235.394 117.738C235.257 117.702 235.128 117.638 235.017 117.551C234.905 117.465 234.812 117.356 234.744 117.233C234.673 117.109 234.63 116.973 234.614 116.833C234.6 116.692 234.612 116.55 234.652 116.414C234.726 116.15 234.9 115.925 235.137 115.786C235.374 115.648 235.656 115.607 235.924 115.673L256.742 121.182C257.024 121.217 257.279 121.362 257.453 121.586C257.628 121.81 257.705 122.093 257.669 122.374C257.635 122.655 257.489 122.911 257.267 123.084C257.042 123.258 256.758 123.336 256.478 123.301Z" fill="white"/>
<path d="M231.791 185.071C226.123 185.071 216.11 177.548 210.494 172.992C209.815 172.44 209.373 171.648 209.265 170.778C209.155 169.911 209.389 169.032 209.912 168.331L218.176 156.994C218.669 156.297 219.407 155.812 220.241 155.636C221.076 155.459 221.946 155.603 222.679 156.04C225.963 157.895 234.176 162.821 239.578 167.217C240.974 168.263 242.007 169.72 242.53 171.384C243.053 173.048 243.04 174.834 242.492 176.488C241.114 180.939 236.612 184.701 232.267 185.071H231.791ZM211.608 169.55C211.406 169.821 211.317 170.157 211.356 170.491C211.396 170.827 211.561 171.134 211.82 171.35C221.037 178.872 228.613 183.217 232.109 182.953C235.606 182.687 239.366 179.508 240.478 175.854C241.062 173.946 241.168 171.192 238.254 168.86C232.956 164.569 224.851 159.749 221.567 157.841C221.286 157.69 220.961 157.643 220.65 157.711C220.338 157.78 220.061 157.957 219.87 158.213L211.608 169.55Z" fill="white"/>
<path d="M211.184 173.258C210.92 173.258 210.665 173.163 210.469 172.985C210.273 172.809 210.151 172.566 210.124 172.304C210.11 172.165 210.122 172.024 210.162 171.889C210.203 171.756 210.269 171.63 210.357 171.522C210.446 171.414 210.555 171.325 210.679 171.258C210.803 171.192 210.938 171.152 211.078 171.138L222.361 169.868C222.672 169.832 222.97 169.727 223.236 169.562C223.502 169.397 223.728 169.176 223.897 168.913C224.052 168.642 224.147 168.34 224.174 168.03C224.201 167.719 224.161 167.406 224.057 167.111L220.083 156.782C220.033 156.649 220.009 156.509 220.015 156.367C220.018 156.227 220.052 156.087 220.112 155.96C220.171 155.83 220.255 155.715 220.36 155.62C220.464 155.525 220.586 155.452 220.719 155.405C220.848 155.355 220.985 155.332 221.123 155.337C221.26 155.342 221.394 155.376 221.518 155.435C221.642 155.495 221.754 155.579 221.844 155.683C221.933 155.787 222.002 155.909 222.043 156.04L226.017 166.317C226.247 166.916 226.339 167.559 226.281 168.197C226.226 168.834 226.023 169.451 225.69 169.999C225.358 170.547 224.903 171.01 224.362 171.355C223.822 171.7 223.211 171.916 222.573 171.986L211.29 173.258H211.184Z" fill="white"/>
<path d="M219.343 167.853C220.131 167.853 220.773 167.214 220.773 166.423C220.773 165.633 220.131 164.993 219.343 164.993C218.552 164.993 217.911 165.633 217.911 166.423C217.911 167.214 218.552 167.853 219.343 167.853Z" fill="white"/>
<path d="M174.365 192.382C174.084 192.382 173.814 192.27 173.616 192.071C173.417 191.873 173.305 191.604 173.305 191.322C173.305 191.163 173.04 176.594 165.094 167.271C164.983 167.171 164.894 167.047 164.833 166.91C164.773 166.772 164.743 166.625 164.744 166.474C164.746 166.325 164.779 166.175 164.842 166.039C164.905 165.904 164.996 165.782 165.11 165.683C165.223 165.586 165.356 165.512 165.5 165.469C165.644 165.426 165.795 165.414 165.944 165.433C166.093 165.455 166.236 165.505 166.363 165.584C166.491 165.663 166.6 165.769 166.683 165.893C175.159 175.854 175.424 190.687 175.424 191.269C175.431 191.413 175.41 191.557 175.359 191.692C175.309 191.826 175.233 191.949 175.133 192.053C175.034 192.157 174.915 192.24 174.783 192.297C174.651 192.353 174.509 192.382 174.365 192.382Z" fill="white"/>
<path d="M154.234 88.2308C154.004 88.2184 153.785 88.1354 153.605 87.9931C153.424 87.8508 153.292 87.6562 153.227 87.4361C153.174 87.1183 151.002 79.3838 154.446 73.6093C155.296 72.2074 156.33 70.9247 157.518 69.7952C159.108 68.1528 159.478 67.729 157.677 64.3915C157.604 64.2715 157.557 64.1375 157.539 63.9982C157.521 63.8588 157.532 63.7172 157.572 63.5825C157.612 63.4477 157.68 63.3228 157.771 63.2158C157.862 63.1089 157.974 63.0221 158.101 62.9612C158.347 62.8289 158.636 62.7993 158.903 62.8787C159.171 62.9581 159.397 63.1401 159.531 63.385C161.968 67.888 161.015 69.2123 159.002 71.2785C157.942 72.3058 157.017 73.4627 156.247 74.722C153.28 79.6486 155.24 86.8004 155.293 86.8534C155.333 86.9891 155.346 87.1314 155.33 87.2721C155.315 87.4126 155.271 87.5486 155.202 87.672C155.133 87.7954 155.04 87.9039 154.928 87.9907C154.816 88.0775 154.688 88.1411 154.552 88.1778L154.234 88.2308Z" fill="black"/>
<path d="M166.684 83.3571C166.454 83.3447 166.234 83.2617 166.054 83.1194C165.874 82.9771 165.742 82.7827 165.677 82.5625C165.624 82.3506 164.194 77 169.491 72.2852C170.657 71.2787 171.663 70.537 172.458 69.9542C175.054 68.1 175.372 67.8882 173.57 63.1734C171.769 58.4584 171.928 56.6572 173.411 55.1209C173.714 54.8708 173.966 54.5652 174.153 54.2204C174.28 53.9674 174.501 53.7752 174.77 53.6857C175.038 53.5962 175.331 53.6171 175.583 53.7436C175.836 53.87 176.029 54.0918 176.118 54.36C176.207 54.6282 176.187 54.9209 176.06 55.1739C175.752 55.7264 175.359 56.2269 174.895 56.6572C174.259 57.2929 173.782 57.8227 175.53 62.4317C177.808 68.312 176.855 69.4245 173.729 71.6495C172.935 72.2852 171.981 72.9208 170.922 73.8745C166.577 77.7416 167.69 81.9798 167.743 81.9798C167.81 82.2534 167.771 82.5423 167.633 82.7881C167.495 83.0339 167.27 83.2184 167.001 83.3041L166.684 83.3571Z" fill="black"/>
<path d="M177.331 77.3708C177.105 77.3559 176.886 77.2829 176.696 77.159C176.584 77.0754 176.491 76.9709 176.42 76.8512C176.349 76.7314 176.302 76.599 176.283 76.4612C176.263 76.3234 176.271 76.1832 176.305 76.0485C176.34 75.9135 176.4 75.7869 176.484 75.6757C179.769 71.2257 179.769 71.1197 179.45 69.6363C179.345 69.2125 179.239 68.6298 179.133 67.9412C179.011 67.2173 179.052 66.4755 179.254 65.7697C179.455 65.064 179.812 64.4122 180.299 63.862C182.629 61.319 187.344 61.531 187.504 61.531C187.644 61.5301 187.784 61.5592 187.915 61.6164C188.044 61.6735 188.159 61.7572 188.255 61.8622C188.35 61.9673 188.422 62.0911 188.465 62.2256C188.51 62.3604 188.524 62.5027 188.51 62.6435C188.51 62.7803 188.483 62.9155 188.429 63.0413C188.375 63.1671 188.296 63.2804 188.195 63.3746C188.097 63.4689 187.98 63.5419 187.852 63.5891C187.723 63.6365 187.586 63.6572 187.45 63.65C186.338 63.597 183.211 63.809 181.887 65.2924C181.593 65.6057 181.379 65.9877 181.267 66.404C181.158 66.8201 181.152 67.2574 181.251 67.6762C181.296 68.1949 181.384 68.7089 181.517 69.2125C181.993 71.5435 181.781 72.1262 178.179 76.947C178.078 77.0758 177.949 77.1804 177.803 77.2537C177.656 77.327 177.495 77.367 177.331 77.3708Z" fill="black"/>
<path d="M184.007 80.3905C183.781 80.3693 183.564 80.2969 183.371 80.1786C183.26 80.0951 183.167 79.9905 183.095 79.8709C183.025 79.751 182.978 79.6186 182.958 79.4808C182.938 79.343 182.946 79.2029 182.98 79.0681C183.014 78.9332 183.075 78.8065 183.159 78.6953C183.795 77.8477 187.08 73.6625 189.622 73.6625H189.728C190.31 73.6625 190.734 73.6097 190.894 73.3977C191.052 73.1858 191.106 71.8613 191 70.8548C190.894 69.8483 190.628 67.4644 191.794 66.2989C192.96 65.1334 193.754 65.1334 195.449 65.2924C195.589 65.2992 195.725 65.3333 195.851 65.393C195.977 65.4526 196.09 65.5363 196.183 65.6398C196.277 65.7431 196.349 65.8639 196.395 65.9952C196.442 66.1264 196.464 66.2656 196.456 66.4049C196.417 66.6857 196.277 66.9428 196.063 67.128C195.849 67.3133 195.574 67.414 195.29 67.4113C194.284 67.3055 193.594 67.4644 193.33 67.7292C193.066 67.9942 193.012 69.5305 193.118 70.643C193.224 71.7555 193.488 73.7685 192.482 74.881C192.105 75.2207 191.659 75.4766 191.176 75.6318C190.691 75.7869 190.181 75.8381 189.676 75.7817H189.622C188.668 75.7817 186.39 77.9007 184.854 79.9666C184.753 80.0955 184.624 80.2002 184.478 80.2733C184.331 80.3466 184.171 80.3867 184.007 80.3905Z" fill="black"/>
<path d="M151.85 102.27C151.273 102.29 150.698 102.2 150.155 102.005C148.248 101.263 147.029 99.3561 146.446 96.2834C145.599 91.6216 145.917 90.3501 146.128 89.4496C146.34 88.5489 146.34 88.5489 145.44 86.2179C145.016 85.1055 144.592 84.205 144.274 83.5161C142.897 80.4436 142.579 79.437 145.069 76.4703C145.245 76.2536 145.5 76.1155 145.778 76.0856C146.056 76.0558 146.334 76.137 146.552 76.3115C146.762 76.5041 146.893 76.7666 146.923 77.0496C146.952 77.3325 146.877 77.6164 146.711 77.8478C144.963 79.9138 144.963 79.9668 146.181 82.6156C146.552 83.3573 146.923 84.2578 147.4 85.4233C148.459 88.1251 148.459 88.8138 148.195 89.9263C147.93 91.0388 147.771 91.7274 148.565 95.9126C148.83 97.4489 149.466 99.4621 150.896 99.9917C152.327 100.522 154.34 99.5149 154.975 99.0382C155.2 98.8695 155.483 98.7971 155.761 98.837C156.039 98.8767 156.29 99.0253 156.459 99.2501C156.627 99.4748 156.7 99.7574 156.66 100.036C156.62 100.314 156.472 100.565 156.247 100.733C156.141 100.786 154.128 102.27 151.85 102.27Z" fill="black"/>
<path d="M152.38 109.845C150.896 109.845 144.327 109.58 143.745 104.601C143.48 102.429 140.513 100.998 137.652 99.6209C134.792 98.2434 133.202 97.4487 132.037 95.9126C130.871 94.3763 130.501 92.9458 131.03 91.4624C131.541 90.2549 131.811 88.9593 131.825 87.6483C131.852 87.372 131.98 87.1154 132.186 86.9293C132.392 86.7429 132.66 86.6404 132.938 86.6416C133.077 86.6484 133.213 86.6826 133.339 86.7422C133.465 86.8019 133.578 86.8858 133.672 86.9891C133.765 87.0924 133.837 87.2133 133.884 87.3445C133.931 87.4758 133.951 87.615 133.944 87.7541C133.919 89.2802 133.614 90.7887 133.043 92.2041C132.673 93.1048 132.673 93.2108 133.732 94.6411C134.792 96.0714 136.593 96.7601 138.553 97.7138C141.785 99.2501 145.44 101.051 145.864 104.336C146.288 107.62 152.539 107.726 152.592 107.726C152.874 107.738 153.143 107.852 153.347 108.047C153.552 108.241 153.679 108.504 153.704 108.786C153.711 108.922 153.691 109.059 153.643 109.187C153.596 109.316 153.523 109.433 153.429 109.532C153.335 109.631 153.221 109.71 153.096 109.764C152.97 109.818 152.834 109.845 152.698 109.845H152.38Z" fill="black"/>
<path d="M399.936 376.155C399.771 376.172 399.604 376.134 399.46 376.049C399.336 375.994 399.225 375.911 399.133 375.81C399.041 375.71 398.971 375.591 398.926 375.464C398.882 375.334 398.864 375.198 398.874 375.061C398.883 374.926 398.921 374.794 398.984 374.671C399.142 374.249 404.122 363.864 408.307 360.316C409.419 359.362 410.427 355.442 410.055 349.191C409.155 335.312 401.896 316.346 384.203 304.849C383.987 304.691 383.813 304.483 383.692 304.244C383.574 304.005 383.513 303.741 383.515 303.473C383.497 303.209 383.551 302.947 383.673 302.713C383.793 302.479 383.978 302.284 384.203 302.147C385.263 301.459 387.753 299.499 388.229 296.957C388.493 295.578 388.123 294.202 387.169 292.772C387.09 292.657 387.032 292.528 387.004 292.391C386.973 292.253 386.97 292.113 386.995 291.974C387.02 291.838 387.07 291.705 387.146 291.588C387.221 291.47 387.32 291.367 387.435 291.288C387.55 291.207 387.679 291.152 387.816 291.121C387.952 291.092 388.093 291.089 388.231 291.114C388.369 291.137 388.5 291.189 388.619 291.265C388.736 291.34 388.838 291.437 388.917 291.552C389.542 292.373 389.993 293.315 390.24 294.317C390.486 295.32 390.522 296.362 390.347 297.381C389.819 300.189 387.593 302.253 386.005 303.473C403.91 315.444 411.221 334.834 412.175 349.031C412.545 355.442 411.645 360.21 409.685 361.904C405.817 365.19 400.944 375.467 400.89 375.573C400.797 375.746 400.66 375.889 400.491 375.992C400.324 376.094 400.134 376.152 399.936 376.155Z" fill="black"/>
<path d="M392.15 326.411C391.932 326.408 391.722 326.339 391.544 326.217C391.364 326.095 391.226 325.922 391.143 325.723C389.925 322.437 383.037 316.292 380.495 314.226C380.306 314.043 380.193 313.795 380.177 313.531C380.16 313.269 380.243 313.008 380.41 312.803C380.575 312.597 380.811 312.46 381.071 312.42C381.334 312.381 381.599 312.438 381.819 312.584C382.191 312.902 391.461 320.479 393.156 324.981C393.206 325.112 393.229 325.254 393.226 325.394C393.22 325.536 393.188 325.674 393.129 325.804C393.069 325.931 392.985 326.046 392.881 326.142C392.777 326.237 392.654 326.311 392.52 326.357L392.15 326.411Z" fill="black"/>
<path d="M383.939 330.491C383.761 330.493 383.585 330.45 383.427 330.367C383.269 330.285 383.136 330.163 383.037 330.013C379.965 325.033 374.084 308.93 373.978 307.552C373.951 307.271 374.036 306.991 374.213 306.772C374.393 306.553 374.652 306.414 374.932 306.385C375.212 306.359 375.494 306.443 375.712 306.623C375.931 306.8 376.069 307.059 376.098 307.339C376.31 308.612 381.819 324.027 384.839 328.901C384.981 329.135 385.026 329.413 384.966 329.681C384.907 329.947 384.747 330.181 384.521 330.331C384.343 330.432 384.142 330.488 383.939 330.491Z" fill="black"/>
<path d="M380.442 296.268C380.239 296.265 380.04 296.204 379.871 296.091C379.702 295.977 379.569 295.819 379.488 295.632C379.425 295.505 379.391 295.365 379.384 295.223C379.377 295.081 379.4 294.939 379.449 294.804C379.499 294.671 379.575 294.549 379.672 294.445C379.77 294.342 379.887 294.26 380.018 294.202C386.533 291.288 395.752 285.832 395.804 283.077C395.804 282.917 395.804 282.389 394.64 281.805C384.469 276.773 370.482 277.303 370.376 277.303C370.236 277.317 370.094 277.303 369.959 277.258C369.824 277.215 369.7 277.143 369.594 277.048C369.49 276.952 369.405 276.837 369.35 276.708C369.292 276.577 369.264 276.437 369.264 276.297C369.256 276.157 369.278 276.018 369.325 275.887C369.371 275.756 369.443 275.634 369.537 275.531C369.63 275.427 369.743 275.344 369.869 275.283C369.995 275.224 370.131 275.19 370.27 275.183C370.854 275.183 384.891 274.655 395.594 279.899C397.552 280.905 397.924 282.177 397.924 283.129C397.818 288.216 383.727 294.89 380.865 296.162L380.442 296.268Z" fill="black"/>
<path d="M373.66 308.241C372.372 308.265 371.089 308.033 369.89 307.56C368.69 307.088 367.594 306.382 366.667 305.485C366.565 305.392 366.482 305.277 366.426 305.149C366.371 305.022 366.342 304.883 366.342 304.743C366.342 304.605 366.371 304.467 366.426 304.339C366.482 304.212 366.565 304.097 366.667 304.003C366.859 303.802 367.122 303.683 367.398 303.673C367.677 303.664 367.946 303.762 368.151 303.949C373.926 309.566 384.045 302.255 384.151 302.149C384.264 302.068 384.393 302.011 384.531 301.98C384.668 301.949 384.808 301.946 384.947 301.971C385.085 301.996 385.216 302.048 385.335 302.124C385.451 302.199 385.554 302.298 385.633 302.413C385.802 302.638 385.874 302.922 385.834 303.198C385.795 303.477 385.645 303.728 385.421 303.897C385.103 304.109 379.434 308.241 373.66 308.241Z" fill="black"/>
</svg>
