<svg width="468" height="468" viewBox="0 0 468 468" fill="none" xmlns="http://www.w3.org/2000/svg">
<path d="M335.544 55.9756H136.941C135.497 55.9756 134.111 56.5495 133.09 57.5708C132.069 58.5922 131.495 59.9775 131.495 61.4217V406.478C131.495 407.923 132.069 409.308 133.09 410.33C134.111 411.35 135.497 411.924 136.941 411.924H335.544C336.987 411.924 338.372 411.35 339.394 410.33C340.415 409.308 340.99 407.923 340.99 406.478V61.4217C340.99 59.9775 340.415 58.5922 339.394 57.5708C338.372 56.5495 336.987 55.9756 335.544 55.9756ZM325.422 359.46C325.422 360.904 324.848 362.29 323.826 363.311C322.806 364.333 321.421 364.906 319.976 364.906H153.416C151.971 364.906 150.586 364.333 149.565 363.311C148.543 362.29 147.97 360.904 147.97 359.46V85.3847C147.97 83.9403 148.543 82.555 149.565 81.5337C150.586 80.5124 151.971 79.9386 153.416 79.9386H319.976C321.421 79.9386 322.806 80.5124 323.826 81.5337C324.848 82.555 325.422 83.9403 325.422 85.3847V359.46Z" fill="#F9F9F9"/>
<path d="M335.544 412.832H136.941C135.256 412.832 133.64 412.163 132.448 410.971C131.257 409.779 130.587 408.163 130.587 406.478V61.4219C130.587 59.7366 131.257 58.1206 132.448 56.929C133.64 55.7374 135.256 55.068 136.941 55.068H335.544C336.378 55.062 337.208 55.2222 337.982 55.5395C338.756 55.8566 339.458 56.3243 340.049 56.9155C340.64 57.5068 341.108 58.2096 341.425 58.9832C341.743 59.7568 341.902 60.5858 341.896 61.4219V406.478C341.896 408.163 341.227 409.779 340.036 410.971C338.844 412.163 337.228 412.832 335.544 412.832ZM136.941 56.8834C135.737 56.8834 134.583 57.3615 133.732 58.2127C132.881 59.0638 132.403 60.2182 132.403 61.4219V406.478C132.403 407.682 132.881 408.837 133.732 409.687C134.583 410.539 135.737 411.016 136.941 411.016H335.544C336.746 411.016 337.901 410.539 338.752 409.687C339.603 408.837 340.082 407.682 340.082 406.478V61.4219C340.088 60.8241 339.974 60.2313 339.748 59.6778C339.522 59.1245 339.188 58.6219 338.765 58.1991C338.342 57.7765 337.84 57.4425 337.286 57.2165C336.734 56.9906 336.141 56.8773 335.544 56.8834H136.941ZM319.976 365.814H153.416C151.731 365.814 150.114 365.144 148.923 363.953C147.731 362.762 147.062 361.146 147.062 359.46V85.3848C147.062 83.6996 147.731 82.0835 148.923 80.892C150.114 79.7003 151.731 79.0309 153.416 79.0309H319.976C321.661 79.0309 323.277 79.7003 324.469 80.892C325.661 82.0835 326.33 83.6996 326.33 85.3848V359.46C326.33 361.146 325.661 362.762 324.469 363.953C323.277 365.144 321.661 365.814 319.976 365.814ZM153.416 80.8463C152.212 80.8463 151.058 81.3244 150.206 82.1755C149.355 83.0267 148.877 84.1811 148.877 85.3848V359.46C148.877 360.664 149.355 361.818 150.206 362.67C151.058 363.52 152.212 363.999 153.416 363.999H319.976C321.179 363.999 322.333 363.52 323.185 362.67C324.037 361.818 324.514 360.664 324.514 359.46V85.3848C324.514 84.1811 324.037 83.0267 323.185 82.1755C322.333 81.3244 321.179 80.8463 319.976 80.8463H153.416Z" fill="#282928"/>
<path d="M240.145 401.759C247.564 401.759 253.58 395.359 253.58 387.462C253.58 379.567 247.564 373.166 240.145 373.166C232.725 373.166 226.712 379.567 226.712 387.462C226.712 395.359 232.725 401.759 240.145 401.759Z" fill="#282928"/>
<path d="M279.856 63.3281H198.755C196.524 63.3281 194.716 65.1365 194.716 67.3673V69.4322C194.716 71.663 196.524 73.4716 198.755 73.4716H279.856C282.087 73.4716 283.895 71.663 283.895 69.4322V67.3673C283.895 65.1365 282.087 63.3281 279.856 63.3281Z" fill="#282928"/>
<path d="M119.151 292.155H119.106C118.984 292.157 118.864 292.132 118.753 292.082C118.642 292.033 118.543 291.962 118.461 291.871C118.38 291.782 118.318 291.676 118.281 291.561C118.243 291.445 118.23 291.324 118.243 291.202L118.697 283.034C118.703 282.914 118.732 282.797 118.783 282.689C118.834 282.581 118.906 282.485 118.995 282.404C119.083 282.324 119.187 282.262 119.299 282.223C119.412 282.182 119.531 282.165 119.65 282.171C119.771 282.17 119.891 282.195 120.003 282.244C120.113 282.293 120.213 282.365 120.294 282.455C120.376 282.544 120.437 282.65 120.475 282.766C120.512 282.881 120.525 283.003 120.512 283.124L120.059 291.292C120.037 291.522 119.933 291.736 119.766 291.895C119.599 292.052 119.381 292.146 119.151 292.155Z" fill="#282928"/>
<path d="M82.894 272.303L77.9669 277.699L153.957 347.088L158.884 341.692L82.894 272.303Z" fill="#282928"/>
<path d="M75.1873 205.53L11.1873 277.615C10.0058 278.945 10.1268 280.983 11.4576 282.164L49.8112 316.215C51.1421 317.398 53.1787 317.276 54.3602 315.945L118.36 243.861C119.542 242.53 119.421 240.493 118.09 239.312L79.7363 205.26C78.4054 204.078 76.3688 204.199 75.1873 205.53Z" fill="#3474C9"/>
<path d="M97.548 282.943C97.548 282.943 91.6481 286.393 95.8688 293.745C100.09 301.097 99.2728 289.614 101.315 286.845C103.357 284.077 97.548 282.943 97.548 282.943Z" fill="#F9F9F9"/>
<path d="M92.7372 291.43C92.7372 291.43 105.263 289.569 106.035 290.522C106.806 291.475 107.396 291.656 109.439 293.427C111.481 295.196 114.567 295.469 115.52 296.739C116.473 298.01 108.032 306.406 106.398 305.407C104.764 304.409 104.991 303.501 104.991 303.501C104.991 303.501 99.4087 304.319 99.0457 301.823C99.0457 301.823 93.4634 298.827 94.7795 297.012C94.7795 297.012 90.4226 293.063 92.7372 291.43Z" fill="#F9F9F9"/>
<path d="M106.443 306.634C106.131 306.638 105.821 306.576 105.535 306.451C105.154 306.289 104.811 306.045 104.529 305.741C104.248 305.435 104.034 305.075 103.901 304.682C102.791 305.12 101.551 305.105 100.452 304.637C98.9093 304 98.0469 302.548 97.6385 301.642C97.1477 301.721 96.6459 301.702 96.1626 301.585C95.6793 301.468 95.2244 301.256 94.8246 300.96C93.5086 299.961 93.1 298.238 93.0092 297.194C92.4581 297.018 91.9695 296.687 91.6024 296.241C90.1954 294.515 90.6946 291.294 90.74 290.931C90.7842 290.697 90.9183 290.489 91.1135 290.353C91.3088 290.218 91.5495 290.165 91.7838 290.204C92.0206 290.249 92.2317 290.381 92.3747 290.575C92.518 290.768 92.5825 291.009 92.5554 291.247C92.4192 291.974 92.2378 294.152 93.0092 295.105C93.1167 295.23 93.2488 295.33 93.3973 295.402C93.5458 295.472 93.7073 295.509 93.8716 295.514H94.7792V296.422C94.7792 297.057 94.9608 298.827 95.9139 299.507C96.8669 300.189 97.0939 299.961 97.9561 299.69L98.8185 299.462L99.0907 300.325C99.0907 300.325 99.6807 302.367 101.178 303.002C101.95 303.32 102.948 303.23 104.038 302.64L105.172 302.096L105.354 303.32C105.445 303.729 105.717 304.592 106.216 304.772C106.715 304.953 107.351 304.637 108.213 303.955C109.075 303.275 109.847 302.64 110.664 302.049C112.842 300.415 115.066 298.782 114.521 297.829C114.329 297.458 114.044 297.141 113.694 296.91C113.345 296.681 112.942 296.543 112.524 296.512C111.344 296.377 110.119 297.102 109.03 298.464C108.871 298.653 108.645 298.773 108.399 298.798C108.154 298.823 107.908 298.752 107.714 298.6C107.538 298.444 107.426 298.225 107.401 297.991C107.376 297.756 107.439 297.52 107.578 297.33C109.075 295.469 110.891 294.561 112.661 294.696C113.381 294.753 114.075 294.99 114.678 295.386C115.281 295.784 115.774 296.327 116.11 296.966C117.426 299.281 114.794 301.233 111.753 303.501C110.981 304.092 110.119 304.682 109.348 305.362C108.576 306.044 107.305 306.634 106.443 306.634Z" fill="#282928"/>
<path d="M108.849 298.283C108.725 298.284 108.603 298.256 108.493 298.2C108.382 298.146 108.286 298.064 108.214 297.965C108.128 297.88 108.061 297.781 108.017 297.668C107.973 297.557 107.952 297.439 107.957 297.319C107.961 297.2 107.99 297.082 108.042 296.974C108.094 296.866 108.168 296.771 108.259 296.693C108.486 296.467 109.167 295.695 109.076 295.06C108.985 294.425 109.03 294.561 108.395 294.152C106.58 293.018 103.857 295.74 103.857 295.74C103.687 295.879 103.472 295.951 103.253 295.944C103.034 295.937 102.825 295.851 102.665 295.701C102.504 295.551 102.403 295.35 102.381 295.132C102.358 294.913 102.414 294.695 102.54 294.515C102.677 294.334 106.262 290.658 109.394 292.654C109.801 292.881 110.149 293.2 110.41 293.586C110.67 293.973 110.835 294.416 110.891 294.879C111.073 296.512 109.666 297.874 109.484 298.01C109.317 298.181 109.088 298.278 108.849 298.283Z" fill="#282928"/>
<path d="M106.398 292.973C106.168 292.963 105.949 292.87 105.782 292.712C105.616 292.553 105.512 292.339 105.49 292.11C105.445 291.066 105.036 290.84 104.9 290.748C104.038 290.249 102.041 291.021 101.224 291.475C101.011 291.576 100.768 291.597 100.542 291.53C100.315 291.463 100.122 291.313 99.9986 291.112C99.8854 290.901 99.86 290.655 99.928 290.425C99.996 290.194 100.152 290.001 100.362 289.887C100.725 289.659 103.766 288.071 105.808 289.16C106.443 289.524 107.215 290.296 107.306 292.02C107.318 292.137 107.306 292.255 107.272 292.367C107.237 292.48 107.179 292.583 107.103 292.673C107.026 292.762 106.932 292.834 106.827 292.885C106.721 292.938 106.606 292.966 106.489 292.973H106.398Z" fill="#282928"/>
<path d="M98.7283 296.695H98.4106C96.5952 296.512 94.0082 294.789 92.8737 291.884C92.1476 290.158 91.5122 286.664 94.8706 282.761C99.6359 277.27 101.814 277.27 105.581 277.769C107.276 278.044 108.997 278.12 110.71 277.995C110.829 277.984 110.949 277.995 111.064 278.029C111.179 278.065 111.285 278.122 111.378 278.198C111.471 278.273 111.548 278.366 111.604 278.473C111.661 278.579 111.696 278.694 111.708 278.813C111.72 278.933 111.708 279.053 111.674 279.167C111.639 279.282 111.582 279.388 111.506 279.482C111.431 279.574 111.337 279.65 111.232 279.708C111.126 279.764 111.011 279.8 110.891 279.811C109.043 279.94 107.186 279.864 105.354 279.585C102.177 279.176 100.589 278.948 96.2322 283.942C93.6452 286.982 93.8722 289.569 94.553 291.202C95.2336 292.837 97.4576 294.789 98.5921 294.879C98.6976 294.906 98.8087 294.904 98.9127 294.871C99.0169 294.84 99.1101 294.779 99.1821 294.697C99.8629 293.653 99.5905 292.7 99.2275 291.611C98.8644 290.522 98.5014 289.205 99.4544 287.935C100.515 286.597 101.806 285.46 103.267 284.577C103.478 284.463 103.725 284.438 103.954 284.507C104.184 284.574 104.377 284.73 104.492 284.94C104.605 285.151 104.631 285.397 104.563 285.627C104.495 285.856 104.339 286.049 104.129 286.165C102.896 286.921 101.805 287.89 100.907 289.024C100.544 289.524 100.68 290.068 100.998 291.112C101.315 292.155 101.814 293.926 100.68 295.696C100.465 296.013 100.174 296.272 99.8327 296.447C99.4913 296.622 99.1115 296.706 98.7283 296.695Z" fill="#282928"/>
<path d="M230.978 158.59C227.665 158.59 223.852 157.909 219.495 156.502C219.274 156.42 219.091 156.257 218.982 156.048C218.873 155.839 218.846 155.596 218.905 155.368C218.937 155.251 218.991 155.142 219.066 155.048C219.141 154.954 219.235 154.876 219.342 154.821C219.448 154.765 219.565 154.733 219.687 154.725C219.807 154.718 219.927 154.736 220.04 154.778C229.662 157.864 236.469 157.41 240.235 153.371C249.676 143.341 238.466 114.522 238.331 114.249C238.287 114.136 238.267 114.016 238.27 113.895C238.274 113.774 238.302 113.655 238.354 113.545C238.404 113.435 238.477 113.336 238.566 113.254C238.655 113.173 238.761 113.11 238.875 113.069C239.098 112.991 239.343 112.999 239.561 113.091C239.78 113.183 239.955 113.354 240.054 113.569C240.508 114.794 251.764 143.749 241.552 154.596C239.056 157.273 235.516 158.59 230.978 158.59Z" fill="#282928"/>
<path d="M210.283 179.239H210.191C210.073 179.228 209.956 179.194 209.851 179.136C209.745 179.08 209.652 179.004 209.575 178.91C209.499 178.818 209.442 178.711 209.408 178.597C209.374 178.481 209.363 178.361 209.375 178.241L209.92 172.432C210.177 170.014 210.115 167.572 209.737 165.17L206.742 145.383C205.245 144.974 201.387 143.658 199.844 140.981C199.471 140.36 199.232 139.666 199.146 138.947C199.061 138.227 199.128 137.497 199.345 136.805C199.92 134.96 200.873 133.871 202.204 133.538C204.836 132.948 207.605 135.943 207.923 136.306C208.048 136.486 208.106 136.704 208.082 136.922C208.06 137.14 207.959 137.343 207.798 137.492C207.638 137.642 207.429 137.728 207.21 137.735C206.99 137.742 206.776 137.67 206.606 137.532C205.971 136.851 203.929 135.035 202.613 135.308C201.978 135.489 201.479 136.125 201.115 137.35C200.955 137.796 200.895 138.271 200.944 138.742C200.99 139.214 201.142 139.668 201.387 140.073C202.931 142.705 207.695 143.749 207.741 143.749L208.377 143.885L211.553 164.898C211.932 167.452 211.993 170.045 211.734 172.614L211.144 178.424C211.134 178.643 211.037 178.851 210.876 179.004C210.717 179.155 210.503 179.239 210.283 179.239Z" fill="#282928"/>
<path d="M233.677 128.795C234.39 128.651 234.791 127.659 234.573 126.577C234.354 125.496 233.601 124.736 232.888 124.88C232.175 125.024 231.774 126.017 231.992 127.098C232.211 128.179 232.964 128.939 233.677 128.795Z" fill="#282928"/>
<path d="M219.553 132.163C220.264 132.019 220.665 131.026 220.448 129.945C220.23 128.864 219.475 128.104 218.763 128.248C218.051 128.392 217.65 129.385 217.868 130.466C218.085 131.547 218.84 132.307 219.553 132.163Z" fill="#282928"/>
<path d="M229.844 139.256C229.644 139.252 229.454 139.184 229.298 139.061C229.142 138.938 229.031 138.767 228.981 138.575C228.947 138.462 228.936 138.343 228.95 138.225C228.964 138.108 229.003 137.995 229.063 137.892C229.122 137.79 229.201 137.702 229.297 137.632C229.392 137.562 229.501 137.512 229.616 137.486C230.343 137.259 230.615 137.032 230.66 136.896C230.705 136.76 229.526 135.035 228.347 134.264C228.156 134.119 228.027 133.908 227.985 133.673C227.943 133.437 227.991 133.195 228.119 132.993C228.187 132.894 228.273 132.81 228.375 132.745C228.476 132.68 228.588 132.635 228.707 132.614C228.825 132.593 228.946 132.596 229.064 132.622C229.181 132.648 229.292 132.697 229.39 132.766C229.98 133.129 232.794 135.171 232.431 137.168C232.295 138.121 231.477 138.848 230.116 139.211L229.844 139.256Z" fill="#282928"/>
<path d="M238.103 176.199C237.95 176.205 237.797 176.171 237.663 176.099C237.527 176.027 237.412 175.921 237.332 175.79C234.245 170.619 232.237 164.876 231.432 158.908C231.407 158.666 231.481 158.426 231.633 158.238C231.786 158.051 232.008 157.933 232.248 157.909C232.49 157.884 232.73 157.958 232.917 158.111C233.105 158.263 233.223 158.485 233.247 158.725C234.016 164.421 235.93 169.903 238.875 174.837C238.995 175.049 239.028 175.299 238.969 175.536C238.909 175.771 238.763 175.977 238.557 176.108C238.418 176.182 238.26 176.213 238.103 176.199Z" fill="#282928"/>
<path d="M228.164 113.205C228.047 113.211 227.93 113.194 227.821 113.153C227.71 113.113 227.61 113.05 227.524 112.969C227.44 112.889 227.372 112.791 227.326 112.684C227.28 112.576 227.256 112.46 227.256 112.343C227.25 112.224 227.267 112.104 227.308 111.992C227.348 111.88 227.409 111.776 227.49 111.687C227.57 111.599 227.666 111.527 227.774 111.476C227.882 111.425 227.999 111.396 228.119 111.39L231.114 111.299C231.233 111.293 231.353 111.31 231.465 111.351C231.577 111.39 231.68 111.452 231.769 111.532C231.858 111.613 231.93 111.709 231.981 111.817C232.031 111.925 232.061 112.042 232.067 112.161C232.073 112.281 232.056 112.4 232.016 112.512C231.975 112.625 231.914 112.728 231.833 112.817C231.754 112.905 231.657 112.977 231.549 113.028C231.442 113.079 231.325 113.109 231.204 113.114L228.164 113.205Z" fill="#F9F9F9"/>
<path d="M220.222 119.241C274.728 120.603 255.441 90.604 236.696 98.6823C236.582 98.7413 236.455 98.7725 236.328 98.7732C236.198 98.774 236.072 98.7444 235.956 98.687C235.841 98.6294 235.741 98.5457 235.665 98.4424C235.588 98.339 235.538 98.2191 235.516 98.0923C234.927 94.5978 232.203 85.0671 220.539 93.7808C220.403 93.8876 220.236 93.9455 220.063 93.9455C219.89 93.9455 219.723 93.8876 219.586 93.7808C217.044 91.8746 205.382 83.9325 202.34 95.9139C202.256 96.2684 202.101 96.602 201.884 96.8956C201.669 97.1891 201.396 97.4362 201.084 97.6224C200.77 97.8087 200.423 97.9301 200.062 97.9797C199.7 98.0291 199.334 98.0057 198.981 97.9107C193.899 96.5493 183.824 95.5054 183.96 109.121C184.096 122.736 194.897 135.988 199.572 140.98C200.117 141.57 199.708 139.8 199.663 139.029C199.6 138.416 199.697 137.798 199.944 137.233C200.19 136.669 200.579 136.178 201.07 135.807C209.057 129.362 208.739 124.506 208.603 121.238C208.377 115.157 210.282 117.381 212.552 117.971C212.87 118.061 219.904 119.241 220.222 119.241Z" fill="#282928"/>
<path d="M247.725 110.845C247.595 110.847 247.469 110.814 247.358 110.75C247.246 110.686 247.154 110.594 247.09 110.482C247.009 110.313 246.998 110.12 247.057 109.942C247.116 109.764 247.241 109.617 247.407 109.529C248.269 109.121 250.494 107.668 250.447 106.216C250.402 104.764 248.814 104.083 247.497 103.493C247.344 103.41 247.227 103.27 247.174 103.104C247.12 102.938 247.132 102.757 247.209 102.599C247.285 102.441 247.418 102.319 247.581 102.257C247.745 102.196 247.926 102.199 248.088 102.268C250.494 103.357 251.764 104.673 251.809 106.171C251.854 108.712 248.405 110.573 248.043 110.755L247.725 110.845Z" fill="#F9F9F9"/>
<path d="M233.973 114.158C232.93 114.158 231.704 114.068 230.206 113.931C230.03 113.899 229.872 113.801 229.763 113.659C229.654 113.517 229.602 113.339 229.616 113.16C229.638 112.988 229.727 112.83 229.861 112.72C229.997 112.611 230.169 112.557 230.342 112.57C234.789 113.069 236.786 112.615 238.557 112.252C239.056 112.161 239.465 112.025 239.964 111.98C240.057 111.944 240.159 111.929 240.259 111.937C240.359 111.944 240.457 111.974 240.544 112.024C240.632 112.074 240.706 112.142 240.764 112.224C240.822 112.307 240.861 112.401 240.878 112.5C240.895 112.599 240.891 112.701 240.864 112.798C240.836 112.895 240.789 112.985 240.722 113.061C240.657 113.137 240.575 113.197 240.483 113.238C240.391 113.279 240.291 113.299 240.19 113.296L238.875 113.568C237.27 113.959 235.624 114.157 233.973 114.158Z" fill="#F9F9F9"/>
<path d="M221.266 99.227C221.075 99.2195 220.896 99.138 220.767 99.0001C220.648 98.8669 220.586 98.6925 220.593 98.5142C220.603 98.336 220.681 98.1682 220.812 98.047C223.534 95.5508 228.255 94.9154 228.435 94.9154C228.526 94.9028 228.616 94.9079 228.704 94.9309C228.791 94.9536 228.874 94.9937 228.946 95.0486C229.017 95.1036 229.078 95.1724 229.123 95.2507C229.167 95.3291 229.197 95.4157 229.208 95.5054C229.22 95.679 229.167 95.851 229.058 95.9859C228.947 96.121 228.79 96.209 228.618 96.2316C228.573 96.277 224.125 96.8216 221.72 99.0455C221.59 99.1508 221.431 99.2142 221.266 99.227Z" fill="#F9F9F9"/>
<path d="M190.314 118.334C190.162 118.332 190.014 118.283 189.893 118.193C189.771 118.104 189.68 117.978 189.632 117.834L188.588 114.067C188.56 113.981 188.551 113.89 188.559 113.8C188.567 113.709 188.591 113.621 188.634 113.541C188.676 113.46 188.733 113.389 188.804 113.332C188.874 113.274 188.955 113.231 189.042 113.205C189.127 113.178 189.214 113.168 189.301 113.176C189.389 113.184 189.473 113.21 189.551 113.253C189.627 113.296 189.694 113.354 189.747 113.424C189.8 113.494 189.84 113.574 189.86 113.659L190.949 117.471C190.977 117.555 190.986 117.643 190.978 117.73C190.969 117.818 190.944 117.903 190.9 117.979C190.858 118.056 190.8 118.123 190.73 118.176C190.66 118.229 190.58 118.268 190.495 118.288L190.314 118.334Z" fill="#F9F9F9"/>
<path d="M225.487 152.735C225.025 152.742 224.567 152.681 224.125 152.553C220.132 151.464 218.088 145.882 217.862 143.114C217.771 141.797 218.088 140.981 218.86 140.663C219.632 140.345 219.994 140.345 220.857 141.298C223.398 143.976 230.025 144.021 232.022 143.976C232.353 143.979 232.679 144.068 232.966 144.236C233.251 144.403 233.49 144.642 233.655 144.929C233.813 145.228 233.883 145.565 233.858 145.901C233.835 146.238 233.718 146.562 233.52 146.835C230.796 150.738 228.119 152.735 225.487 152.735ZM220.222 143.749C220.631 145.746 221.946 149.104 224.17 150.148C226.393 151.192 229.208 148.878 231.159 146.291H231.069C227.846 146.291 223.127 145.837 220.222 143.749Z" fill="#282928"/>
<path d="M228.345 123.735C228.06 123.718 227.788 123.607 227.574 123.417C227.359 123.211 227.236 122.929 227.226 122.632C227.219 122.335 227.326 122.046 227.529 121.828C230.751 118.334 234.881 120.104 236.65 121.511C236.767 121.606 236.863 121.723 236.934 121.856C237.005 121.989 237.05 122.134 237.064 122.283C237.078 122.433 237.064 122.584 237.02 122.728C236.976 122.872 236.905 123.006 236.81 123.122C236.714 123.238 236.597 123.334 236.465 123.405C236.332 123.476 236.187 123.52 236.037 123.535C235.888 123.55 235.736 123.535 235.593 123.491C235.449 123.448 235.315 123.376 235.198 123.281C234.881 123.008 231.704 120.648 229.208 123.372C228.98 123.602 228.669 123.732 228.345 123.735Z" fill="#282928"/>
<path d="M213.188 128.273C212.957 128.266 212.734 128.187 212.552 128.046C212.427 127.968 212.319 127.865 212.235 127.744C212.151 127.623 212.093 127.486 212.063 127.342C212.034 127.198 212.034 127.049 212.063 126.905C212.091 126.761 212.151 126.624 212.235 126.503C215.411 121.647 219.994 122.827 220.222 122.872C220.378 122.897 220.529 122.955 220.662 123.042C220.795 123.13 220.909 123.243 220.994 123.377C221.08 123.51 221.138 123.661 221.161 123.818C221.186 123.975 221.177 124.135 221.136 124.289C221.094 124.442 221.021 124.585 220.921 124.708C220.82 124.832 220.695 124.932 220.553 125.004C220.411 125.076 220.256 125.117 220.097 125.125C219.938 125.133 219.781 125.108 219.632 125.051C219.495 125.051 216.364 124.324 214.14 127.728C214.041 127.892 213.901 128.028 213.734 128.123C213.567 128.219 213.38 128.27 213.188 128.273Z" fill="#282928"/>
<path d="M119.604 283.079C119.604 283.079 149.331 257.391 155.821 247.316C156.958 245.581 158.423 244.087 160.132 242.914C166.85 238.238 182.462 227.166 188.27 220.947L175.926 203.702C175.926 203.702 152.644 227.528 147.788 234.427C143.885 239.919 131.677 242.778 114.158 274.909L111.299 278.677" fill="#F9F9F9"/>
<path d="M119.604 283.987C119.475 283.983 119.349 283.953 119.231 283.898C119.114 283.844 119.01 283.766 118.924 283.669C118.769 283.488 118.692 283.252 118.709 283.015C118.726 282.777 118.836 282.555 119.014 282.398C119.332 282.126 148.696 256.665 155.05 246.817C156.262 244.992 157.8 243.408 159.588 242.142C165.897 237.785 180.965 227.166 187.091 220.857L175.79 205.109C171.751 209.283 152.826 228.89 148.514 234.972C147.38 236.56 145.655 237.877 143.522 239.601C137.622 244.231 127.728 251.945 114.975 275.364L114.884 275.499L112.025 279.221C111.955 279.318 111.864 279.399 111.76 279.46C111.656 279.521 111.54 279.558 111.42 279.571C111.3 279.583 111.179 279.571 111.065 279.535C110.95 279.498 110.844 279.438 110.755 279.357C110.562 279.214 110.435 278.998 110.401 278.76C110.367 278.521 110.429 278.279 110.573 278.087L113.432 274.41C126.321 250.72 136.397 242.869 142.387 238.148C144.52 236.47 146.064 235.289 147.017 233.928C151.918 227.03 174.293 204.065 175.246 203.067L176.018 202.295L189.406 221.038L188.907 221.583C183.052 227.891 167.166 239.101 160.632 243.639C159.033 244.763 157.661 246.179 156.593 247.815C150.103 257.89 121.42 282.716 120.194 283.759C120.029 283.9 119.821 283.981 119.604 283.987Z" fill="#282928"/>
<path d="M115.656 298.509C115.543 298.512 115.431 298.49 115.329 298.444C115.227 298.395 115.137 298.325 115.066 298.238C114.975 298.16 114.901 298.065 114.849 297.957C114.797 297.849 114.768 297.731 114.764 297.612C114.76 297.492 114.78 297.374 114.824 297.263C114.869 297.15 114.935 297.051 115.021 296.966C116.423 295.356 117.501 293.492 118.198 291.475C118.229 291.358 118.284 291.249 118.358 291.152C118.432 291.057 118.525 290.978 118.631 290.918C118.737 290.859 118.853 290.822 118.974 290.807C119.094 290.795 119.216 290.804 119.332 290.84C119.56 290.912 119.75 291.073 119.861 291.285C119.971 291.499 119.993 291.745 119.922 291.974C119.174 294.274 117.953 296.392 116.337 298.193C116.257 298.295 116.154 298.378 116.035 298.433C115.917 298.489 115.787 298.515 115.656 298.509Z" fill="#282928"/>
<path d="M369.62 272.849L376.713 274.605L401.433 174.714L394.341 172.959L369.62 272.849Z" fill="#F9F9F9"/>
<path d="M377.206 275.908L368.357 273.73L393.454 172.068L402.258 174.247L377.206 275.908ZM370.534 272.414L375.845 273.73L400.079 175.563L394.769 174.247L370.534 272.414Z" fill="#282928"/>
<path d="M349.307 170.762L439.819 194.089C442.371 194.747 444.974 193.212 445.633 190.659L457.684 143.902C458.34 141.349 456.805 138.746 454.252 138.088L363.74 114.761C361.188 114.103 358.585 115.639 357.928 118.192L345.877 164.948C345.219 167.502 346.755 170.104 349.307 170.762Z" fill="#282928"/>
<path d="M387.69 190.041C387.69 190.041 394.497 189.632 395.042 198.12C395.586 206.606 389.913 196.53 386.691 195.396C383.468 194.262 387.69 190.041 387.69 190.041Z" fill="#F9F9F9"/>
<path d="M396.358 194.398C396.358 194.398 384.92 199.799 384.785 201.023C384.649 202.249 384.285 202.749 383.605 205.335C382.924 207.922 380.473 209.92 380.382 211.463C380.292 213.006 391.956 215.411 392.772 213.641C393.589 211.872 392.864 211.235 392.864 211.235C392.864 211.235 397.946 208.83 396.903 206.561C396.903 206.561 399.898 200.978 397.765 200.207C397.765 200.207 399.216 194.488 396.358 194.398Z" fill="#F9F9F9"/>
<path d="M391.094 215.275H390.276L387.236 215.048C383.468 214.867 380.202 214.684 379.974 212.052C379.921 211.332 380.041 210.609 380.325 209.946C380.609 209.283 381.049 208.697 381.609 208.24C383.014 207.151 385.011 206.925 387.281 207.605C387.509 207.678 387.699 207.837 387.81 208.051C387.921 208.263 387.942 208.511 387.871 208.739C387.839 208.856 387.785 208.967 387.712 209.062C387.637 209.157 387.543 209.237 387.439 209.296C387.332 209.355 387.215 209.393 387.095 209.407C386.975 209.421 386.852 209.41 386.737 209.375C385.058 208.829 383.651 208.921 382.743 209.647C382.411 209.918 382.15 210.268 381.985 210.664C381.818 211.059 381.752 211.489 381.79 211.917C381.88 212.96 384.649 213.096 387.326 213.232L390.459 213.459C391.548 213.55 392.318 213.414 392.591 213.051C392.863 212.687 392.636 211.734 392.455 211.372L391.956 210.236L393.181 210.101C394.452 209.92 395.313 209.511 395.767 208.739C396.221 207.968 396.04 205.425 396.04 205.38L395.767 204.519L396.63 204.246C397.493 203.975 397.992 203.566 398.218 202.975C398.446 202.385 397.811 200.252 397.447 199.753L396.948 199.026L397.674 198.482C397.822 198.402 397.947 198.285 398.034 198.142C398.121 197.998 398.17 197.833 398.173 197.666C398.31 196.485 396.948 194.716 396.449 194.217C396.362 194.129 396.293 194.027 396.246 193.914C396.199 193.802 396.176 193.68 396.176 193.559C396.176 193.435 396.199 193.315 396.246 193.201C396.293 193.089 396.362 192.986 396.449 192.9C396.535 192.814 396.638 192.746 396.75 192.699C396.864 192.652 396.984 192.627 397.107 192.627C397.229 192.627 397.351 192.652 397.463 192.699C397.575 192.746 397.678 192.814 397.764 192.9C397.992 193.173 400.215 195.577 399.989 197.802C399.94 198.37 399.719 198.908 399.354 199.345C399.808 200.298 400.488 201.976 399.943 203.521C399.773 203.987 399.508 204.415 399.165 204.773C398.82 205.134 398.405 205.418 397.947 205.608C398.128 206.606 398.218 208.285 397.312 209.692C396.643 210.684 395.619 211.383 394.452 211.644C394.547 212.052 394.561 212.475 394.491 212.888C394.421 213.3 394.268 213.697 394.044 214.049C393.499 214.867 392.501 215.275 391.094 215.275Z" fill="#282928"/>
<path d="M386.237 209.238H386.102C385.875 209.238 383.969 208.875 383.197 207.424C382.879 206.878 382.652 205.971 383.197 204.7C384.694 201.341 389.732 202.43 389.914 202.476C390.028 202.497 390.137 202.543 390.234 202.607C390.331 202.672 390.413 202.755 390.477 202.853C390.541 202.95 390.583 203.059 390.604 203.174C390.624 203.288 390.621 203.407 390.594 203.521C390.551 203.753 390.416 203.961 390.221 204.096C390.026 204.232 389.785 204.287 389.551 204.246C389.46 204.201 385.738 203.474 384.875 205.425C384.559 206.152 384.74 206.471 384.785 206.561C384.83 206.652 386.147 207.424 386.375 207.469C386.615 207.486 386.838 207.6 386.995 207.783C387.153 207.965 387.231 208.204 387.214 208.444C387.195 208.684 387.083 208.909 386.899 209.067C386.716 209.224 386.479 209.302 386.237 209.283V209.238Z" fill="#282928"/>
<path d="M385.329 203.474C385.175 203.464 385.024 203.418 384.891 203.34C384.757 203.26 384.643 203.151 384.559 203.021C383.696 201.524 383.922 200.433 384.24 199.799C385.329 197.756 388.778 197.393 389.142 197.348C389.261 197.335 389.382 197.348 389.496 197.382C389.612 197.416 389.718 197.474 389.81 197.549C389.903 197.625 389.98 197.719 390.037 197.824C390.094 197.93 390.128 198.045 390.14 198.165C390.153 198.284 390.14 198.404 390.106 198.519C390.072 198.633 390.014 198.741 389.939 198.833C389.863 198.926 389.769 199.003 389.665 199.059C389.558 199.115 389.443 199.151 389.323 199.164C388.37 199.254 386.328 199.708 385.874 200.616C385.783 200.752 385.602 201.16 386.147 202.114C386.253 202.321 386.279 202.56 386.22 202.786C386.162 203.012 386.022 203.209 385.829 203.338C385.677 203.425 385.506 203.472 385.329 203.474Z" fill="#282928"/>
<path d="M392.955 202.568C392.657 202.569 392.363 202.507 392.092 202.385C390.186 201.524 389.686 199.889 389.323 198.71C388.961 197.529 388.824 197.167 388.234 196.939C386.858 196.493 385.412 196.309 383.968 196.395C383.849 196.401 383.73 196.384 383.617 196.343C383.504 196.303 383.401 196.242 383.312 196.161C383.225 196.081 383.152 195.984 383.102 195.877C383.05 195.769 383.021 195.652 383.014 195.532C383.002 195.415 383.014 195.298 383.049 195.186C383.085 195.073 383.141 194.969 383.217 194.88C383.294 194.791 383.389 194.718 383.493 194.666C383.599 194.615 383.715 194.585 383.832 194.579C385.538 194.496 387.247 194.726 388.869 195.261C390.321 195.805 390.73 197.122 391.048 198.211C391.367 199.299 391.683 200.207 392.817 200.707C393 200.797 393.181 200.707 393.454 200.524C393.725 200.343 395.223 197.574 394.724 195.215C394.225 192.855 393.136 191.222 389.278 190.177C382.924 188.408 381.699 189.451 379.294 191.584C377.927 192.81 376.436 193.889 374.846 194.807C374.743 194.869 374.628 194.91 374.509 194.925C374.389 194.941 374.267 194.931 374.152 194.897C374.038 194.863 373.93 194.804 373.838 194.726C373.746 194.648 373.673 194.552 373.62 194.443C373.503 194.237 373.472 193.995 373.531 193.766C373.59 193.537 373.736 193.34 373.938 193.219C375.434 192.373 376.834 191.368 378.114 190.222C380.972 187.681 382.788 186.456 389.777 188.408C394.769 189.769 396.131 193.036 396.494 194.852C397.174 197.892 395.995 200.797 394.588 201.931C394.132 202.324 393.555 202.549 392.955 202.568Z" fill="#282928"/>
<path d="M373.848 194.08L369.4 192.582C336.951 175.564 325.241 179.966 318.978 177.561C311.081 174.519 278.494 167.62 278.494 167.62L277.814 188.816C286.074 190.768 305.181 191.312 313.396 191.448C315.462 191.474 317.501 191.922 319.387 192.764C330.414 197.529 369.4 202.385 369.4 202.385" fill="#F9F9F9"/>
<path d="M369.4 203.293H369.264C367.675 203.067 330.052 198.346 319.023 193.58C317.245 192.811 315.334 192.395 313.396 192.356C305.407 192.219 285.984 191.674 277.588 189.677L276.861 189.496L277.633 166.486L278.677 166.714C280.039 167.031 311.445 173.703 319.296 176.698C320.839 177.288 322.79 177.469 325.513 177.651C333.138 178.241 345.846 179.194 369.717 191.766L374.119 193.264C374.236 193.293 374.345 193.348 374.439 193.423C374.534 193.499 374.611 193.593 374.667 193.699C374.723 193.807 374.754 193.924 374.762 194.044C374.77 194.164 374.753 194.286 374.71 194.398C374.67 194.512 374.606 194.616 374.525 194.707C374.444 194.796 374.344 194.867 374.235 194.919C374.124 194.969 374.005 194.998 373.885 195.002C373.763 195.006 373.643 194.986 373.529 194.942L368.946 193.399C345.347 181.01 332.865 180.057 325.377 179.467C322.608 179.239 320.43 179.104 318.66 178.422C311.716 175.745 285.031 169.935 279.357 168.711L278.722 188.089C287.299 189.905 305.726 190.404 313.396 190.54C315.582 190.576 317.741 191.039 319.75 191.902C330.551 196.576 369.127 201.432 369.491 201.477C369.609 201.488 369.723 201.524 369.826 201.58C369.931 201.638 370.021 201.716 370.093 201.809C370.166 201.903 370.218 202.011 370.247 202.125C370.277 202.24 370.282 202.36 370.263 202.476C370.25 202.697 370.155 202.905 369.995 203.057C369.834 203.209 369.62 203.293 369.4 203.293Z" fill="#282928"/>
<path d="M380.701 213.187H380.518C378.169 212.6 375.971 211.517 374.074 210.01C373.977 209.939 373.896 209.848 373.835 209.745C373.774 209.641 373.737 209.525 373.724 209.405C373.712 209.285 373.724 209.163 373.76 209.049C373.798 208.934 373.859 208.829 373.938 208.739C374.09 208.553 374.308 208.435 374.545 208.41C374.784 208.385 375.022 208.453 375.208 208.603C376.904 209.918 378.851 210.876 380.927 211.417C381.156 211.481 381.353 211.628 381.479 211.829C381.604 212.031 381.651 212.272 381.607 212.506C381.565 212.711 381.448 212.892 381.281 213.016C381.114 213.141 380.908 213.202 380.701 213.187Z" fill="#282928"/>
<path d="M175.065 206.333C174.679 205.828 174.402 205.251 174.246 204.636C174.091 204.022 174.06 203.38 174.158 202.753C174.255 202.126 174.478 201.526 174.814 200.987C175.149 200.448 175.589 199.983 176.108 199.618C178.921 197.621 183.142 193.989 188.952 187.364C191.584 184.414 200.706 179.467 205.335 177.333C206.049 176.998 206.825 176.814 207.613 176.79C208.402 176.767 209.187 176.906 209.92 177.197C214.23 179.058 225.214 181.281 239.781 166.667C241.053 165.443 253.307 160.95 279.312 163.99C280.299 164.101 281.22 164.55 281.914 165.262C282.608 165.973 283.035 166.903 283.124 167.894L284.712 188.679C284.79 189.732 284.483 190.776 283.848 191.62C283.215 192.462 282.296 193.047 281.263 193.264L275.863 194.262C275.281 194.376 274.757 194.687 274.377 195.14C273.997 195.594 273.785 196.165 273.775 196.758C273.412 208.422 272.232 265.56 280.99 266.15C284.439 266.378 255.893 286.937 224.442 276.588C224.442 276.588 226.893 266.604 222.99 256.257C219.54 247.088 205.653 223.717 202.521 218.542C202.447 218.417 202.344 218.311 202.223 218.232C202.101 218.152 201.962 218.101 201.817 218.083C201.672 218.066 201.525 218.082 201.388 218.13C201.251 218.179 201.126 218.257 201.023 218.361L195.351 224.033C194.874 224.503 194.301 224.865 193.674 225.099C193.047 225.331 192.378 225.429 191.71 225.387C191.042 225.344 190.39 225.161 189.797 224.849C189.205 224.539 188.685 224.105 188.27 223.579L175.065 206.333Z" fill="#3474C9"/>
<path d="M243.095 280.039C234.129 280.02 225.203 278.83 216.545 276.497C216.428 276.466 216.319 276.412 216.224 276.338C216.127 276.263 216.047 276.17 215.988 276.065C215.929 275.959 215.891 275.842 215.879 275.722C215.865 275.602 215.876 275.48 215.91 275.363C215.94 275.246 215.994 275.139 216.071 275.044C216.146 274.95 216.239 274.872 216.347 274.817C216.453 274.761 216.57 274.728 216.692 274.721C216.812 274.713 216.932 274.732 217.044 274.774C217.182 274.774 230.479 278.722 246.137 278.178C266.967 277.451 281.945 269.599 290.612 254.804C290.673 254.698 290.754 254.606 290.853 254.531C290.951 254.458 291.062 254.405 291.18 254.375C291.299 254.345 291.422 254.339 291.544 254.359C291.664 254.378 291.779 254.422 291.884 254.486C292.077 254.617 292.216 254.813 292.275 255.04C292.333 255.264 292.308 255.505 292.2 255.712C283.305 270.871 267.376 279.266 246.137 279.992L243.095 280.039Z" fill="#282928"/>
<path d="M270.326 105.989C270.186 105.986 270.047 105.952 269.922 105.889C269.797 105.826 269.687 105.736 269.599 105.626C269.527 105.531 269.476 105.422 269.446 105.307C269.417 105.191 269.41 105.071 269.428 104.953C269.445 104.835 269.484 104.721 269.545 104.619C269.605 104.516 269.687 104.427 269.782 104.355L319.114 65.6878C319.302 65.563 319.53 65.513 319.753 65.5475C319.978 65.5821 320.179 65.6988 320.321 65.8748C320.463 66.0508 320.535 66.2732 320.521 66.499C320.508 66.7245 320.41 66.937 320.248 67.0947L270.871 105.808C270.719 105.936 270.524 106.001 270.326 105.989Z" fill="#282928"/>
<path d="M288.026 111.072C287.811 111.07 287.605 110.991 287.441 110.85C287.279 110.709 287.173 110.515 287.14 110.303C287.107 110.09 287.151 109.873 287.263 109.69C287.375 109.507 287.55 109.369 287.753 109.302L337.132 91.7386C337.355 91.6651 337.596 91.6807 337.809 91.7822C338.021 91.8838 338.185 92.0633 338.266 92.2831C338.309 92.3962 338.33 92.5168 338.325 92.6379C338.322 92.7589 338.294 92.878 338.242 92.9879C338.192 93.0979 338.119 93.1965 338.03 93.2781C337.941 93.3599 337.835 93.4227 337.721 93.4631L288.344 111.027L288.026 111.072Z" fill="#282928"/>
<path d="M318.75 141.253H318.66L278.087 137.441C277.953 137.459 277.816 137.447 277.688 137.405C277.558 137.364 277.44 137.294 277.341 137.201C277.243 137.108 277.167 136.995 277.118 136.868C277.07 136.742 277.05 136.607 277.061 136.472C277.07 136.337 277.111 136.206 277.179 136.088C277.246 135.971 277.338 135.871 277.451 135.794C277.561 135.717 277.689 135.666 277.822 135.645C277.956 135.624 278.093 135.632 278.223 135.671L318.842 139.483C318.959 139.489 319.075 139.518 319.179 139.57C319.285 139.621 319.379 139.694 319.455 139.783C319.532 139.872 319.589 139.976 319.625 140.089C319.66 140.201 319.671 140.319 319.658 140.436C319.653 140.549 319.625 140.66 319.575 140.763C319.527 140.865 319.458 140.957 319.374 141.033C319.29 141.109 319.192 141.167 319.084 141.205C318.978 141.243 318.864 141.259 318.75 141.253Z" fill="#282928"/>
<path d="M369.4 202.385C369.4 202.385 372.849 207.878 374.62 209.283L369.4 202.385Z" fill="#F9F9F9"/>
<path d="M374.618 210.191C374.416 210.186 374.222 210.105 374.074 209.965C372.26 208.513 368.991 203.429 368.628 202.884C368.505 202.678 368.464 202.432 368.514 202.196C368.566 201.961 368.703 201.752 368.901 201.614C368.998 201.547 369.107 201.502 369.222 201.48C369.339 201.458 369.458 201.46 369.572 201.485C369.687 201.511 369.795 201.56 369.89 201.628C369.985 201.697 370.066 201.786 370.126 201.886C371.079 203.383 373.848 207.469 375.21 208.558C375.395 208.709 375.514 208.928 375.539 209.165C375.564 209.403 375.495 209.642 375.345 209.828C375.258 209.938 375.149 210.029 375.022 210.091C374.898 210.154 374.759 210.188 374.618 210.191Z" fill="#282928"/>
<path d="M291.339 341.943L272.958 341.76C272.359 341.759 271.766 341.631 271.222 341.381C270.676 341.133 270.189 340.773 269.794 340.322C269.398 339.871 269.105 339.341 268.93 338.766C268.755 338.194 268.705 337.59 268.783 336.994L271.415 316.891C271.548 315.875 272.044 314.942 272.811 314.267C273.579 313.59 274.568 313.217 275.591 313.214H288.751C289.775 313.217 290.762 313.59 291.531 314.267C292.299 314.942 292.795 315.875 292.927 316.891L295.559 337.132C295.637 337.732 295.586 338.342 295.409 338.921C295.232 339.5 294.934 340.035 294.536 340.489C294.136 340.944 293.645 341.309 293.093 341.56C292.542 341.81 291.945 341.941 291.339 341.943Z" fill="#F9F9F9"/>
<path d="M291.339 342.849H291.294L272.958 342.668C272.225 342.674 271.499 342.52 270.832 342.214C270.165 341.908 269.574 341.459 269.1 340.897C268.626 340.347 268.273 339.704 268.061 339.008C267.85 338.313 267.786 337.581 267.875 336.859L270.507 316.799C270.663 315.56 271.264 314.42 272.2 313.593C273.136 312.764 274.342 312.307 275.591 312.306H288.753C290.004 312.298 291.215 312.752 292.154 313.58C293.091 314.41 293.69 315.555 293.835 316.799L296.467 337.041C296.556 337.773 296.489 338.515 296.27 339.219C296.051 339.922 295.685 340.573 295.197 341.125C294.714 341.67 294.119 342.106 293.453 342.403C292.789 342.701 292.068 342.852 291.339 342.849ZM291.339 341.035C291.814 341.032 292.28 340.929 292.712 340.732C293.143 340.536 293.528 340.25 293.84 339.894C294.154 339.539 294.388 339.121 294.528 338.668C294.667 338.214 294.71 337.738 294.653 337.267L292.065 317.026C291.965 316.22 291.572 315.479 290.962 314.944C290.35 314.407 289.564 314.115 288.753 314.122H275.591C274.783 314.117 274.003 314.41 273.399 314.947C272.796 315.483 272.413 316.224 272.323 317.026L269.691 337.086C269.621 337.554 269.654 338.032 269.786 338.487C269.921 338.941 270.15 339.361 270.462 339.718C270.774 340.075 271.158 340.361 271.588 340.556C272.019 340.752 272.485 340.852 272.958 340.852L291.339 341.035Z" fill="#282928"/>
<path d="M275.59 314.122H275.499C275.259 314.078 275.044 313.947 274.892 313.755C274.743 313.562 274.668 313.321 274.683 313.078C274.819 312.034 275.998 302.64 279.585 300.415C279.994 300.142 280.463 299.971 280.953 299.915C281.441 299.86 281.937 299.922 282.397 300.097C287.708 301.913 289.569 312.579 289.614 313.033C289.641 313.148 289.642 313.27 289.619 313.387C289.595 313.504 289.549 313.616 289.48 313.714C289.413 313.813 289.324 313.895 289.222 313.958C289.12 314.02 289.006 314.061 288.889 314.076C288.653 314.115 288.413 314.062 288.218 313.927C288.023 313.791 287.889 313.583 287.843 313.349C287.389 310.582 285.393 303.047 281.808 301.777C281.597 301.704 281.371 301.682 281.151 301.715C280.93 301.746 280.719 301.83 280.538 301.958C278.404 303.275 276.952 309.629 276.498 313.304C276.476 313.529 276.37 313.738 276.203 313.889C276.034 314.039 275.816 314.123 275.59 314.122Z" fill="#282928"/>
<path d="M282.262 329.416C285.57 329.416 288.252 328.157 288.252 326.602C288.252 325.048 285.57 323.789 282.262 323.789C278.953 323.789 276.271 325.048 276.271 326.602C276.271 328.157 278.953 329.416 282.262 329.416Z" fill="#3474C9"/>
<path d="M281.808 356.738C275.388 356.747 269.109 354.85 263.768 351.29C258.425 347.73 254.26 342.665 251.796 336.737C249.333 330.809 248.684 324.282 249.931 317.984C251.177 311.686 254.264 305.9 258.801 301.358C263.337 296.815 269.12 293.72 275.415 292.464C281.711 291.208 288.238 291.849 294.171 294.303C300.102 296.759 305.173 300.918 308.741 306.254C312.309 311.593 314.212 317.867 314.212 324.288C314.201 332.882 310.785 341.122 304.712 347.204C298.639 353.285 290.403 356.713 281.808 356.738ZM281.808 293.698C275.746 293.69 269.816 295.479 264.771 298.843C259.728 302.205 255.793 306.989 253.469 312.588C251.144 318.188 250.534 324.352 251.715 330.299C252.895 336.245 255.813 341.707 260.1 345.994C264.389 350.282 269.85 353.199 275.797 354.38C281.744 355.561 287.907 354.951 293.508 352.627C299.107 350.303 303.891 346.368 307.253 341.325C310.616 336.28 312.406 330.35 312.398 324.288C312.385 316.179 309.159 308.406 303.425 302.671C297.69 296.937 289.917 293.71 281.808 293.698Z" fill="#282928"/>
<path d="M237.649 309.947H173.204C172.963 309.947 172.733 309.85 172.561 309.68C172.391 309.51 172.296 309.279 172.296 309.039C172.296 308.797 172.391 308.566 172.561 308.396C172.733 308.226 172.963 308.131 173.204 308.131H237.649C237.889 308.131 238.12 308.226 238.292 308.396C238.462 308.566 238.557 308.797 238.557 309.039C238.557 309.279 238.462 309.51 238.292 309.68C238.12 309.85 237.889 309.947 237.649 309.947Z" fill="#282928"/>
<path d="M228.844 324.288H181.554C181.314 324.288 181.083 324.191 180.913 324.021C180.742 323.851 180.646 323.62 180.646 323.38C180.646 323.14 180.742 322.909 180.913 322.737C181.083 322.567 181.314 322.472 181.554 322.472H228.844C229.086 322.472 229.317 322.567 229.487 322.737C229.657 322.909 229.752 323.14 229.752 323.38C229.752 323.62 229.657 323.851 229.487 324.021C229.317 324.191 229.086 324.288 228.844 324.288Z" fill="#282928"/>
<path d="M238.557 340.536H176.018C175.776 340.536 175.545 340.439 175.375 340.269C175.205 340.099 175.11 339.868 175.11 339.628C175.11 339.387 175.205 339.157 175.375 338.985C175.545 338.815 175.776 338.72 176.018 338.72H238.557C238.797 338.72 239.028 338.815 239.199 338.985C239.369 339.157 239.465 339.387 239.465 339.628C239.465 339.868 239.369 340.099 239.199 340.269C239.028 340.439 238.797 340.536 238.557 340.536Z" fill="#282928"/>
</svg>
