<svg width="547" height="547" viewBox="0 0 547 547" fill="none" xmlns="http://www.w3.org/2000/svg">
<path d="M224.235 68.4705H86.2077C85.011 68.4705 84.041 69.4405 84.041 70.6369V152.479C84.041 153.676 85.011 154.646 86.2077 154.646H224.235C225.433 154.646 226.403 153.676 226.403 152.479V70.6369C226.403 69.4405 225.433 68.4705 224.235 68.4705Z" fill="black"/>
<path d="M224.235 155.757H86.2646C85.3823 155.758 84.5351 155.411 83.9061 154.792C83.2769 154.174 82.9158 153.333 82.9009 152.451V70.6369C82.9158 69.7547 83.2769 68.9136 83.9061 68.2952C84.5351 67.6765 85.3823 67.3301 86.2646 67.3301H224.235C225.113 67.3301 225.955 67.6785 226.575 68.2986C227.195 68.9187 227.543 69.7598 227.543 70.6369V152.451C227.543 153.328 227.195 154.169 226.575 154.789C225.955 155.409 225.113 155.757 224.235 155.757ZM86.2646 69.6107C85.9869 69.6103 85.7198 69.7166 85.5181 69.9075C85.3166 70.0984 85.1959 70.3595 85.1813 70.6369V152.451C85.1959 152.728 85.3166 152.989 85.5181 153.18C85.7198 153.371 85.9869 153.477 86.2646 153.477H224.235C224.509 153.477 224.77 153.369 224.961 153.176C225.154 152.984 225.262 152.723 225.262 152.451V70.6369C225.262 70.5021 225.236 70.3687 225.184 70.2441C225.133 70.1196 225.058 70.0065 224.961 69.9112C224.866 69.816 224.753 69.7403 224.629 69.6887C224.505 69.6371 224.37 69.6107 224.235 69.6107H86.2646Z" fill="black"/>
<path d="M196.072 343.388H173.267V398.433H196.072V343.388Z" fill="#3474C9"/>
<path d="M309.071 298.518H284.555V398.473H309.071V298.518Z" fill="#3474C9"/>
<path d="M176.459 423.604L139.059 504.336C138.931 504.6 138.874 504.894 138.893 505.187C138.912 505.481 139.006 505.763 139.166 506.011C139.327 506.258 139.548 506.458 139.809 506.593C140.07 506.73 140.361 506.795 140.655 506.786H147.611C147.926 506.792 148.237 506.71 148.509 506.547C148.781 506.387 149.002 506.154 149.15 505.875L191.397 423.604H176.459Z" fill="#3474C9"/>
<path d="M265.913 423.604L303.029 503.88C303.157 504.144 303.213 504.438 303.195 504.731C303.175 505.025 303.082 505.308 302.922 505.554C302.761 505.802 302.539 506.002 302.278 506.137C302.017 506.274 301.725 506.34 301.432 506.33H294.306C293.989 506.336 293.679 506.252 293.407 506.092C293.136 505.931 292.913 505.698 292.766 505.419L250.805 423.604H265.913Z" fill="#3474C9"/>
<path d="M216.882 423.604L221.101 505.59C221.13 506.039 221.329 506.46 221.657 506.766C221.985 507.073 222.417 507.244 222.868 507.242C223.307 507.229 223.727 507.053 224.042 506.746C224.359 506.442 224.551 506.028 224.578 505.59L228.682 423.435L216.882 423.604Z" fill="#3474C9"/>
<path d="M393.109 424.746H51.6001V222.292H382.617L383.986 259.008L393.109 424.746ZM53.8805 422.465H390.656L381.705 259.121L380.395 224.573H53.8805V422.465Z" fill="black"/>
<path d="M335.639 147.319H335.468C317.51 147.205 315.342 123.317 315.342 123.089C315.327 122.939 315.342 122.788 315.386 122.644C315.429 122.5 315.501 122.366 315.595 122.249C315.692 122.133 315.809 122.036 315.942 121.965C316.073 121.894 316.219 121.85 316.368 121.835C316.518 121.819 316.669 121.834 316.813 121.878C316.957 121.921 317.092 121.993 317.209 122.088C317.326 122.183 317.422 122.3 317.493 122.433C317.565 122.566 317.608 122.711 317.623 122.861C317.623 123.089 319.619 144.925 335.468 145.039H335.639C352.516 145.039 353.256 123.83 353.313 122.918C353.313 122.771 353.344 122.625 353.4 122.49C353.459 122.354 353.544 122.232 353.65 122.131C353.758 122.03 353.884 121.951 354.022 121.9C354.159 121.849 354.307 121.827 354.454 121.835C354.761 121.849 355.05 121.982 355.264 122.205C355.475 122.428 355.594 122.724 355.594 123.032C355.594 123.26 354.739 147.319 335.639 147.319Z" fill="black"/>
<path d="M346.643 101.481C343.392 102.336 335.924 103.99 332.618 101.823C332.308 101.622 331.956 101.496 331.59 101.456C331.223 101.416 330.853 101.464 330.508 101.595C328.171 102.621 322.81 104.503 318.307 102.564C318.166 102.502 318.013 102.471 317.858 102.476C317.703 102.481 317.552 102.52 317.415 102.591C317.278 102.662 317.16 102.764 317.067 102.887C316.974 103.011 316.912 103.154 316.883 103.306C316.255 106.384 313.063 116.533 307.531 113.226C300.861 109.235 296.242 99.5997 305.024 94.3545C305.992 93.7843 310.326 92.7011 310.382 91.6178C310.725 87.684 310.838 77.7638 320.132 80.8425C321.386 81.2414 323.153 80.8425 323.324 79.5882C324.008 74.5141 333.415 63.5104 343.963 75.1411C343.963 75.1411 367.908 72.9746 359.984 89.3945C359.585 90.2496 360.041 91.3899 361.009 91.4468C369.447 91.9599 372.868 108.836 362.719 108.551C361.864 108.494 357.588 106.384 357.133 107.125C356.677 107.867 355.537 108.95 349.265 102.222C348.942 101.865 348.525 101.606 348.06 101.475C347.597 101.344 347.104 101.346 346.643 101.481Z" fill="black"/>
<path d="M309.699 115.05C308.707 115.024 307.742 114.728 306.905 114.195C302.23 111.344 299.038 106.441 299.038 101.937C299.038 99.4857 300.006 96.0649 304.453 93.3852C305.042 93.0923 305.651 92.8445 306.278 92.644C307.133 92.3019 308.843 91.7318 309.299 91.3328C309.29 91.122 309.308 90.9111 309.356 90.7056C309.584 87.6269 309.927 82.3817 313.291 80.1582C315.172 78.9039 317.566 78.7899 320.475 79.759C320.715 79.8418 320.972 79.8743 321.228 79.8548C321.481 79.8351 321.729 79.7638 321.957 79.6451C322.185 79.5311 322.185 79.474 322.185 79.417C322.641 76.2243 326.061 70.9221 331.307 69.3257C334.441 68.3564 339.175 68.4135 344.419 73.9437C346.986 73.7727 357.59 73.5447 361.41 78.961C363.29 81.7545 363.177 85.4033 361.011 89.9073C360.987 89.9832 360.982 90.0629 360.991 90.1415C361 90.22 361.027 90.2957 361.067 90.3635C366.654 90.6485 370.303 96.9771 370.075 102.45C369.905 107.011 367.053 109.805 362.663 109.691C361.855 109.582 361.066 109.351 360.325 109.007C359.514 108.654 358.675 108.368 357.818 108.152C357.632 108.42 357.397 108.649 357.122 108.826C356.848 109.002 356.542 109.121 356.221 109.178C354.795 109.292 353.085 107.981 348.41 102.963C348.224 102.768 347.987 102.627 347.724 102.557C347.463 102.487 347.188 102.489 346.927 102.564C342.88 103.648 335.583 105.13 331.991 102.792C331.843 102.689 331.675 102.619 331.497 102.59C331.32 102.56 331.137 102.571 330.964 102.621C328.171 103.876 322.754 105.643 317.966 103.648C317.738 104.731 315.856 112.713 311.58 114.651C310.98 114.892 310.344 115.027 309.699 115.05ZM316.939 81.4124C316.117 81.3953 315.305 81.6128 314.602 82.0397C312.149 83.6931 311.808 88.197 311.637 90.8766C311.58 91.1618 311.58 91.4468 311.522 91.7318C311.409 93.1002 309.699 93.8414 307.077 94.7536L305.651 95.3237C302.799 97.034 301.375 99.2576 301.317 101.937C301.317 105.643 304.112 109.862 308.101 112.256C308.47 112.521 308.898 112.687 309.347 112.737C309.797 112.787 310.251 112.719 310.667 112.542C313.291 111.344 315.229 105.7 315.741 103.135C315.82 102.815 315.96 102.513 316.155 102.249C316.352 101.984 316.598 101.762 316.883 101.595C317.171 101.445 317.49 101.362 317.816 101.352C318.142 101.342 318.465 101.405 318.764 101.538C322.925 103.306 327.999 101.424 330.052 100.569C330.567 100.347 331.126 100.257 331.684 100.307C332.242 100.356 332.778 100.544 333.245 100.854C335.24 102.222 340.143 101.994 346.3 100.341C346.968 100.165 347.67 100.173 348.331 100.364C348.993 100.554 349.593 100.921 350.064 101.424C353.256 104.788 355.194 106.612 355.937 106.84L356.164 106.555C356.905 105.301 358.73 105.928 361.124 106.84L362.778 107.41H363.006C366.997 107.41 367.737 104.275 367.795 102.336C367.965 98.0033 365.059 92.815 360.953 92.5871C360.566 92.5823 360.189 92.474 359.857 92.2735C359.527 92.0729 359.255 91.7876 359.071 91.4468C358.858 91.0666 358.737 90.6416 358.717 90.206C358.697 89.7704 358.779 89.3363 358.958 88.9382C360.725 85.2323 360.896 82.3246 359.528 80.2723C356.62 76.1102 347.327 75.9391 344.021 76.2814H343.45L343.108 75.8252C339.459 71.8343 335.639 70.295 331.991 71.4351C328.342 72.5755 324.807 77.0795 324.407 79.7021C324.371 80.0807 324.243 80.4446 324.035 80.7626C323.826 81.0806 323.543 81.3428 323.211 81.5266C322.697 81.8205 322.126 82.0028 321.536 82.0617C320.947 82.1208 320.352 82.055 319.789 81.8686C318.868 81.5716 317.907 81.4179 316.939 81.4124Z" fill="black"/>
<path d="M317.395 130.615C315.719 130.62 314.091 130.057 312.776 129.018C310.895 127.536 309.755 125.084 309.412 121.835C308.843 117.046 310.154 115.62 311.75 114.423C313.347 113.226 313.232 113.283 313.004 110.945C312.99 110.795 313.004 110.644 313.048 110.5C313.092 110.356 313.163 110.222 313.258 110.105C313.353 109.989 313.471 109.892 313.602 109.821C313.735 109.75 313.881 109.706 314.031 109.691C314.18 109.676 314.332 109.69 314.476 109.734C314.62 109.777 314.755 109.849 314.871 109.944C314.986 110.039 315.083 110.157 315.154 110.289C315.225 110.422 315.271 110.567 315.285 110.717C315.57 114.081 314.487 115.164 313.119 116.247C311.75 117.331 311.238 117.673 311.637 121.606C312.434 128.619 317.11 128.391 317.623 128.334C317.772 128.318 317.924 128.332 318.068 128.376C318.214 128.419 318.347 128.49 318.463 128.586C318.58 128.681 318.677 128.799 318.748 128.931C318.819 129.065 318.863 129.21 318.877 129.36C318.894 129.66 318.799 129.955 318.609 130.187C318.418 130.42 318.148 130.572 317.851 130.615H317.395Z" fill="black"/>
<path d="M354.511 128.676H354.339C354.19 128.662 354.044 128.618 353.911 128.547C353.778 128.476 353.661 128.38 353.564 128.263C353.47 128.146 353.399 128.012 353.355 127.868C353.313 127.723 353.298 127.572 353.315 127.422C353.32 127.274 353.358 127.13 353.422 126.997C353.488 126.864 353.579 126.746 353.69 126.65C353.803 126.554 353.933 126.482 354.075 126.438C354.215 126.394 354.365 126.38 354.511 126.396C354.739 126.396 358.958 126.567 359.757 119.383C360.212 115.392 359.129 114.252 358.046 113.055C356.963 111.857 355.652 110.489 355.993 107.011C356.024 106.709 356.174 106.431 356.409 106.238C356.644 106.046 356.945 105.955 357.248 105.985C357.55 106.015 357.827 106.164 358.021 106.4C358.214 106.635 358.303 106.937 358.274 107.239C357.99 109.691 358.73 110.432 359.7 111.515C360.668 112.598 362.55 114.594 362.038 119.668C361.067 128.22 355.594 128.676 354.511 128.676Z" fill="black"/>
<path d="M335.811 136.544C334.5 136.544 333.586 136.43 333.53 136.43C333.227 136.375 332.957 136.211 332.767 135.969C332.578 135.728 332.485 135.425 332.503 135.119C332.558 134.832 332.716 134.575 332.948 134.397C333.178 134.218 333.466 134.131 333.757 134.15C333.872 134.15 339.858 134.891 342.936 132.439C343.414 132.071 343.808 131.607 344.092 131.077C344.377 130.546 344.546 129.961 344.59 129.36C344.621 129.058 344.77 128.78 345.006 128.588C345.241 128.395 345.542 128.304 345.844 128.334C346.147 128.365 346.424 128.514 346.617 128.749C346.809 128.984 346.9 129.286 346.871 129.589C346.787 130.494 346.515 131.372 346.074 132.168C345.631 132.962 345.029 133.657 344.305 134.207C341.853 136.202 338.205 136.544 335.811 136.544Z" fill="black"/>
<path d="M350.747 161.915C346.072 161.915 343.622 148.916 342.994 144.925C342.943 144.63 343.013 144.328 343.182 144.083C343.354 143.838 343.613 143.669 343.906 143.613C344.056 143.589 344.211 143.595 344.356 143.631C344.504 143.667 344.645 143.732 344.767 143.822C344.889 143.913 344.991 144.026 345.069 144.157C345.146 144.288 345.197 144.432 345.217 144.583C346.53 152.622 349.095 159.634 350.747 159.634C351.05 159.634 351.34 159.754 351.555 159.968C351.768 160.182 351.889 160.472 351.889 160.775C351.889 161.077 351.768 161.367 351.555 161.581C351.34 161.794 351.05 161.915 350.747 161.915Z" fill="black"/>
<path d="M323.609 163.283C323.434 163.279 323.261 163.236 323.102 163.157C322.945 163.078 322.807 162.965 322.697 162.827C322.515 162.585 322.438 162.281 322.48 161.982C322.524 161.682 322.683 161.412 322.925 161.231C325.547 159.235 326.289 150.056 326.118 144.754C326.118 144.451 326.238 144.161 326.451 143.948C326.667 143.734 326.956 143.614 327.257 143.614C327.405 143.606 327.553 143.628 327.689 143.679C327.828 143.73 327.954 143.809 328.061 143.91C328.167 144.011 328.253 144.133 328.311 144.269C328.37 144.404 328.399 144.55 328.399 144.697C328.455 146.236 328.683 159.691 324.294 163.055C324.097 163.207 323.857 163.287 323.609 163.283Z" fill="black"/>
<path d="M327.544 116.989C328.236 116.989 328.798 116.146 328.798 115.107C328.798 114.068 328.236 113.226 327.544 113.226C326.851 113.226 326.289 114.068 326.289 115.107C326.289 116.146 326.851 116.989 327.544 116.989Z" fill="black"/>
<path d="M343.565 116.989C344.256 116.989 344.818 116.146 344.818 115.107C344.818 114.068 344.256 113.226 343.565 113.226C342.872 113.226 342.311 114.068 342.311 115.107C342.311 116.146 342.872 116.989 343.565 116.989Z" fill="black"/>
<path d="M324.01 112.257C323.671 112.244 323.348 112.111 323.098 111.881C322.849 111.652 322.69 111.342 322.648 111.005C322.606 110.669 322.686 110.329 322.874 110.046C323.06 109.764 323.341 109.557 323.667 109.463L329.938 107.809C330.301 107.704 330.691 107.746 331.023 107.928C331.354 108.11 331.601 108.416 331.706 108.779C331.794 109.149 331.737 109.539 331.546 109.867C331.354 110.197 331.045 110.439 330.68 110.546L324.408 112.199L324.01 112.257Z" fill="black"/>
<path d="M347.67 111.914H347.555L341.055 111.287C340.869 111.273 340.684 111.221 340.519 111.136C340.351 111.051 340.201 110.933 340.079 110.79C339.957 110.647 339.866 110.481 339.807 110.302C339.751 110.123 339.729 109.935 339.744 109.748C339.787 109.364 339.979 109.013 340.276 108.768C340.575 108.523 340.956 108.404 341.341 108.436L347.839 109.064C348.208 109.107 348.545 109.291 348.778 109.579C349.013 109.866 349.127 110.234 349.094 110.603C349.065 110.961 348.902 111.295 348.638 111.538C348.373 111.781 348.027 111.915 347.67 111.914Z" fill="black"/>
<path d="M334.328 126.624H334.215C332.39 126.51 331.65 125.654 331.42 124.97C330.68 123.089 332.846 120.694 333.473 120.01C333.688 119.79 333.98 119.661 334.288 119.65C334.596 119.64 334.897 119.748 335.127 119.953C335.238 120.055 335.326 120.178 335.386 120.315C335.446 120.453 335.477 120.601 335.477 120.751C335.477 120.901 335.446 121.05 335.386 121.187C335.326 121.325 335.238 121.448 335.127 121.549C334.157 122.576 333.473 123.83 333.53 124.172C333.807 124.265 334.095 124.322 334.385 124.343C334.688 124.351 334.976 124.478 335.183 124.697C335.391 124.916 335.504 125.209 335.497 125.512C335.49 125.814 335.362 126.101 335.143 126.31C334.925 126.518 334.631 126.631 334.328 126.624Z" fill="black"/>
<path d="M308.958 109.634H308.559C307.417 109.178 302.801 105.985 302.97 101.937C303 101.64 303.138 101.364 303.361 101.163C303.581 100.963 303.869 100.852 304.168 100.854C304.321 100.853 304.471 100.884 304.611 100.946C304.75 101.007 304.876 101.097 304.978 101.21C305.08 101.323 305.157 101.457 305.204 101.602C305.251 101.746 305.268 101.899 305.251 102.051C305.138 104.731 308.787 107.239 309.356 107.467C309.5 107.518 309.631 107.597 309.744 107.7C309.857 107.802 309.948 107.926 310.01 108.064C310.074 108.202 310.111 108.352 310.116 108.504C310.12 108.656 310.096 108.808 310.041 108.95C309.943 109.155 309.79 109.328 309.598 109.449C309.407 109.57 309.184 109.634 308.958 109.634Z" fill="black"/>
<path d="M363.405 105.358C363.213 105.361 363.024 105.315 362.854 105.225C362.685 105.136 362.541 105.005 362.435 104.845C362.351 104.718 362.293 104.576 362.265 104.426C362.236 104.277 362.238 104.123 362.271 103.974C362.302 103.826 362.364 103.685 362.449 103.56C362.537 103.435 362.648 103.329 362.778 103.248C363.746 102.564 364.145 100.227 364.203 99.2573C364.203 98.955 364.324 98.6649 364.537 98.451C364.75 98.2373 365.04 98.1172 365.343 98.1172C365.651 98.1318 365.941 98.2643 366.153 98.4873C366.366 98.7103 366.484 99.0066 366.483 99.3144C366.483 99.7706 366.255 103.647 364.032 105.13C363.852 105.27 363.633 105.35 363.405 105.358Z" fill="black"/>
<path d="M258.901 177.764C258.724 177.852 258.571 177.981 258.452 178.139C258.335 178.297 258.257 178.481 258.222 178.675C258.189 178.87 258.202 179.069 258.261 179.258C258.319 179.446 258.421 179.618 258.558 179.76C263.289 184.663 280.509 202.508 283.244 203.249C285.981 203.991 292.082 195.667 294.476 192.245C294.583 192.099 294.725 191.981 294.891 191.902C295.055 191.826 295.238 191.791 295.42 191.802C295.602 191.813 295.778 191.871 295.932 191.968C296.086 192.066 296.213 192.199 296.301 192.36C300.234 199.657 317.225 230.615 320.816 232.668C324.407 234.721 320.247 241.107 324.008 243.101C324.008 243.101 322.013 261.174 323.611 264.367C325.206 267.56 332.39 264.367 332.39 264.367C332.39 264.367 351.945 260.89 359.813 259.692C367.681 258.496 378.457 250.685 383.416 250.398C388.377 250.114 395.902 250.114 396.814 247.206C397.727 244.299 383.987 226.511 382.847 218.072L384.898 218.756C385.987 219.048 387.145 218.926 388.149 218.415C394.363 214.936 416.655 202.394 415.116 200.627C413.576 198.86 392.425 169.155 384.557 162.143C376.69 155.13 357.532 160.432 354.454 158.095L338.32 169.725C337.76 170.142 337.074 170.352 336.379 170.321C335.683 170.29 335.019 170.019 334.5 169.554C330.166 165.621 318.936 155.985 310.382 153.42C297.896 149.657 283.702 157.468 276.29 164.822C271.168 169.975 265.306 174.337 258.901 177.764Z" fill="black"/>
<path d="M326.574 266.932C324.922 266.932 323.324 266.42 322.584 264.881C321.043 261.745 322.356 247.891 322.812 243.672C320.987 242.246 321.215 239.909 321.386 238.027C321.558 236.145 321.614 234.435 320.247 233.636C316.711 231.585 303.142 207.355 295.331 193.044C286.495 205.302 283.815 204.56 282.959 204.332C280.279 203.592 267.736 190.99 257.703 180.558C257.453 180.284 257.267 179.957 257.159 179.602C257.05 179.247 257.023 178.873 257.075 178.506C257.132 178.126 257.281 177.766 257.509 177.458C257.739 177.15 258.04 176.902 258.386 176.738C264.684 173.368 270.448 169.083 275.491 164.024C283.758 155.757 298.295 148.631 310.725 152.337C319.448 154.959 330.793 164.651 335.24 168.699C335.574 168.975 335.987 169.135 336.418 169.156C336.85 169.177 337.277 169.056 337.636 168.813L354.454 156.67L355.138 157.183C355.937 157.81 359.642 157.582 362.893 157.411C370.133 157.012 379.995 156.499 385.354 161.287C390.715 166.077 405.424 185.69 412.152 194.754C414.09 197.378 415.629 199.429 416.028 199.885C416.17 200.047 416.271 200.24 416.32 200.448C416.369 200.658 416.367 200.875 416.313 201.083C416.2 201.938 415.744 204.39 388.718 219.383C387.444 220.069 385.95 220.233 384.557 219.839H384.386C385.64 224.173 389.345 230.387 392.425 235.518C396.529 242.359 398.468 245.782 397.897 247.605C396.872 250.913 390.656 251.253 385.241 251.481L383.472 251.596C381.365 251.711 377.773 253.534 373.953 255.416C370.133 257.298 364.317 260.263 359.984 260.89C352.572 262.029 334.441 265.222 332.731 265.508C330.785 266.362 328.698 266.845 326.574 266.932ZM295.389 190.706H295.502C295.88 190.721 296.246 190.834 296.565 191.034C296.886 191.235 297.149 191.514 297.327 191.847C309.584 214.424 319.277 230.444 321.386 231.642C323.496 232.84 323.839 235.974 323.667 238.198C323.496 240.421 323.496 241.562 324.579 242.131L325.206 242.474V243.273C324.466 250.114 323.609 261.745 324.694 263.855C325.777 265.964 330.052 264.196 331.991 263.34H332.275C332.447 263.284 351.945 259.807 359.698 258.665C363.689 258.038 368.651 255.588 373.039 253.421C377.43 251.253 380.851 249.487 383.416 249.315L385.185 249.202C388.662 249.031 395.218 248.746 395.789 246.921C396.358 245.096 392.937 240.764 390.487 236.66C386.724 230.331 382.389 223.09 381.762 218.3L381.534 216.534L385.298 217.673C385.691 217.804 386.107 217.852 386.519 217.814C386.931 217.773 387.331 217.649 387.692 217.445C404.054 208.323 412.493 202.736 413.975 200.968L410.383 196.18C403.713 187.171 389.801 168.357 383.872 163.055C379.255 158.893 369.905 159.406 363.062 159.748C358.786 159.976 356.164 160.09 354.626 159.52L339.06 170.752C338.274 171.309 337.322 171.584 336.359 171.532C335.397 171.48 334.48 171.105 333.757 170.467C329.425 166.533 318.421 157.069 310.154 154.56C298.582 151.139 284.954 157.924 277.145 165.678C271.945 170.927 265.986 175.366 259.469 178.848C259.455 178.848 259.44 178.854 259.429 178.864C259.418 178.875 259.413 178.89 259.413 178.905C259.398 178.905 259.384 178.911 259.373 178.921C259.362 178.932 259.356 178.946 259.356 178.962C259.356 178.977 259.362 178.991 259.373 179.002C259.384 179.013 259.398 179.019 259.413 179.019C272.24 192.36 281.933 201.71 283.643 202.222C284.442 202.337 287.862 199.657 293.62 191.676C293.821 191.39 294.085 191.153 294.392 190.985C294.698 190.817 295.039 190.722 295.389 190.706Z" fill="black"/>
<path d="M310.382 154.56C310.105 154.561 309.837 154.454 309.635 154.263C309.434 154.072 309.314 153.811 309.299 153.534C309.283 153.384 309.297 153.233 309.341 153.088C309.383 152.944 309.454 152.809 309.551 152.693C309.646 152.576 309.764 152.48 309.896 152.409C310.029 152.338 310.174 152.294 310.326 152.28L326.86 151.31C327.011 151.294 327.164 151.31 327.308 151.358C327.454 151.405 327.587 151.482 327.7 151.585C327.813 151.687 327.903 151.812 327.965 151.951C328.025 152.09 328.058 152.241 328.056 152.394C328.072 152.541 328.058 152.689 328.014 152.83C327.97 152.971 327.897 153.102 327.802 153.214C327.706 153.326 327.587 153.417 327.454 153.482C327.323 153.547 327.177 153.584 327.029 153.591L310.495 154.56H310.382Z" fill="black"/>
<path d="M357.703 159.862C357.543 159.885 357.379 159.844 357.248 159.748L346.187 154.446C345.917 154.322 345.708 154.097 345.6 153.82C345.494 153.544 345.5 153.236 345.616 152.964C345.751 152.691 345.987 152.479 346.273 152.373C346.559 152.267 346.875 152.275 347.155 152.394L358.216 157.696C358.352 157.763 358.473 157.855 358.571 157.969C358.672 158.083 358.746 158.215 358.794 158.358C358.843 158.502 358.861 158.653 358.85 158.803C358.839 158.954 358.797 159.101 358.73 159.235C358.639 159.429 358.495 159.593 358.311 159.704C358.128 159.816 357.917 159.871 357.703 159.862Z" fill="black"/>
<path d="M350.12 232.154C349.87 232.167 349.621 232.094 349.415 231.95C349.209 231.806 349.055 231.596 348.981 231.357C346.871 223.546 334.5 176.909 334.385 176.453C334.343 176.311 334.33 176.161 334.347 176.014C334.365 175.866 334.412 175.724 334.487 175.595C334.562 175.467 334.662 175.355 334.782 175.268C334.903 175.18 335.039 175.117 335.183 175.085C335.326 175.042 335.475 175.029 335.623 175.046C335.771 175.064 335.913 175.112 336.04 175.186C336.17 175.261 336.281 175.362 336.369 175.482C336.456 175.601 336.52 175.738 336.553 175.883C336.666 176.339 349.037 222.975 351.205 230.73C351.247 230.876 351.262 231.029 351.243 231.18C351.227 231.332 351.18 231.478 351.107 231.611C351.032 231.744 350.932 231.861 350.811 231.953C350.691 232.046 350.552 232.116 350.406 232.154H350.12Z" fill="black"/>
<path d="M358.216 226.852C357.942 226.855 357.674 226.759 357.465 226.582C357.255 226.403 357.118 226.155 357.076 225.884C356.392 220.011 349.436 201.766 344.876 189.679C341.684 181.356 340.201 177.308 340.086 176.282C340.063 176.135 340.068 175.985 340.105 175.841C340.141 175.697 340.207 175.562 340.298 175.444C340.389 175.326 340.504 175.229 340.633 175.157C340.765 175.085 340.907 175.041 341.056 175.028C341.206 175.012 341.357 175.026 341.501 175.069C341.645 175.112 341.78 175.184 341.897 175.279C342.014 175.375 342.11 175.492 342.181 175.625C342.252 175.758 342.296 175.904 342.309 176.054C342.424 176.909 344.647 182.725 346.984 188.883C351.889 201.825 358.615 219.498 359.357 225.599C359.381 225.745 359.375 225.894 359.339 226.039C359.302 226.184 359.237 226.319 359.146 226.436C359.054 226.555 358.94 226.651 358.81 226.724C358.679 226.795 358.535 226.839 358.387 226.852H358.216Z" fill="black"/>
<path d="M382.845 219.214C382.61 219.216 382.38 219.146 382.187 219.013C381.994 218.882 381.844 218.692 381.762 218.472C379.54 211.915 379.084 185.462 379.084 184.321C379.075 184.175 379.098 184.027 379.147 183.889C379.199 183.75 379.277 183.624 379.379 183.518C379.481 183.411 379.603 183.327 379.738 183.269C379.873 183.21 380.019 183.181 380.167 183.181H380.223C380.52 183.194 380.803 183.32 381.015 183.529C381.224 183.741 381.35 184.024 381.363 184.321C381.363 184.549 381.819 211.516 383.928 217.731C384.018 218.018 383.99 218.33 383.852 218.596C383.713 218.864 383.474 219.064 383.188 219.156L382.845 219.214Z" fill="black"/>
<path d="M339.745 183.181C340.564 183.181 341.228 182.517 341.228 181.698C341.228 180.88 340.564 180.216 339.745 180.216C338.927 180.216 338.263 180.88 338.263 181.698C338.263 182.517 338.927 183.181 339.745 183.181Z" fill="black"/>
<path d="M347.613 208.152C348.652 208.152 349.495 207.309 349.495 206.27C349.495 205.233 348.652 204.39 347.613 204.39C346.574 204.39 345.731 205.233 345.731 206.27C345.731 207.309 346.574 208.152 347.613 208.152Z" fill="black"/>
<path d="M393.964 250.285C393.964 250.285 410.498 271.095 411.067 310.661C411.637 350.23 415.229 380.561 415.229 380.561L458.731 427.938C460.288 429.612 461.119 431.835 461.044 434.121C460.97 436.406 459.994 438.568 458.331 440.138C449.38 448.462 439.631 465.966 438.433 465.566C437.237 465.167 422.127 438.2 422.127 438.2L427.145 468.132C427.269 468.892 427.227 469.669 427.019 470.411C426.813 471.151 426.448 471.84 425.949 472.426C425.449 473.011 424.829 473.481 424.129 473.804C423.431 474.125 422.669 474.291 421.899 474.289H396.13C394.81 474.28 393.539 473.779 392.569 472.882C391.599 471.986 390.999 470.759 390.884 469.443L385.469 397.436L370.189 385.008C369.394 384.357 368.751 383.538 368.308 382.612C363.29 370.868 329.082 290.822 331.535 272.521C331.704 271.095 332.332 269.441 333.473 268.53L335.468 267.56L393.964 250.285Z" fill="#3474C9"/>
<path d="M377.315 286.546H376.974C376.688 286.488 370.133 284.322 366.711 281.528C366.426 281.3 365.514 280.617 361.295 267.104C361.252 266.958 361.239 266.805 361.255 266.653C361.272 266.502 361.319 266.356 361.394 266.223C361.469 266.09 361.569 265.973 361.689 265.88C361.808 265.786 361.946 265.718 362.094 265.678C362.234 265.625 362.386 265.603 362.537 265.612C362.688 265.621 362.836 265.663 362.971 265.733C363.104 265.802 363.223 265.9 363.317 266.019C363.412 266.136 363.48 266.272 363.518 266.42C365.343 272.291 367.566 278.848 368.193 279.818C371.386 282.327 377.601 284.378 377.658 284.378C377.937 284.482 378.167 284.686 378.303 284.949C378.44 285.211 378.475 285.518 378.398 285.804C378.316 286.025 378.168 286.214 377.975 286.345C377.78 286.479 377.55 286.548 377.315 286.546Z" fill="black"/>
<path d="M340.429 286.203C340.203 286.198 339.984 286.13 339.793 286.01C339.601 285.889 339.448 285.72 339.344 285.519C339.226 285.239 339.218 284.923 339.324 284.637C339.43 284.351 339.641 284.115 339.915 283.98C344.761 281.871 344.876 275.199 344.876 275.143C344.876 274.84 344.995 274.55 345.21 274.337C345.423 274.122 345.713 274.003 346.016 274.003C346.318 274.003 346.608 274.122 346.822 274.337C347.035 274.55 347.155 274.84 347.155 275.143C347.155 275.486 347.099 283.353 340.885 286.09L340.429 286.203Z" fill="black"/>
<path d="M396.245 271.323H396.074C382.732 269.784 383.93 253.649 383.93 253.478C383.943 253.328 383.988 253.183 384.058 253.049C384.129 252.916 384.225 252.798 384.342 252.703C384.459 252.608 384.594 252.535 384.738 252.493C384.882 252.45 385.033 252.435 385.185 252.451C385.334 252.466 385.48 252.51 385.613 252.581C385.746 252.652 385.863 252.749 385.958 252.865C386.054 252.982 386.125 253.115 386.169 253.259C386.211 253.405 386.226 253.556 386.209 253.706C386.153 254.277 385.185 267.731 396.358 269.042C396.661 269.097 396.93 269.261 397.12 269.503C397.31 269.744 397.403 270.047 397.384 270.353C397.343 270.625 397.206 270.872 396.996 271.051C396.786 271.23 396.518 271.327 396.245 271.323Z" fill="black"/>
<path d="M414.031 380.73C413.76 380.723 413.497 380.623 413.291 380.446C412.777 380.047 399.778 369.728 396.073 366.249C392.367 362.772 373.894 300.343 371.841 293.216C371.767 292.929 371.801 292.623 371.938 292.361C372.075 292.098 372.304 291.894 372.583 291.79C372.729 291.748 372.882 291.733 373.034 291.752C373.185 291.768 373.331 291.815 373.464 291.888C373.597 291.963 373.714 292.063 373.807 292.184C373.9 292.304 373.969 292.441 374.009 292.589C381.762 319.1 395.047 362.089 397.612 364.596C401.261 368.018 414.602 378.564 414.715 378.679C414.949 378.869 415.098 379.142 415.131 379.441C415.162 379.74 415.074 380.039 414.887 380.274C414.784 380.406 414.655 380.515 414.507 380.594C414.36 380.672 414.199 380.719 414.031 380.73Z" fill="black"/>
<path d="M422.127 439.341C421.932 439.332 421.741 439.276 421.573 439.175C421.403 439.077 421.261 438.938 421.159 438.771C416.028 430.675 385.582 398.805 385.298 398.519C385.084 398.296 384.966 398.001 384.966 397.693C384.966 397.385 385.084 397.089 385.298 396.865C385.533 396.674 385.83 396.573 386.135 396.582C386.439 396.593 386.729 396.714 386.951 396.923C388.206 398.234 417.795 429.249 423.097 437.573C423.252 437.833 423.303 438.142 423.241 438.439C423.177 438.734 423.004 438.997 422.754 439.17C422.563 439.278 422.348 439.338 422.127 439.341Z" fill="black"/>
<path d="M441.799 494.244L441.285 494.131C441.022 493.985 440.824 493.746 440.729 493.461C440.632 493.175 440.649 492.865 440.773 492.59C440.773 492.533 443.623 486.775 452.289 490.424C452.559 490.548 452.768 490.774 452.874 491.049C452.98 491.326 452.974 491.634 452.86 491.906C452.808 492.05 452.73 492.181 452.626 492.293C452.522 492.404 452.396 492.491 452.258 492.55C452.117 492.61 451.966 492.637 451.815 492.635C451.663 492.632 451.514 492.597 451.377 492.533C444.82 489.74 442.882 493.445 442.824 493.56C442.731 493.757 442.587 493.925 442.406 494.045C442.226 494.165 442.016 494.234 441.799 494.244Z" fill="black"/>
<path d="M452.003 510.322C450.821 510.322 449.645 510.13 448.526 509.751C444.191 508.325 439.746 503.878 440.259 497.436C440.406 495.866 440.851 494.337 441.57 492.933C442.025 492.134 442.425 491.335 442.767 490.652C446.928 482.671 447.955 480.731 438.433 473.035C437.175 472.017 436.364 470.547 436.172 468.939C435.979 467.331 436.424 465.712 437.409 464.427L456.337 439.626C457.013 438.734 457.861 437.988 458.829 437.43C459.799 436.872 460.869 436.513 461.98 436.375C464.224 436.072 466.5 436.666 468.309 438.028L485.813 449.774C489.29 451.94 491.285 454.619 491.627 457.755C492.255 463.057 488.035 467.732 487.408 468.359C487.014 468.875 486.489 469.275 485.887 469.515C485.284 469.756 484.628 469.831 483.988 469.729C483.588 469.614 483.189 469.386 481.535 468.359C480.851 467.96 479.768 467.276 479.256 467.049C478.543 467.224 477.916 467.648 477.487 468.246L470.19 478.851C469.729 479.498 469.538 480.299 469.654 481.086C469.771 481.872 470.189 482.583 470.818 483.068C471.755 483.83 472.367 484.923 472.526 486.121C472.685 487.319 472.38 488.531 471.673 489.512L460.384 505.475C459.535 506.947 458.313 508.168 456.842 509.02C455.37 509.869 453.702 510.32 452.003 510.322ZM463.121 438.599H462.323C460.676 438.825 459.183 439.684 458.16 440.993L439.175 465.794C438.563 466.62 438.293 467.648 438.419 468.668C438.546 469.687 439.062 470.619 439.859 471.268C450.349 479.763 449.381 482.899 444.762 491.678C444.421 492.418 444.022 493.16 443.623 493.959C443.014 495.088 442.645 496.329 442.54 497.608C442.383 499.783 442.961 501.949 444.181 503.758C445.399 505.566 447.191 506.914 449.266 507.585C452.117 508.555 456.109 508.156 458.446 504.221H458.503L469.848 488.258C470.21 487.758 470.371 487.138 470.296 486.525C470.223 485.913 469.92 485.349 469.448 484.95C468.343 484.111 467.607 482.875 467.393 481.504C467.182 480.131 467.51 478.731 468.309 477.597L475.606 466.992C476.448 465.841 477.688 465.048 479.085 464.768C479.768 464.654 480.339 464.995 482.79 466.536L484.443 467.504C484.666 467.532 484.89 467.504 485.1 467.426C485.308 467.346 485.494 467.216 485.641 467.049L485.754 466.877C485.813 466.821 489.917 462.601 489.346 458.041C489.062 455.645 487.465 453.536 484.615 451.769L466.941 439.91C465.847 439.064 464.503 438.603 463.121 438.599Z" fill="black"/>
<path d="M444.706 487.687C444.405 487.683 444.119 487.559 443.907 487.346C443.796 487.244 443.708 487.12 443.648 486.983C443.588 486.846 443.557 486.697 443.557 486.547C443.557 486.398 443.588 486.248 443.648 486.112C443.708 485.973 443.796 485.851 443.907 485.749C444.135 485.521 449.209 480.674 453.771 482.441C454.05 482.556 454.273 482.777 454.391 483.054C454.508 483.331 454.51 483.645 454.398 483.924C454.284 484.204 454.065 484.427 453.786 484.544C453.509 484.662 453.195 484.664 452.916 484.551C450.292 483.526 446.7 486.261 445.504 487.402C445.274 487.579 444.996 487.68 444.706 487.687Z" fill="black"/>
<path d="M449.608 508.896C453.2 509.751 457.077 508.725 459.473 504.848L470.761 488.828C471.301 488.095 471.536 487.182 471.419 486.279C471.302 485.377 470.841 484.553 470.134 483.982C469.28 483.315 468.713 482.35 468.544 481.282C468.374 480.213 468.617 479.121 469.22 478.224L476.576 467.619C476.889 467.156 477.294 466.761 477.764 466.456C478.235 466.154 478.76 465.947 479.312 465.851C479.768 465.794 483.703 468.475 484.159 468.588C484.607 468.659 485.069 468.606 485.49 468.436C485.911 468.265 486.279 467.982 486.553 467.619C486.553 467.619 494.193 459.865 488.378 453.308L483.588 460.151C483.393 460.45 483.139 460.707 482.842 460.906C482.547 461.107 482.213 461.245 481.863 461.314C481.513 461.382 481.152 461.38 480.802 461.309C480.452 461.236 480.12 461.094 479.825 460.891L479.197 460.436C478.908 460.229 478.579 460.085 478.231 460.007C477.883 459.93 477.524 459.925 477.174 459.987C476.823 460.051 476.488 460.184 476.191 460.379C475.892 460.572 475.635 460.826 475.436 461.119L462.494 479.819C462.281 480.102 462.131 480.425 462.053 480.769C461.974 481.112 461.969 481.47 462.038 481.816C462.102 482.17 462.235 482.509 462.43 482.813C462.627 483.116 462.88 483.379 463.178 483.583C463.473 483.783 463.725 484.039 463.918 484.338C464.113 484.637 464.246 484.97 464.31 485.32C464.374 485.67 464.366 486.03 464.29 486.378C464.213 486.726 464.067 487.054 463.861 487.346L449.266 508.497L449.608 508.896Z" fill="black"/>
<path d="M281.933 224.686L279.71 224.573C277.657 224.573 244.533 224.286 236.893 223.718C233.301 223.431 231.704 221.493 231.02 219.954C229.082 215.678 231.363 209.521 234.328 205.586C239.003 199.372 259.014 182.953 259.869 182.269C259.982 182.158 260.119 182.072 260.266 182.017C260.416 181.961 260.575 181.938 260.733 181.947C260.892 181.957 261.047 181.999 261.187 182.072C261.328 182.145 261.453 182.246 261.552 182.37C261.652 182.494 261.725 182.636 261.765 182.789C261.807 182.942 261.816 183.103 261.793 183.26C261.767 183.416 261.71 183.566 261.625 183.701C261.539 183.834 261.426 183.949 261.295 184.036C261.123 184.208 240.656 200.97 236.151 206.956C233.13 211.003 231.762 216.134 233.073 218.984C233.757 220.467 235.068 221.265 237.064 221.437C244.704 222.007 279.424 222.292 279.767 222.292H279.88C282.445 222.576 287.919 222.407 288.49 220.182C288.57 219.894 288.754 219.648 289.008 219.489C289.261 219.331 289.564 219.274 289.857 219.327C290.158 219.407 290.413 219.6 290.574 219.867C290.732 220.133 290.784 220.45 290.712 220.753C289.857 224.173 284.898 224.686 281.933 224.686Z" fill="black"/>
<path d="M273.838 208.38C273.697 208.378 273.559 208.345 273.431 208.287C273.303 208.228 273.19 208.143 273.095 208.039C272.871 207.84 272.733 207.563 272.713 207.264C272.691 206.965 272.787 206.669 272.982 206.442L278.912 199.943C279.116 199.715 279.401 199.58 279.705 199.564C280.011 199.548 280.309 199.653 280.536 199.857C280.763 200.062 280.899 200.348 280.916 200.652C280.932 200.957 280.826 201.256 280.622 201.482L274.693 207.982C274.583 208.103 274.452 208.201 274.306 208.269C274.158 208.338 274 208.376 273.838 208.38Z" fill="black"/>
<path d="M277.714 210.261L277.201 210.148C266.539 204.447 255.706 201.994 254.054 202.281C253.786 202.366 253.498 202.357 253.237 202.253C252.977 202.149 252.761 201.956 252.628 201.71C252.559 201.575 252.519 201.429 252.508 201.278C252.497 201.128 252.515 200.977 252.563 200.833C252.61 200.691 252.687 200.558 252.785 200.445C252.885 200.33 253.006 200.237 253.141 200.171C255.194 199.201 267.736 202.45 278.284 208.152C278.538 208.307 278.724 208.549 278.808 208.834C278.893 209.118 278.868 209.424 278.74 209.692C278.629 209.864 278.476 210.004 278.297 210.105C278.119 210.203 277.918 210.258 277.714 210.261Z" fill="black"/>
<path d="M391.968 223.945C391.723 223.953 391.484 223.88 391.287 223.734C391.091 223.59 390.948 223.382 390.885 223.147L389.289 218.472C389.211 218.176 389.244 217.863 389.38 217.591C389.515 217.318 389.747 217.104 390.029 216.989C390.317 216.9 390.627 216.927 390.895 217.066C391.162 217.205 391.364 217.443 391.455 217.73L393.051 222.463C393.142 222.749 393.113 223.061 392.974 223.327C392.835 223.595 392.597 223.796 392.31 223.887L391.968 223.945Z" fill="black"/>
<path d="M334.328 235.29C332.193 235.221 330.105 234.656 328.227 233.637C326.402 232.554 326.289 231.243 326.346 230.502C326.439 229.912 326.679 229.355 327.049 228.885C327.42 228.416 327.903 228.05 328.455 227.822C329.538 227.479 331.535 227.538 334.042 227.651C336.551 227.765 339.971 227.878 342.024 227.366C345.274 226.568 349.321 229.419 352.286 231.47C353.05 232.038 353.849 232.552 354.682 233.009C355.366 233.068 359.585 232.44 367.453 230.843C367.892 230.732 368.315 230.559 368.707 230.331C384.271 220.866 398.296 221.608 398.923 221.665C399.071 221.672 399.215 221.708 399.348 221.774C399.481 221.838 399.6 221.929 399.695 222.042C399.791 222.153 399.864 222.285 399.908 222.425C399.952 222.567 399.965 222.715 399.95 222.863C399.95 223.014 399.919 223.165 399.857 223.304C399.797 223.444 399.706 223.568 399.593 223.672C399.48 223.774 399.346 223.851 399.202 223.898C399.057 223.946 398.903 223.962 398.752 223.946C398.639 223.946 384.783 223.203 369.903 232.269C369.298 232.667 368.62 232.936 367.909 233.068C359.984 234.721 355.366 235.405 354.224 235.234C353.085 235.062 352.629 234.492 350.975 233.352C349.321 232.213 344.818 229.02 342.595 229.589C340.371 230.159 336.894 230.046 333.985 229.932C331.991 229.817 329.881 229.76 329.139 229.988C328.999 230.074 328.88 230.19 328.791 230.329C328.701 230.468 328.645 230.623 328.627 230.787C328.57 231.129 329.082 231.47 329.367 231.642C330.895 232.47 332.592 232.938 334.328 233.009C334.631 233.009 334.921 233.13 335.134 233.345C335.347 233.558 335.468 233.848 335.468 234.151C335.468 234.453 335.347 234.743 335.134 234.957C334.921 235.17 334.631 235.29 334.328 235.29Z" fill="black"/>
<path d="M307.817 253.99L307.417 253.877C306.442 253.502 305.647 252.767 305.193 251.824C304.836 250.885 304.856 249.842 305.251 248.916C306.447 246.066 313.746 243.501 315.229 242.988C315.515 242.912 315.819 242.946 316.084 243.083C316.346 243.22 316.551 243.45 316.653 243.729C316.705 243.871 316.729 244.022 316.72 244.174C316.709 244.325 316.669 244.471 316.6 244.606C316.529 244.741 316.432 244.859 316.313 244.952C316.195 245.047 316.058 245.116 315.912 245.155C312.205 246.409 307.93 248.519 307.361 249.771C307.2 250.132 307.18 250.539 307.303 250.913C307.498 251.296 307.82 251.598 308.216 251.768C308.495 251.881 308.717 252.101 308.836 252.379C308.953 252.658 308.956 252.969 308.843 253.25C308.77 253.465 308.634 253.653 308.449 253.786C308.265 253.919 308.043 253.99 307.817 253.99Z" fill="black"/>
<path d="M326.973 255.301C326.823 255.318 326.672 255.303 326.528 255.259C326.384 255.216 326.249 255.144 326.132 255.048C326.017 254.953 325.921 254.836 325.85 254.703C325.779 254.57 325.733 254.426 325.718 254.277C325.704 254.125 325.718 253.976 325.762 253.832C325.806 253.686 325.877 253.553 325.972 253.436C326.067 253.319 326.185 253.223 326.316 253.152C326.45 253.08 326.595 253.037 326.745 253.022C327.088 252.964 334.955 251.425 338.489 252.109C338.783 252.165 339.043 252.333 339.213 252.579C339.384 252.823 339.452 253.126 339.402 253.421C339.346 253.715 339.178 253.974 338.932 254.145C338.688 254.315 338.385 254.382 338.09 254.333C335.468 253.819 329.31 254.845 327.201 255.245L326.973 255.301Z" fill="black"/>
<path d="M338.888 259.863H338.491L329.369 256.443C329.217 256.392 329.079 256.311 328.962 256.206C328.845 256.098 328.751 255.969 328.687 255.825C328.621 255.679 328.588 255.522 328.588 255.363C328.588 255.205 328.621 255.048 328.683 254.904C328.798 254.623 329.017 254.401 329.296 254.284C329.573 254.165 329.887 254.164 330.166 254.277L339.288 257.639C339.561 257.765 339.78 257.982 339.904 258.255C340.03 258.527 340.053 258.833 339.973 259.121C339.884 259.338 339.734 259.522 339.541 259.654C339.35 259.787 339.122 259.858 338.888 259.863Z" fill="black"/>
<path d="M341.454 262.713C340.294 262.682 339.153 262.401 338.11 261.889C337.067 261.378 336.148 260.647 335.411 259.748C335.3 259.635 335.214 259.5 335.16 259.351C335.103 259.203 335.08 259.045 335.09 258.886C335.1 258.727 335.142 258.572 335.214 258.43C335.287 258.29 335.39 258.166 335.512 258.065C335.636 257.967 335.78 257.894 335.933 257.852C336.086 257.812 336.246 257.803 336.403 257.827C336.56 257.85 336.71 257.907 336.843 257.992C336.978 258.078 337.091 258.191 337.178 258.324C337.782 259.052 338.557 259.619 339.43 259.978C340.305 260.335 341.255 260.472 342.196 260.376C344.876 259.978 352.516 253.363 355.366 250.856L357.076 249.43C357.187 249.302 357.324 249.2 357.479 249.131C357.634 249.064 357.802 249.031 357.97 249.034C358.139 249.04 358.305 249.082 358.455 249.158C358.606 249.235 358.737 249.343 358.841 249.478C358.945 249.611 359.016 249.766 359.053 249.93C359.089 250.096 359.089 250.267 359.051 250.431C359.013 250.595 358.938 250.75 358.834 250.881C358.728 251.015 358.597 251.122 358.446 251.197L356.848 252.566C351.147 257.582 345.445 262.201 342.48 262.6L341.454 262.713Z" fill="black"/>
<path d="M281.82 214.995C281.82 214.995 284.841 218.528 286.323 222.064C287.806 225.599 286.666 230.73 288.034 230.73C290.656 230.672 304.911 228.106 307.02 226.795C309.128 225.484 313.462 208.495 305.08 208.152C296.7 207.811 285.297 211.859 281.82 214.995Z" fill="black"/>
<path d="M305.935 229.647C305.272 229.662 304.619 229.483 304.055 229.133C303.729 228.907 303.472 228.597 303.311 228.234C303.151 227.873 303.093 227.474 303.142 227.082C303.166 226.779 303.308 226.498 303.538 226.299C303.767 226.102 304.066 226.004 304.369 226.026C304.67 226.049 304.952 226.19 305.149 226.42C305.348 226.651 305.445 226.95 305.423 227.251C305.789 227.397 306.198 227.397 306.562 227.251C307.418 226.168 309.755 218.072 309.299 212.942C309.128 211.574 308.672 210.548 307.932 209.977C307.155 209.423 306.2 209.178 305.251 209.293L304.453 209.406L304.055 208.722C303.598 207.867 300.463 207.867 297.954 208.323L297.44 208.438L296.984 208.095C294.476 206.1 289.915 208.21 289.859 208.267L289.46 208.438L289.004 208.267C286.21 207.297 279.026 210.205 275.148 212.314C275.017 212.404 274.867 212.462 274.712 212.491C274.556 212.519 274.395 212.513 274.242 212.475C274.087 212.436 273.943 212.367 273.817 212.271C273.691 212.174 273.587 212.052 273.511 211.911C273.436 211.773 273.391 211.618 273.378 211.459C273.365 211.302 273.385 211.142 273.436 210.992C273.489 210.843 273.571 210.706 273.68 210.589C273.788 210.473 273.919 210.382 274.065 210.32C275.148 209.692 284.498 204.789 289.288 205.986C290.656 205.473 294.933 203.934 298.011 205.986C299.665 205.758 303.769 205.245 305.594 207.012H305.651C306.956 206.999 308.234 207.399 309.299 208.152C310.61 209.178 311.352 210.719 311.524 212.714C312.036 217.901 309.755 228.05 307.817 229.191C307.233 229.483 306.59 229.638 305.935 229.647Z" fill="black"/>
<path d="M300.177 230.786C299.475 230.814 298.782 230.635 298.18 230.274C297.497 229.76 296.698 228.792 296.756 226.739C296.784 226.441 296.922 226.164 297.145 225.966C297.365 225.765 297.655 225.654 297.953 225.656C298.104 225.663 298.25 225.699 298.385 225.763C298.521 225.827 298.642 225.918 298.744 226.029C298.844 226.141 298.921 226.27 298.972 226.412C299.023 226.553 299.045 226.702 299.036 226.852C299.036 227.309 299.036 228.106 299.435 228.334C299.834 228.564 300.976 228.449 301.716 228.221C306.506 222.634 304.965 213.512 304.965 213.454C304.914 213.153 304.98 212.843 305.149 212.59C305.319 212.334 305.58 212.154 305.879 212.086C306.179 212.052 306.48 212.134 306.725 212.312C306.967 212.493 307.133 212.757 307.19 213.055C307.246 213.454 308.956 223.546 303.198 229.931L303.085 230.103L302.855 230.216C302.004 230.562 301.096 230.755 300.177 230.786Z" fill="black"/>
<path d="M294.589 230.387C294.259 230.385 293.931 230.329 293.621 230.216C292.423 229.76 292.251 228.221 292.538 226.967C292.565 226.823 292.62 226.686 292.702 226.564C292.782 226.443 292.888 226.339 293.01 226.259C293.132 226.179 293.271 226.124 293.415 226.099C293.559 226.073 293.706 226.079 293.849 226.112C294.142 226.166 294.403 226.336 294.572 226.58C294.744 226.826 294.811 227.129 294.76 227.423C294.716 227.649 294.696 227.877 294.704 228.106C295.274 227.993 296.698 227.195 299.55 222.235C301.603 218.7 299.722 213.113 299.207 212.258C299.038 212.061 298.939 211.813 298.928 211.554C298.919 211.295 298.996 211.04 299.151 210.832C299.235 210.706 299.346 210.599 299.474 210.517C299.603 210.436 299.747 210.383 299.898 210.362C300.048 210.34 300.203 210.351 300.349 210.393C300.495 210.435 300.631 210.506 300.746 210.604C301.66 211.288 304.338 218.472 301.545 223.375C299.607 226.739 297.156 230.387 294.589 230.387Z" fill="black"/>
<path d="M288.889 231.926C288.402 231.963 287.913 231.89 287.459 231.713C287.005 231.534 286.599 231.257 286.265 230.9C285.353 229.704 285.41 227.935 286.495 225.428C286.544 225.284 286.623 225.153 286.726 225.041C286.83 224.93 286.956 224.843 287.095 224.784C287.235 224.724 287.386 224.695 287.538 224.698C287.689 224.7 287.839 224.735 287.975 224.801C288.256 224.914 288.479 225.134 288.595 225.411C288.714 225.69 288.716 226.002 288.603 226.283C287.806 228.165 287.806 229.133 288.034 229.417C288.262 229.704 288.889 229.76 289.629 229.589C290.371 229.417 291.795 228.165 293.393 224.972L294.76 222.292C296.87 218.415 292.652 213.682 292.025 213.17C291.777 213.036 291.586 212.821 291.48 212.561C291.376 212.3 291.367 212.012 291.454 211.744C291.567 211.465 291.788 211.242 292.065 211.124C292.344 211.007 292.656 211.003 292.937 211.116C293.735 211.403 295.958 213.91 296.985 216.647C298.011 219.383 297.84 221.38 296.757 223.375L295.387 225.997C293.792 229.189 292.765 231.299 290.085 231.813C289.693 231.902 289.29 231.941 288.889 231.926Z" fill="black"/>
<path d="M328.911 242.19L317.679 246.351L319.448 254.277L330.222 248.974L328.911 242.19Z" fill="black"/>
<path d="M310.269 261.289C309.833 261.302 309.405 261.193 309.031 260.97C308.657 260.748 308.355 260.423 308.16 260.035C307.018 257.81 308.729 253.649 312.379 249.543C317.623 243.672 331.819 241.163 332.446 241.048C332.742 240.999 333.043 241.067 333.289 241.238C333.533 241.408 333.703 241.668 333.757 241.962C333.81 242.263 333.743 242.573 333.573 242.826C333.404 243.081 333.143 243.262 332.846 243.329C332.674 243.329 318.821 245.782 314.089 251.084C309.356 256.386 309.87 258.609 310.211 259.008H310.326C311.237 258.893 314.716 256.784 317.51 255.073C320.303 253.363 325.206 250.342 327.999 249.315C328.134 249.261 328.278 249.233 328.424 249.235C328.568 249.237 328.712 249.268 328.845 249.328C328.978 249.387 329.099 249.47 329.197 249.576C329.298 249.682 329.374 249.808 329.425 249.943C329.538 250.223 329.535 250.535 329.418 250.814C329.299 251.091 329.077 251.312 328.798 251.425C326.233 252.395 322.241 254.846 318.706 257.014C315.172 259.18 311.98 261.118 310.61 261.289H310.269Z" fill="black"/>
<path d="M333.358 269.157C333.358 269.157 357.076 265.678 361.011 267.447L393.964 250.285L383.416 250.398C383.416 250.398 362.721 259.18 361.295 259.464L332.39 264.367V269.897L333.358 269.157Z" fill="black"/>
<path d="M361.067 267.674C359.709 267.66 358.405 267.151 357.395 266.245C356.385 265.339 355.74 264.095 355.577 262.748C355.417 261.4 355.752 260.04 356.522 258.922C357.291 257.803 358.44 257.004 359.756 256.671L364.772 255.473C366.2 255.146 367.701 255.394 368.948 256.162C370.195 256.93 371.092 258.157 371.444 259.579C371.781 261.014 371.557 262.523 370.817 263.798C370.43 264.423 369.925 264.969 369.327 265.399C368.731 265.829 368.054 266.137 367.338 266.305L362.378 267.503L361.067 267.674ZM366.083 257.641H365.287L360.325 258.837C359.906 258.935 359.51 259.114 359.16 259.364C358.81 259.613 358.513 259.931 358.285 260.295C358.057 260.662 357.904 261.068 357.833 261.493C357.763 261.918 357.776 262.352 357.875 262.771C357.971 263.191 358.15 263.586 358.402 263.937C358.651 264.287 358.969 264.584 359.333 264.812C359.698 265.04 360.105 265.193 360.529 265.262C360.954 265.333 361.388 265.32 361.808 265.222L366.825 264.026C367.659 263.809 368.373 263.278 368.82 262.544C369.064 262.19 369.227 261.785 369.294 261.362C369.364 260.937 369.338 260.503 369.219 260.091C369.052 259.387 368.651 258.762 368.08 258.317C367.511 257.872 366.807 257.633 366.083 257.641Z" fill="black"/>
<path d="M381.649 227.707C381.649 227.707 385.526 223.49 393.28 226.112C401.033 228.734 399.666 244.071 399.666 244.071H387.579L381.649 227.707Z" fill="black"/>
<path d="M369.677 248.004H365.742C365.591 248.006 365.44 247.973 365.299 247.913C365.161 247.851 365.035 247.762 364.933 247.649C364.831 247.536 364.754 247.401 364.707 247.257C364.659 247.113 364.643 246.96 364.659 246.806C364.659 246.661 364.688 246.515 364.747 246.38C364.805 246.243 364.889 246.121 364.997 246.021C365.102 245.918 365.23 245.84 365.367 245.789C365.505 245.738 365.653 245.716 365.799 245.723C366.255 245.723 410.213 246.978 417.055 233.923C421.786 224.857 412.835 214.14 412.779 214.025C412.675 213.915 412.595 213.786 412.544 213.644C412.493 213.503 412.473 213.352 412.483 213.201C412.494 213.051 412.536 212.905 412.606 212.772C412.677 212.639 412.773 212.522 412.892 212.427C413.12 212.234 413.415 212.138 413.714 212.158C414.013 212.18 414.29 212.318 414.489 212.542C414.888 213.055 424.523 224.514 419.049 235.006C412.779 246.921 381.022 248.004 369.677 248.004Z" fill="black"/>
<path d="M417.91 90.9335C420.587 90.9335 422.756 88.7639 422.756 86.0875C422.756 83.411 420.587 81.2412 417.91 81.2412C415.233 81.2412 413.063 83.411 413.063 86.0875C413.063 88.7639 415.233 90.9335 417.91 90.9335Z" fill="black"/>
<path d="M437.864 90.9335C440.541 90.9335 442.711 88.7639 442.711 86.0875C442.711 83.411 440.541 81.2412 437.864 81.2412C435.188 81.2412 433.018 83.411 433.018 86.0875C433.018 88.7639 435.188 90.9335 437.864 90.9335Z" fill="black"/>
<path d="M456.109 90.9335C458.785 90.9335 460.953 88.7639 460.953 86.0875C460.953 83.411 458.785 81.2412 456.109 81.2412C453.432 81.2412 451.262 83.411 451.262 86.0875C451.262 88.7639 453.432 90.9335 456.109 90.9335Z" fill="black"/>
<path d="M337.349 399.602H110.21V398.462C110.78 341.051 111.236 254.39 110.324 250.057C110.202 249.831 110.164 249.571 110.216 249.321C110.268 249.071 110.407 248.847 110.609 248.688C110.853 248.498 111.162 248.409 111.47 248.44C111.778 248.473 112.062 248.622 112.262 248.859C112.718 249.43 113.402 250.342 113.003 324.686C112.832 357.641 112.547 390.766 112.49 397.323H337.349C337.652 397.323 337.942 397.443 338.155 397.656C338.37 397.87 338.491 398.16 338.491 398.462C338.491 398.765 338.37 399.055 338.155 399.268C337.942 399.481 337.652 399.602 337.349 399.602Z" fill="black"/>
<path d="M119.674 269.556H111.351C111.048 269.556 110.758 269.436 110.544 269.222C110.33 269.007 110.21 268.717 110.21 268.415C110.21 268.112 110.33 267.822 110.544 267.609C110.758 267.395 111.048 267.275 111.351 267.275H119.674C119.977 267.275 120.267 267.395 120.481 267.609C120.695 267.822 120.815 268.112 120.815 268.415C120.815 268.717 120.695 269.007 120.481 269.222C120.267 269.436 119.977 269.556 119.674 269.556Z" fill="black"/>
<path d="M118.192 299.658H111.977C111.675 299.658 111.385 299.539 111.171 299.324C110.957 299.111 110.837 298.821 110.837 298.518C110.837 298.215 110.957 297.925 111.171 297.712C111.385 297.499 111.675 297.378 111.977 297.378H118.192C118.494 297.378 118.784 297.499 118.998 297.712C119.212 297.925 119.332 298.215 119.332 298.518C119.332 298.821 119.212 299.111 118.998 299.324C118.784 299.539 118.494 299.658 118.192 299.658Z" fill="black"/>
<path d="M118.192 327.879H111.977C111.675 327.879 111.385 327.761 111.171 327.545C110.957 327.332 110.837 327.042 110.837 326.739C110.837 326.437 110.957 326.147 111.171 325.934C111.385 325.72 111.675 325.6 111.977 325.6H118.192C118.494 325.6 118.784 325.72 118.998 325.934C119.212 326.147 119.332 326.437 119.332 326.739C119.332 327.042 119.212 327.332 118.998 327.545C118.784 327.761 118.494 327.879 118.192 327.879Z" fill="black"/>
<path d="M119.674 353.935H111.977C111.825 353.944 111.673 353.92 111.531 353.865C111.389 353.811 111.26 353.727 111.152 353.619C111.045 353.512 110.961 353.382 110.907 353.24C110.852 353.098 110.828 352.946 110.837 352.795C110.837 352.492 110.957 352.202 111.171 351.989C111.384 351.774 111.674 351.654 111.977 351.654H119.674C119.976 351.654 120.266 351.774 120.48 351.989C120.694 352.202 120.814 352.492 120.814 352.795C120.822 352.946 120.798 353.098 120.744 353.24C120.689 353.382 120.606 353.512 120.498 353.619C120.391 353.727 120.262 353.811 120.119 353.865C119.977 353.92 119.826 353.944 119.674 353.935Z" fill="black"/>
<path d="M118.191 380.047H111.521C111.218 380.047 110.928 379.926 110.714 379.713C110.501 379.5 110.38 379.21 110.38 378.907C110.38 378.604 110.501 378.314 110.714 378.101C110.928 377.886 111.218 377.766 111.521 377.766H118.191C118.493 377.766 118.784 377.886 118.997 378.101C119.211 378.314 119.331 378.604 119.331 378.907C119.331 379.21 119.211 379.5 118.997 379.713C118.784 379.926 118.493 380.047 118.191 380.047Z" fill="black"/>
<path d="M158.101 399.602H137.006V349.146H158.101V399.602ZM139.287 397.321H155.821V351.426H139.287V397.321Z" fill="black"/>
<path d="M229.082 326.74H210.952V398.446H229.082V326.74Z" fill="black"/>
<path d="M230.221 399.602H209.811V325.6H230.221V399.602ZM212.092 397.323H227.942V327.879H212.092V397.323Z" fill="black"/>
<path d="M269.677 399.602H243.107V311.859H269.677V399.602ZM245.388 397.323H267.396V314.14H245.388V397.323Z" fill="black"/>
<path d="M138.146 361.004C137.988 361.009 137.83 360.982 137.683 360.923C137.536 360.865 137.402 360.776 137.291 360.663C137.093 360.426 136.995 360.121 137.016 359.813C137.037 359.505 137.177 359.217 137.405 359.009L148.238 349.431C148.465 349.227 148.763 349.121 149.068 349.137C149.373 349.154 149.659 349.289 149.863 349.517C150.067 349.743 150.172 350.042 150.156 350.346C150.14 350.651 150.004 350.937 149.777 351.141L138.888 360.719C138.791 360.816 138.675 360.892 138.548 360.942C138.42 360.991 138.283 361.013 138.146 361.004Z" fill="black"/>
<path d="M138.146 375.486C137.856 375.477 137.577 375.379 137.348 375.2C137.135 374.978 137.017 374.682 137.017 374.374C137.017 374.066 137.135 373.771 137.348 373.548L156.162 354.905C156.264 354.793 156.387 354.706 156.524 354.646C156.662 354.584 156.81 354.553 156.96 354.553C157.11 354.553 157.259 354.584 157.396 354.646C157.534 354.706 157.657 354.793 157.758 354.905C157.971 355.127 158.09 355.422 158.09 355.731C158.09 356.039 157.971 356.334 157.758 356.558L138.944 375.2C138.837 375.3 138.711 375.375 138.574 375.424C138.437 375.474 138.291 375.494 138.146 375.486Z" fill="black"/>
<path d="M138.146 391.107C137.984 391.101 137.825 391.065 137.678 390.996C137.531 390.926 137.399 390.83 137.291 390.708C137.187 390.598 137.108 390.469 137.057 390.328C137.006 390.186 136.985 390.035 136.996 389.885C137.007 389.734 137.049 389.588 137.119 389.455C137.19 389.322 137.287 389.205 137.405 389.112L156.22 372.635C156.325 372.527 156.451 372.443 156.591 372.389C156.73 372.332 156.88 372.307 157.03 372.312C157.18 372.317 157.328 372.354 157.463 372.42C157.598 372.485 157.718 372.578 157.816 372.691C158.014 372.93 158.112 373.233 158.091 373.541C158.07 373.849 157.93 374.137 157.702 374.345L138.887 390.822C138.68 390.999 138.419 391.1 138.146 391.107Z" fill="black"/>
<path d="M148.978 399.602C148.765 399.578 148.563 399.498 148.392 399.368C148.221 399.239 148.088 399.066 148.007 398.869C147.925 398.67 147.898 398.455 147.929 398.243C147.959 398.03 148.046 397.831 148.18 397.663L156.162 389.169C156.259 389.054 156.379 388.962 156.514 388.897C156.65 388.831 156.797 388.795 156.947 388.789C157.097 388.784 157.247 388.809 157.386 388.866C157.526 388.921 157.653 389.004 157.758 389.112C157.975 389.318 158.102 389.599 158.113 389.898C158.123 390.197 158.016 390.487 157.815 390.707L149.833 399.261C149.722 399.374 149.589 399.463 149.442 399.521C149.294 399.58 149.136 399.607 148.978 399.602Z" fill="black"/>
<path d="M244.248 325.142C243.929 325.142 243.623 325.02 243.391 324.801C243.194 324.564 243.096 324.26 243.118 323.952C243.138 323.644 243.278 323.355 243.506 323.148L255.593 312.144C255.706 312.044 255.836 311.965 255.98 311.914C256.122 311.865 256.273 311.843 256.423 311.85C256.574 311.858 256.722 311.896 256.858 311.961C256.995 312.025 257.117 312.118 257.218 312.23C257.32 312.343 257.396 312.474 257.447 312.616C257.498 312.758 257.52 312.91 257.511 313.059C257.504 313.21 257.466 313.358 257.402 313.495C257.336 313.632 257.245 313.754 257.132 313.854L244.988 324.858C244.786 325.044 244.522 325.146 244.248 325.142Z" fill="black"/>
<path d="M245.16 344.528C244.936 344.524 244.719 344.457 244.534 344.331C244.35 344.205 244.206 344.028 244.121 343.822C244.037 343.614 244.013 343.388 244.057 343.169C244.099 342.951 244.204 342.748 244.361 342.59L267.736 321.381C267.842 321.273 267.968 321.189 268.108 321.134C268.247 321.078 268.396 321.052 268.548 321.058C268.697 321.063 268.845 321.1 268.98 321.165C269.115 321.229 269.235 321.322 269.334 321.437C269.538 321.667 269.647 321.968 269.636 322.276C269.625 322.584 269.496 322.876 269.275 323.091L245.9 344.242C245.809 344.345 245.694 344.426 245.565 344.477C245.435 344.526 245.297 344.544 245.16 344.528Z" fill="black"/>
<path d="M244.247 372.806C244.086 372.8 243.926 372.762 243.778 372.695C243.632 372.625 243.501 372.529 243.391 372.407C243.207 372.164 243.116 371.863 243.138 371.559C243.158 371.254 243.289 370.968 243.506 370.753L267.793 350.514C268.021 350.319 268.316 350.222 268.615 350.244C268.914 350.266 269.192 350.403 269.39 350.629C269.491 350.742 269.567 350.873 269.613 351.017C269.658 351.161 269.675 351.314 269.658 351.464C269.642 351.615 269.595 351.759 269.52 351.89C269.443 352.022 269.341 352.135 269.219 352.224L244.989 372.521C244.781 372.698 244.52 372.799 244.247 372.806Z" fill="black"/>
<path d="M245.16 392.704C244.989 392.711 244.816 392.679 244.659 392.609C244.5 392.54 244.36 392.436 244.248 392.305C244.061 392.07 243.973 391.771 244.004 391.472C244.037 391.172 244.187 390.897 244.42 390.708L267.053 372.578C267.168 372.467 267.303 372.381 267.452 372.327C267.6 372.27 267.759 372.246 267.917 372.257C268.076 372.266 268.231 372.308 268.371 372.381C268.513 372.454 268.637 372.556 268.736 372.678C268.836 372.802 268.909 372.946 268.951 373.1C268.991 373.253 269 373.413 268.977 373.57C268.951 373.727 268.894 373.876 268.809 374.009C268.723 374.144 268.612 374.257 268.479 374.345L245.844 392.476C245.654 392.637 245.41 392.719 245.16 392.704Z" fill="black"/>
<path d="M244.248 356.843C244.07 356.852 243.891 356.815 243.731 356.735C243.572 356.655 243.435 356.535 243.335 356.387C243.154 356.144 243.076 355.84 243.12 355.541C243.162 355.242 243.322 354.972 243.565 354.79L267.109 337.229C267.23 337.14 267.366 337.074 267.511 337.038C267.656 337.001 267.808 336.992 267.955 337.014C268.103 337.034 268.247 337.085 268.375 337.162C268.504 337.236 268.617 337.339 268.707 337.459C268.805 337.574 268.876 337.71 268.918 337.856C268.96 338.002 268.971 338.157 268.949 338.307C268.927 338.458 268.874 338.602 268.792 338.732C268.712 338.859 268.605 338.97 268.479 339.054L244.932 356.615C244.737 356.766 244.495 356.846 244.248 356.843Z" fill="black"/>
<path d="M259.984 398.862C259.82 398.869 259.656 398.836 259.508 398.767C259.358 398.696 259.229 398.592 259.129 398.462C258.926 398.242 258.821 397.952 258.83 397.653C258.841 397.354 258.968 397.071 259.185 396.865L267.737 389.112C267.841 388.986 267.968 388.882 268.114 388.811C268.26 388.738 268.42 388.698 268.583 388.693C268.747 388.687 268.909 388.716 269.059 388.78C269.21 388.842 269.345 388.935 269.456 389.056C269.567 389.174 269.651 389.316 269.702 389.471C269.753 389.625 269.771 389.789 269.755 389.951C269.739 390.113 269.686 390.27 269.604 390.41C269.522 390.551 269.41 390.671 269.276 390.766L260.724 398.577C260.516 398.752 260.255 398.852 259.984 398.862Z" fill="black"/>
<path d="M372.414 512.032L392.026 511.52C392.939 511.52 393.814 511.161 394.465 510.521C395.116 509.881 395.488 509.011 395.503 508.097C395.532 507.013 395.971 505.979 396.734 505.206C397.496 504.433 398.524 503.979 399.609 503.937L412.493 503.481C413.049 503.455 413.601 503.545 414.121 503.742C414.641 503.937 415.115 504.236 415.516 504.62C415.915 504.905 416.028 509.695 416.256 510.094C416.455 510.513 416.77 510.865 417.166 511.108C417.56 511.35 418.017 511.474 418.48 511.462C418.48 511.462 432.334 513.4 431.195 500.23L430.053 479.136C430.077 478.164 429.904 477.196 429.548 476.291C429.191 475.385 428.656 474.561 427.978 473.864C427.298 473.168 426.485 472.615 425.588 472.238C424.693 471.861 423.728 471.667 422.756 471.667L391.513 471.324C390.195 471.324 388.931 471.835 387.983 472.75C387.037 473.666 386.483 474.913 386.439 476.227C385.868 490.539 382.391 489.855 371.444 491.735C370.031 491.997 368.676 492.519 367.453 493.276C358.673 498.747 362.094 513.059 372.414 512.032Z" fill="black"/>
<path d="M371.444 513.23C366.997 513.23 363.461 510.665 361.979 506.274C361.428 504.635 361.237 502.895 361.417 501.174C361.6 499.455 362.15 497.794 363.033 496.304C363.915 494.816 365.108 493.536 366.53 492.552C367.952 491.565 369.57 490.898 371.273 490.595L373.781 490.196C382.732 488.77 384.842 488.429 385.298 476.171C385.343 474.557 386.018 473.027 387.181 471.908C388.343 470.788 389.898 470.168 391.512 470.185H391.57L422.754 470.526C423.876 470.535 424.984 470.763 426.014 471.2C427.046 471.638 427.982 472.274 428.766 473.075C429.55 473.875 430.168 474.823 430.586 475.863C431.001 476.904 431.207 478.016 431.193 479.136L432.334 500.173C432.675 504.221 431.707 507.414 429.426 509.638C425.55 513.343 419.277 512.716 418.422 512.603C417.771 512.599 417.135 512.417 416.582 512.074C416.028 511.731 415.58 511.245 415.286 510.665C415.058 510.322 415.002 509.866 414.83 507.928C414.774 507.129 414.659 505.818 414.602 505.248C414.019 504.794 413.288 504.571 412.549 504.62L399.665 505.076C398.867 505.118 398.116 505.459 397.556 506.028C396.996 506.599 396.67 507.357 396.642 508.156C396.599 509.356 396.095 510.493 395.235 511.332C394.376 512.171 393.225 512.645 392.026 512.659L372.47 513.172L371.444 513.23ZM391.512 472.466C390.498 472.464 389.522 472.854 388.789 473.556C388.056 474.258 387.622 475.215 387.579 476.227C387.064 489.74 383.93 490.88 374.181 492.477L371.672 492.876C370.406 493.097 369.19 493.54 368.08 494.187C363.633 496.981 362.949 502.055 364.089 505.532C365.228 509.011 367.795 511.348 372.299 510.949H372.412L391.967 510.493C392.589 510.479 393.182 510.231 393.627 509.797C394.072 509.363 394.334 508.776 394.363 508.156C394.391 506.777 394.943 505.461 395.906 504.476C396.87 503.492 398.174 502.91 399.551 502.854L412.436 502.398C413.866 502.347 415.257 502.859 416.313 503.822C416.768 504.278 416.883 504.905 417.111 507.757C417.168 508.497 417.283 509.41 417.339 509.751C417.445 509.946 417.602 510.107 417.791 510.218C417.983 510.329 418.202 510.384 418.422 510.378H418.594C418.65 510.378 424.58 511.177 427.829 507.984C429.597 506.331 430.338 503.765 430.053 500.401L428.912 479.192C428.935 478.366 428.793 477.546 428.494 476.774C428.197 476.005 427.747 475.303 427.174 474.709C426.6 474.112 425.914 473.638 425.156 473.312C424.397 472.986 423.58 472.814 422.754 472.807L391.512 472.466Z" fill="black"/>
<path d="M385.868 495.555C385.617 495.56 385.371 495.478 385.174 495.323C384.975 495.166 384.838 494.946 384.785 494.7C383.987 491.963 379.654 490.71 378.057 490.424C377.908 490.404 377.762 490.353 377.632 490.274C377.501 490.198 377.388 490.094 377.297 489.972C377.207 489.849 377.142 489.711 377.105 489.563C377.071 489.416 377.063 489.262 377.089 489.113C377.144 488.819 377.311 488.559 377.558 488.389C377.802 488.218 378.105 488.15 378.4 488.201C378.684 488.258 385.64 489.397 386.951 494.072C386.995 494.218 387.008 494.371 386.991 494.523C386.975 494.674 386.928 494.822 386.853 494.955C386.778 495.086 386.678 495.203 386.558 495.298C386.437 495.391 386.3 495.458 386.153 495.498L385.868 495.555Z" fill="black"/>
<path d="M363.29 506.615C363.988 508.407 365.265 509.915 366.918 510.896C368.57 511.877 370.505 512.278 372.412 512.032L392.026 511.576C392.937 511.547 393.807 511.171 394.453 510.526C395.098 509.879 395.474 509.011 395.503 508.097C395.53 507.012 395.971 505.979 396.734 505.206C397.496 504.432 398.522 503.978 399.607 503.937L412.493 503.481C413.047 503.455 413.601 503.544 414.121 503.741C414.641 503.937 415.115 504.236 415.514 504.62C415.913 504.905 416.028 509.695 416.256 510.094C416.455 510.513 416.77 510.865 417.164 511.108C417.56 511.35 418.016 511.474 418.479 511.461C418.479 511.461 429.255 512.944 431.021 504.336L422.641 504.62C422.284 504.635 421.928 504.58 421.593 504.456C421.259 504.33 420.953 504.141 420.692 503.896C420.431 503.652 420.224 503.359 420.078 503.032C419.934 502.706 419.855 502.354 419.848 501.998V501.256C419.817 500.541 419.509 499.865 418.986 499.375C418.464 498.884 417.769 498.618 417.053 498.634L394.305 499.489C393.592 499.524 392.919 499.829 392.423 500.345C392.173 500.611 391.978 500.924 391.851 501.267C391.725 501.61 391.667 501.975 391.683 502.339C391.698 502.697 391.643 503.052 391.517 503.388C391.393 503.721 391.203 504.028 390.959 504.288C390.715 504.549 390.421 504.757 390.095 504.903C389.768 505.047 389.417 505.127 389.061 505.134L363.405 506.103C363.354 506.27 363.316 506.442 363.29 506.615Z" fill="black"/>
<path d="M378.57 499.09C378.311 499.097 378.057 499.017 377.849 498.862C377.643 498.707 377.494 498.485 377.43 498.235C375.72 491.279 371.672 491.963 371.501 492.021C371.2 492.072 370.89 492.006 370.635 491.837C370.381 491.667 370.201 491.407 370.133 491.108C370.082 490.814 370.15 490.511 370.321 490.265C370.49 490.021 370.751 489.853 371.045 489.797C371.101 489.74 377.43 488.542 379.655 497.664C379.696 497.81 379.707 497.965 379.686 498.115C379.666 498.266 379.613 498.41 379.532 498.539C379.45 498.669 379.345 498.78 379.217 498.864C379.091 498.95 378.949 499.006 378.798 499.034L378.57 499.09Z" fill="black"/>
<path d="M354.283 82.3815H353.827C348.067 79.873 345.274 80.8992 345.217 80.8992C345.081 80.9635 344.931 80.9982 344.778 81.0009C344.627 81.0036 344.477 80.9747 344.337 80.9156C344.196 80.8563 344.07 80.7686 343.966 80.6578C343.864 80.5469 343.784 80.4154 343.735 80.2721C343.622 79.9922 343.626 79.6792 343.742 79.4013C343.859 79.1236 344.083 78.9035 344.362 78.7898C344.705 78.6758 348.067 77.4213 354.739 80.2721C354.877 80.3276 355.003 80.4109 355.107 80.517C355.211 80.6231 355.293 80.7497 355.348 80.889C355.401 81.0281 355.424 81.1767 355.419 81.3257C355.412 81.4746 355.373 81.6205 355.309 81.7545C355.226 81.9536 355.082 82.1215 354.897 82.234C354.713 82.3467 354.498 82.3983 354.283 82.3815Z" fill="black"/>
<path d="M103.255 140.193C102.867 140.176 102.501 140.013 102.228 139.737C101.975 139.463 101.839 139.1 101.849 138.727C101.86 138.354 102.017 138 102.285 137.741L131.989 109.805C132.473 109.359 133.11 109.117 133.768 109.127C134.426 109.138 135.054 109.401 135.524 109.862L159.584 134.948L195.729 89.9073C195.965 89.6136 196.307 89.4249 196.681 89.382C197.055 89.3393 197.431 89.4462 197.726 89.6792C197.877 89.7908 198.005 89.9327 198.1 90.0957C198.195 90.2588 198.255 90.4397 198.275 90.6272C198.297 90.8144 198.278 91.0042 198.224 91.1845C198.169 91.3649 198.076 91.5317 197.954 91.6747L161.522 137.057C161.31 137.34 161.034 137.57 160.718 137.729C160.401 137.887 160.052 137.969 159.698 137.969C159.348 137.999 158.996 137.947 158.67 137.819C158.344 137.69 158.052 137.488 157.816 137.228L133.7 112.142L104.281 139.794C104.147 139.928 103.986 140.032 103.81 140.101C103.633 140.17 103.444 140.201 103.255 140.193Z" fill="#E5E9EF"/>
<path d="M199.15 106.042C198.772 106.042 198.41 105.892 198.141 105.624C197.875 105.357 197.724 104.995 197.724 104.616V91.6176C197.728 91.4259 197.682 91.2367 197.593 91.0673C197.503 90.8977 197.372 90.7537 197.212 90.6483C197.058 90.5356 196.88 90.4612 196.69 90.4315C196.502 90.4018 196.309 90.4175 196.129 90.4773L182.674 94.9813C182.494 95.0436 182.304 95.0693 182.114 95.0569C181.924 95.0447 181.739 94.9946 181.569 94.9094C181.399 94.8245 181.248 94.7063 181.124 94.5621C181.001 94.4177 180.907 94.2501 180.849 94.0691C180.741 93.7137 180.776 93.3301 180.946 93C181.116 92.6698 181.409 92.4193 181.761 92.3017L195.273 87.7977C195.881 87.5765 196.533 87.5127 197.171 87.6124C197.81 87.7122 198.411 87.972 198.922 88.3678C199.436 88.7393 199.854 89.2277 200.142 89.7928C200.43 90.358 200.577 90.9834 200.576 91.6176V104.616C200.576 104.995 200.426 105.357 200.158 105.624C199.89 105.892 199.529 106.042 199.15 106.042Z" fill="#E5E9EF"/>
<path d="M390.087 141.447C388.58 141.445 387.073 141.331 385.582 141.105C385.216 141.066 384.869 140.914 384.594 140.668C384.317 140.423 384.125 140.097 384.043 139.737C383.939 139.379 383.943 138.999 384.054 138.644C384.165 138.289 384.38 137.974 384.67 137.741C389.061 134.377 393.508 124.628 395.218 120.58C395.435 120.059 395.486 119.484 395.364 118.932C395.242 118.381 394.952 117.881 394.535 117.501C387.861 111.485 382.57 104.094 379.027 95.8366C376.566 90.1263 375.51 83.9091 375.948 77.7065C377.087 61.9139 383.587 50.1122 395.275 42.6434C406.962 35.1747 421.387 33.8063 431.421 33.9204C448.126 34.1483 478.8 46.4633 490.772 68.1282C497.557 80.4429 496.873 93.8981 488.777 107.011C479.312 122.462 465.743 131.299 448.582 133.237C434.728 134.776 422.298 131.242 417.623 129.645C417.118 129.479 416.577 129.461 416.063 129.592C415.547 129.724 415.08 129.999 414.717 130.386C406.164 139.623 396.414 141.447 390.087 141.447ZM386.78 138.995C392.026 139.566 403.37 139.338 413.063 128.847C413.705 128.129 414.546 127.615 415.479 127.372C416.413 127.129 417.396 127.166 418.309 127.479C429.027 131.128 465.687 140.307 486.837 105.814C494.592 93.271 495.219 80.8991 488.777 69.2114C477.259 48.2877 447.555 36.429 431.421 36.2009H430.11C411.296 36.2009 380.794 41.8452 378.228 77.8775C377.815 83.7107 378.812 89.5578 381.135 94.9244C384.519 102.894 389.619 110.019 396.073 115.791C396.843 116.497 397.377 117.423 397.601 118.443C397.827 119.464 397.731 120.529 397.328 121.492C395.218 126.453 391.112 135.062 386.78 138.995Z" fill="black"/>
<path d="M133.699 117.616C136.501 117.616 138.773 115.344 138.773 112.541C138.773 109.739 136.501 107.467 133.699 107.467C130.897 107.467 128.625 109.739 128.625 112.541C128.625 115.344 130.897 117.616 133.699 117.616Z" fill="black"/>
<path d="M159.583 140.649C162.385 140.649 164.657 138.377 164.657 135.575C164.657 132.772 162.385 130.5 159.583 130.5C156.78 130.5 154.509 132.772 154.509 135.575C154.509 138.377 156.78 140.649 159.583 140.649Z" fill="black"/>
<path d="M133.642 99.7707C133.34 99.7707 133.05 99.6505 132.836 99.4368C132.622 99.2229 132.502 98.9329 132.502 98.6305V92.245C132.502 91.9426 132.622 91.6525 132.836 91.4388C133.05 91.2249 133.34 91.1047 133.642 91.1047C133.945 91.1047 134.235 91.2249 134.448 91.4388C134.662 91.6525 134.782 91.9426 134.782 92.245V98.6305C134.782 98.9329 134.662 99.2229 134.448 99.4368C134.235 99.6505 133.945 99.7707 133.642 99.7707Z" fill="black"/>
<path d="M133.528 83.636C133.225 83.636 132.935 83.5158 132.721 83.3019C132.507 83.088 132.387 82.7981 132.387 82.4956V76.2243C132.387 75.9218 132.507 75.6317 132.721 75.418C132.935 75.2041 133.225 75.084 133.528 75.084C133.83 75.084 134.12 75.2041 134.334 75.418C134.548 75.6317 134.668 75.9218 134.668 76.2243V82.4956C134.668 82.7981 134.548 83.088 134.334 83.3019C134.12 83.5158 133.83 83.636 133.528 83.636Z" fill="black"/>
<path d="M159.412 123.032C159.109 123.032 158.819 122.912 158.606 122.698C158.392 122.484 158.271 122.194 158.271 121.892V115.506C158.271 115.204 158.392 114.914 158.606 114.7C158.819 114.486 159.109 114.366 159.412 114.366C159.714 114.366 160.004 114.486 160.218 114.7C160.432 114.914 160.552 115.204 160.552 115.506V121.892C160.552 122.194 160.432 122.484 160.218 122.698C160.004 122.912 159.714 123.032 159.412 123.032Z" fill="black"/>
<path d="M159.298 106.897C159.146 106.906 158.994 106.882 158.852 106.827C158.71 106.773 158.581 106.689 158.473 106.582C158.365 106.474 158.282 106.345 158.227 106.203C158.173 106.061 158.149 105.909 158.157 105.757V99.4856C158.149 99.3338 158.173 99.1819 158.227 99.0397C158.282 98.8976 158.365 98.7687 158.473 98.6611C158.581 98.5536 158.71 98.4699 158.852 98.4153C158.994 98.361 159.146 98.3371 159.298 98.3453C159.6 98.3453 159.89 98.4655 160.104 98.6794C160.318 98.8932 160.438 99.1832 160.438 99.4856V105.757C160.438 106.059 160.318 106.35 160.104 106.563C159.89 106.777 159.6 106.897 159.298 106.897Z" fill="black"/>
<path d="M159.412 89.7362C159.109 89.7362 158.819 89.616 158.606 89.4022C158.392 89.1883 158.271 88.8984 158.271 88.5959V82.1535C158.271 81.851 158.392 81.5609 158.606 81.3472C158.819 81.1333 159.109 81.0132 159.412 81.0132C159.714 81.0132 160.004 81.1333 160.218 81.3472C160.432 81.5609 160.552 81.851 160.552 82.1535V88.5959C160.552 88.8984 160.432 89.1883 160.218 89.4022C160.004 89.616 159.714 89.7362 159.412 89.7362Z" fill="black"/>
<path d="M133.756 149.144C133.454 149.144 133.164 149.024 132.95 148.81C132.736 148.596 132.616 148.306 132.616 148.003V141.618C132.616 141.316 132.736 141.026 132.95 140.812C133.164 140.598 133.454 140.478 133.756 140.478C134.059 140.478 134.348 140.598 134.562 140.812C134.776 141.026 134.896 141.316 134.896 141.618V148.003C134.896 148.306 134.776 148.596 134.562 148.81C134.348 149.024 134.059 149.144 133.756 149.144Z" fill="black"/>
<path d="M133.586 133.009C133.283 133.009 132.993 132.889 132.779 132.675C132.565 132.462 132.445 132.171 132.445 131.869V125.598C132.445 125.295 132.565 125.005 132.779 124.791C132.993 124.577 133.283 124.457 133.586 124.457C133.888 124.457 134.178 124.577 134.392 124.791C134.606 125.005 134.726 125.295 134.726 125.598V131.869C134.726 132.171 134.606 132.462 134.392 132.675C134.178 132.889 133.888 133.009 133.586 133.009Z" fill="black"/>
<path d="M88.1455 70.1806C87.9124 70.176 87.6856 70.1033 87.4933 69.9716C87.3009 69.84 87.151 69.6551 87.0622 69.4394C86.9494 69.1597 86.9521 68.8466 87.0697 68.5687C87.1871 68.2909 87.4101 68.071 87.6894 67.957L156.846 39.8496L222.069 67.957C222.21 68.0185 222.335 68.1076 222.441 68.219C222.547 68.3304 222.629 68.4619 222.682 68.6056C222.735 68.7493 222.758 68.9022 222.751 69.0552C222.744 69.2084 222.705 69.3584 222.64 69.4965C222.583 69.6349 222.501 69.7603 222.394 69.865C222.288 69.9696 222.162 70.0513 222.022 70.1049C221.883 70.1583 221.735 70.1826 221.586 70.176C221.436 70.1695 221.291 70.1321 221.157 70.0666L156.846 42.3013L88.5446 70.0666L88.1455 70.1806Z" fill="black"/>
<path d="M157.417 44.582C159.999 44.582 162.092 42.489 162.092 39.907C162.092 37.3249 159.999 35.2319 157.417 35.2319C154.835 35.2319 152.742 37.3249 152.742 39.907C152.742 42.489 154.835 44.582 157.417 44.582Z" fill="#3474C9"/>
<path d="M362.437 205.074C361.558 205.067 360.703 204.78 359.997 204.259C359.29 203.737 358.766 203.004 358.502 202.166L355.481 191.618C355.391 191.331 355.419 191.02 355.557 190.753C355.696 190.485 355.935 190.285 356.221 190.194C356.367 190.15 356.52 190.137 356.671 190.154C356.823 190.17 356.97 190.217 357.104 190.292C357.235 190.367 357.352 190.467 357.446 190.586C357.539 190.706 357.607 190.845 357.647 190.992L360.668 201.538C360.812 201.961 361.108 202.319 361.496 202.539C361.884 202.76 362.34 202.829 362.778 202.736L370.361 201.254C370.826 201.157 371.236 200.882 371.502 200.488C371.769 200.094 371.871 199.613 371.787 199.144L369.734 188.596C369.692 188.454 369.681 188.305 369.701 188.157C369.723 188.009 369.776 187.867 369.858 187.743C369.94 187.619 370.047 187.513 370.173 187.433C370.299 187.355 370.441 187.304 370.589 187.285C370.89 187.234 371.2 187.3 371.455 187.47C371.708 187.639 371.889 187.9 371.956 188.197L374.01 198.689C374.212 199.746 373.991 200.84 373.393 201.735C372.797 202.632 371.871 203.258 370.817 203.477L363.177 205.017L362.437 205.074Z" fill="black"/>
</svg>
