<svg width="134" height="131" viewBox="0 0 134 131" fill="none" xmlns="http://www.w3.org/2000/svg">
<path d="M64.4385 9.5966C64.4385 9.5966 50.9602 5.18657 39.6944 17.4148C28.4248 29.6437 35.6668 45.0777 50.181 51.463C64.6951 57.8483 82.1091 41.8143 80.509 28.9308C78.9084 16.0435 64.4385 9.5966 64.4385 9.5966Z" fill="#3474C9"/>
<path d="M61.4492 18.607C61.4492 18.607 53.72 16.0698 47.2664 23.0592C40.8127 30.0485 44.9464 38.8947 53.2951 42.5429C61.6453 46.1888 71.481 36.9989 70.6153 29.6581C69.7519 22.3189 61.4492 18.607 61.4492 18.607Z" fill="#F9F9F9"/>
<path d="M83.0419 79.0121C83.0419 79.0121 69.5657 74.6036 58.2977 86.8303C47.0303 99.0607 54.2701 114.493 68.7843 120.878C83.3007 127.265 100.609 111.249 99.1139 98.3441C97.6214 85.4411 83.0419 79.0121 83.0419 79.0121Z" fill="#3474C9"/>
<path d="M79.991 87.978C79.991 87.978 72.3234 85.4852 65.8719 92.4761C59.4182 99.4654 63.5498 108.31 71.8385 111.912C80.1233 115.514 90.04 106.476 89.2209 99.0751C88.4012 91.6705 79.991 87.978 79.991 87.978Z" fill="#F9F9F9"/>
<path d="M102.483 40.5918L19.4045 81.054C19.145 81.1778 18.9187 81.3622 18.7436 81.5867C18.5669 81.8135 18.4467 82.0777 18.3899 82.3608C18.3346 82.6416 18.3451 82.9331 18.4231 83.2097C18.4989 83.4848 18.6377 83.7418 18.8294 83.9534L24.2195 89.3487C24.4673 89.6307 24.8018 89.8249 25.172 89.9045C25.5401 89.9825 25.9252 89.9392 26.2709 89.784L113.536 50.7304C113.836 50.6058 114.094 50.4008 114.284 50.1406C114.473 49.8789 114.588 49.5709 114.617 49.2477C114.644 48.9268 114.58 48.6032 114.438 48.3137C114.292 48.0248 114.073 47.7808 113.798 47.6061L104.266 40.7406C104.014 40.5525 103.712 40.4385 103.395 40.4105C103.08 40.384 102.764 40.4471 102.483 40.5918Z" fill="#3474C9"/>
</svg>
