<svg width="152" height="191" viewBox="0 0 152 191" fill="none" xmlns="http://www.w3.org/2000/svg">
<path d="M147.017 37.3226C146.944 37.6295 146.78 37.9063 146.548 38.1189C146.315 38.329 146.024 38.467 145.713 38.5117C98.2754 43.9633 62.1288 76.79 40.1715 103.333C25.7119 120.822 13.3705 139.96 3.40466 160.343C3.31995 160.535 3.1989 160.707 3.0475 160.851C2.89634 160.996 2.71886 161.107 2.52387 161.183C2.32957 161.258 2.12209 161.294 1.9132 161.289C1.70523 161.283 1.49978 161.237 1.30892 161.152C0.923495 160.983 0.6221 160.666 0.470264 160.273C0.395705 160.077 0.359469 159.87 0.36445 159.662C0.369679 159.453 0.41576 159.248 0.500038 159.058C10.5824 138.422 23.0695 119.053 37.7025 101.351C60.1087 74.3601 96.8976 40.976 145.347 35.3984C145.76 35.3498 146.175 35.469 146.501 35.7262C146.827 35.9834 147.038 36.3603 147.087 36.7727L147.017 37.3226Z" fill="#3474C9"/>
<path d="M149.328 38.6917C149.03 39.7026 148.47 40.615 147.704 41.3404L132.354 56.5878C132.219 56.7713 132.046 56.9232 131.846 57.033C131.646 57.1429 131.424 57.2095 131.196 57.2241C130.968 57.2412 130.74 57.2051 130.527 57.1251C130.314 57.0426 130.121 56.9152 129.962 56.7518C129.802 56.5883 129.681 56.3927 129.606 56.1753C129.53 55.9605 129.502 55.7321 129.525 55.5043C129.547 55.2765 129.619 55.0569 129.735 54.8601C129.851 54.6632 130.008 54.4938 130.196 54.3645L145.546 39.1172C145.871 38.7864 146.112 38.3794 146.249 37.9356C146.385 37.4917 146.413 37.0207 146.329 36.5643C146.236 36.108 146.029 35.6841 145.727 35.33C145.426 34.9759 145.04 34.7049 144.604 34.5427L119.738 23.9585C119.546 23.8871 119.372 23.7753 119.225 23.6338C119.078 23.4898 118.962 23.3196 118.884 23.1306C118.806 22.9417 118.768 22.7372 118.773 22.5311C118.777 22.3274 118.823 22.1248 118.908 21.9408C118.981 21.748 119.092 21.5737 119.234 21.4268C119.377 21.2799 119.549 21.1623 119.738 21.0865C119.927 21.0084 120.131 20.9687 120.336 20.9744C120.541 20.9776 120.742 21.025 120.929 21.1107L145.892 31.6366C147.21 32.2116 148.279 33.2395 148.909 34.532C149.539 35.8246 149.688 37.2988 149.328 38.6917Z" fill="#3474C9"/>
</svg>
