<svg width="291" height="243" viewBox="0 0 291 243" fill="none" xmlns="http://www.w3.org/2000/svg">
<path d="M48.6793 170.536L48.0164 170.343C47.1454 169.871 46.3805 169.24 45.7587 168.487C39.5208 161.252 30.4273 152.865 23.6565 150.882L23.0607 151.137C23.0607 151.201 22.9285 152.098 25.6477 154.593C29.8749 158.483 33.6579 162.796 36.9317 167.463C37.027 167.605 37.0942 167.764 37.1245 167.932C37.157 168.101 37.1548 168.272 37.118 168.437C37.0812 168.604 37.0097 168.763 36.91 168.903C36.8082 169.043 36.6804 169.163 36.533 169.254C36.3857 169.346 36.2189 169.411 36.0455 169.443C35.8722 169.472 35.6945 169.47 35.5212 169.434C35.35 169.399 35.1854 169.33 35.0402 169.234C34.895 169.137 34.7715 169.014 34.674 168.87C31.5323 164.376 27.9054 160.213 23.8559 156.451C21.0024 153.889 20.0079 151.97 20.6037 150.305C21.2017 148.641 23.3922 148.319 23.6565 148.319H24.1224C33.413 150.752 44.5648 163.11 47.817 166.822C48.2265 167.346 48.7465 167.783 49.3424 168.103C49.65 168.266 49.8775 168.538 49.9772 168.862C50.0768 169.186 50.04 169.535 49.8732 169.831C49.7518 170.036 49.5785 170.208 49.3705 170.331C49.1604 170.454 48.9242 170.523 48.6793 170.536Z" fill="#282928"/>
<path d="M10.5829 169.127C10.2622 169.131 9.95235 169.023 9.70751 168.822C9.46485 168.621 9.30235 168.343 9.25469 168.038C9.22652 167.873 9.23518 167.706 9.27635 167.543C9.31968 167.382 9.39552 167.229 9.50169 167.098C9.60786 166.966 9.74001 166.855 9.89168 166.776C10.0433 166.694 10.2102 166.646 10.3835 166.63C12.4418 166.31 15.8262 166.31 20.14 166.567H20.3394C20.5279 166.565 20.7142 166.602 20.8875 166.673C21.0608 166.747 21.219 166.851 21.349 166.983C21.479 167.114 21.5808 167.269 21.6458 167.44C21.713 167.61 21.7412 167.792 21.7325 167.973C21.7087 168.157 21.6459 168.335 21.5484 168.494C21.4509 168.655 21.3187 168.793 21.1648 168.899C21.0088 169.008 20.8312 169.083 20.6427 169.123C20.4564 169.163 20.2614 169.163 20.0729 169.127C16.9832 168.862 13.8719 168.862 10.7822 169.127H10.5829Z" fill="#282928"/>
<path d="M10.583 169.127H10.5158C9.78563 169.127 3.01697 168.999 0.826468 165.925C-0.014199 164.73 -0.213534 163.643 0.228466 162.661C1.0258 161.124 3.2813 160.932 5.53897 160.805C7.79447 160.675 26.378 161.637 27.1081 161.701C27.2858 161.699 27.4613 161.735 27.6238 161.804C27.7863 161.873 27.9315 161.973 28.0506 162.101C28.1698 162.228 28.2586 162.376 28.315 162.539C28.3691 162.702 28.3886 162.874 28.3691 163.045C28.3605 163.212 28.3193 163.377 28.2435 163.53C28.1698 163.683 28.0636 163.818 27.9336 163.931C27.8058 164.044 27.6542 164.132 27.4895 164.188C27.3248 164.245 27.1493 164.27 26.976 164.262C26.7767 164.197 8.52463 163.237 5.67113 163.365C2.81763 163.492 2.94982 163.685 2.68548 163.812C2.78082 164.034 2.8913 164.247 3.01696 164.454C4.07863 165.925 8.19314 166.567 10.583 166.567C10.9361 166.596 11.2633 166.751 11.5081 166.997C11.753 167.244 11.896 167.57 11.909 167.911C11.8786 168.232 11.727 168.536 11.4821 168.759C11.2373 168.983 10.9188 169.112 10.583 169.127Z" fill="#282928"/>
<path d="M20.803 174.312C17.0871 174.312 13.1048 173.93 10.4506 172.968C7.79429 172.009 7.79428 170.983 7.72928 170.151C7.66211 169.319 8.85595 167.399 9.65328 166.951C9.96095 166.78 10.3271 166.736 10.6695 166.826C11.0118 166.916 11.3021 167.133 11.4776 167.43C11.6553 167.729 11.7008 168.08 11.6076 168.41C11.5145 168.74 11.2891 169.02 10.9814 169.192C10.6868 169.363 10.4723 169.639 10.3834 169.959C10.3834 170.024 10.5828 170.279 11.4451 170.6C15.9583 172.264 25.184 171.817 28.304 171.175C26.8436 170.408 23.1256 169.447 19.4098 169C19.1151 168.908 18.8638 168.719 18.6969 168.467C18.5301 168.214 18.4608 167.915 18.502 167.618C18.541 167.321 18.6861 167.047 18.9136 166.845C19.1389 166.64 19.4315 166.519 19.7413 166.502C21.9318 166.759 29.3656 167.783 31.0253 170.216C31.216 170.483 31.3503 170.786 31.4196 171.104C31.4868 171.424 31.489 171.752 31.4218 172.072C31.3438 172.31 31.2159 172.529 31.0448 172.718C30.8736 172.906 30.6634 173.056 30.4273 173.161C29.0991 173.865 25.1168 174.312 20.803 174.312Z" fill="#282928"/>
<path d="M22.196 179.305C19.9405 179.305 18.0165 179.05 16.8877 178.411C15.7588 177.769 13.967 176.105 13.8998 174.762C13.8348 173.416 15.4945 171.944 15.6267 171.817C15.7697 171.696 15.9365 171.606 16.1163 171.553C16.2983 171.501 16.4868 171.487 16.6753 171.51C16.8617 171.535 17.0415 171.597 17.2018 171.694C17.3622 171.79 17.4987 171.917 17.6048 172.07C17.7088 172.22 17.7782 172.394 17.8107 172.573C17.841 172.753 17.8302 172.937 17.7825 173.113C17.7327 173.288 17.646 173.451 17.5247 173.593C17.4055 173.733 17.256 173.848 17.087 173.928C16.8162 174.112 16.6276 174.385 16.5561 174.697C16.5561 174.952 17.0198 175.529 18.2158 176.168C19.4097 176.81 28.1695 176.745 31.0252 175.081C31.0793 174.946 31.101 174.801 31.0902 174.657C31.0772 174.513 31.0338 174.373 30.958 174.25C30.5593 173.608 29.5648 173.608 29.034 173.673C28.6787 173.675 28.3341 173.554 28.0655 173.33C27.7968 173.106 27.6213 172.795 27.5737 172.456C27.5715 172.12 27.6993 171.796 27.9333 171.547C28.1673 171.299 28.488 171.144 28.8347 171.113C32.2862 170.855 33.3478 172.968 33.5472 173.608C33.7443 174.25 33.5471 176.553 32.4833 177.194C30.295 178.538 25.914 179.305 22.196 179.305Z" fill="#282928"/>
<path d="M26.1788 182.634C24.8268 182.697 23.4943 182.313 22.3958 181.548C21.8736 181.148 21.4663 180.628 21.2106 180.032C20.9549 179.439 20.8596 178.793 20.9376 178.154C20.9853 177.825 21.1651 177.529 21.4381 177.326C21.7111 177.121 22.0534 177.029 22.3958 177.065C22.7424 177.113 23.0566 177.284 23.2776 177.545C23.5008 177.807 23.6113 178.137 23.5918 178.473C23.5528 178.68 23.5766 178.891 23.6589 179.084C23.7413 179.278 23.8778 179.443 24.0554 179.562C24.6534 180.012 26.7118 180.779 32.9496 178.538C33.5476 178.346 33.9441 177.706 33.8791 177.579C33.8119 177.449 33.5476 177.257 32.6181 177.129C32.4426 177.113 32.2736 177.065 32.1176 176.985C31.9638 176.906 31.8273 176.797 31.7168 176.666C31.6041 176.534 31.5218 176.383 31.4719 176.222C31.4221 176.059 31.4048 175.89 31.4221 175.721C31.4871 175.382 31.6778 175.077 31.9594 174.866C32.2411 174.653 32.5921 174.548 32.9496 174.569C35.9353 174.954 36.4661 176.553 36.5333 177.257C36.6004 177.961 35.3394 180.459 33.8119 180.971C30.6919 182.06 28.1699 182.634 26.1788 182.634Z" fill="#282928"/>
<path d="M30.4273 181.93C30.0958 181.932 29.7773 181.815 29.5325 181.602C29.2877 181.389 29.1317 181.096 29.0992 180.779C29.0818 180.611 29.097 180.44 29.1469 180.279C29.1989 180.116 29.2812 179.966 29.3917 179.834C29.5043 179.702 29.6409 179.596 29.7947 179.514C29.9507 179.435 30.1197 179.387 30.293 179.37L31.8205 179.178C36.2015 178.603 40.6475 178.091 42.6387 179.307C42.929 179.502 43.1305 179.794 43.2042 180.126C43.2778 180.459 43.2172 180.808 43.0374 181.098C42.8467 181.374 42.5542 181.566 42.2205 181.638C41.8869 181.709 41.538 181.654 41.2455 181.483C39.8524 180.651 34.3425 181.418 32.2192 181.74L30.5595 181.93H30.4273Z" fill="#282928"/>
<path d="M207.834 314.965H206.705L107.946 303.57C106.54 303.401 105.184 302.958 103.962 302.264C102.74 301.57 101.68 300.642 100.846 299.537C99.7326 298.032 98.9418 296.329 98.5214 294.525C98.0989 292.721 98.0556 290.857 98.3893 289.037L139.738 45.2464C140.867 38.5898 146.442 33.9793 152.415 34.6837L248.32 46.1429C249.709 46.3331 251.048 46.7887 252.255 47.4805C253.464 48.1723 254.517 49.0898 255.356 50.1766C256.465 51.6584 257.26 53.3387 257.693 55.1193C258.125 56.9 258.187 58.7454 257.878 60.5491L219.315 304.145C218.321 310.419 213.409 314.965 207.834 314.965ZM151.154 37.1812C146.972 37.1812 143.189 40.7655 142.327 45.6957L100.978 289.484C100.703 290.959 100.736 292.475 101.078 293.938C101.42 295.399 102.064 296.78 102.97 298.001C103.6 298.826 104.393 299.522 105.305 300.049C106.215 300.577 107.227 300.924 108.278 301.073L206.972 312.34C211.55 312.852 215.864 309.075 216.661 303.76L255.221 60.1645C255.483 58.7078 255.442 57.2177 255.1 55.7777C254.758 54.3377 254.123 52.9771 253.23 51.7775C251.969 50.1285 250.086 49.025 247.987 48.7052L152.084 37.2439L151.154 37.1812Z" fill="#282928"/>
<path d="M205.975 364.068L204.118 363.941L96.3978 352.674C93.995 352.423 91.6723 351.69 89.5815 350.519C87.4907 349.351 85.675 347.773 84.2537 345.888C82.5095 343.604 81.2702 340.999 80.6072 338.237C79.9463 335.474 79.877 332.608 80.4035 329.818L131.509 55.6188L134.163 25.7218C135.955 15.4141 145.048 8.17992 154.805 9.33211L257.346 21.3685C259.7 21.661 261.968 22.4134 264.011 23.5796C266.054 24.7458 267.829 26.3029 269.226 28.1546C270.955 30.3846 272.199 32.9301 272.884 35.6367C273.568 38.3432 273.679 41.1541 273.209 43.9025L224.626 347.232C223.033 356.963 215.001 364.068 205.975 364.068ZM96.6643 350.176L204.382 361.381C212.811 362.275 220.511 355.874 221.971 346.847L270.552 43.52C270.964 41.1082 270.869 38.6441 270.277 36.2678C269.683 33.8936 268.605 31.6573 267.103 29.6907C265.922 28.1128 264.416 26.7856 262.681 25.795C260.945 24.8043 259.015 24.169 257.013 23.9287L154.473 11.893C146.11 10.9326 138.344 17.1425 136.752 26.1064L134.163 56.0034L82.9927 330.265C82.5442 332.713 82.6113 335.221 83.1942 337.641C83.7748 340.063 84.8582 342.343 86.377 344.35C87.5838 345.951 89.1222 347.294 90.8923 348.298C92.6603 349.301 94.6255 349.94 96.6643 350.176Z" fill="#282928"/>
<path d="M155.401 244.416C148.963 237.692 137.747 190.637 137.747 190.637C137.747 190.637 186.928 158.564 198.077 163.492C198.077 163.492 217.06 184.877 217.391 205.298" fill="white"/>
<path d="M155.403 245.695C155.212 245.689 155.028 245.647 154.857 245.57C154.685 245.492 154.532 245.384 154.406 245.248C147.834 238.397 136.951 192.815 136.485 190.894L136.286 190.062L137.016 189.55C142.127 186.221 187.127 157.283 198.608 162.276L198.875 162.404L199.074 162.661C199.869 163.557 218.388 184.62 218.719 205.298C218.728 205.469 218.7 205.639 218.637 205.8C218.574 205.958 218.476 206.103 218.351 206.224C218.225 206.345 218.076 206.439 217.911 206.5C217.744 206.56 217.569 206.588 217.391 206.579C217.051 206.579 216.721 206.454 216.474 206.226C216.227 206 216.08 205.691 216.063 205.363C215.798 186.733 199.271 166.887 197.28 164.517C188.388 161.317 153.212 182.187 139.274 191.149C142.526 204.786 151.353 238.332 156.33 243.519C156.456 243.636 156.553 243.778 156.618 243.935C156.683 244.092 156.713 244.259 156.707 244.428C156.7 244.598 156.657 244.763 156.581 244.915C156.505 245.066 156.397 245.202 156.265 245.31C156.154 245.427 156.022 245.524 155.875 245.588C155.725 245.655 155.565 245.691 155.403 245.695Z" fill="#282928"/>
<path d="M140.667 257.923C140.429 257.919 140.195 257.858 139.987 257.746C139.779 257.635 139.604 257.476 139.474 257.284C139.365 257.1 139.298 256.897 139.276 256.688C139.253 256.479 139.274 256.268 139.339 256.067C140.204 253.25 158.987 240.765 174.515 230.842C195.09 217.719 215.467 205.683 226.418 200.113C226.725 199.954 227.087 199.916 227.423 200.012C227.759 200.109 228.04 200.328 228.209 200.625C228.3 200.769 228.359 200.932 228.383 201.101C228.404 201.269 228.391 201.44 228.342 201.603C228.292 201.766 228.207 201.916 228.092 202.046C227.978 202.176 227.837 202.28 227.679 202.353C202.723 215.029 145.313 251.969 141.996 256.707C141.98 256.918 141.911 257.121 141.796 257.298C141.681 257.478 141.521 257.627 141.33 257.731L140.667 257.923Z" fill="#282928"/>
<path d="M222.834 365.797H220.975L204.116 364.006L204.382 361.444C212.811 362.34 220.511 355.939 221.969 346.912L270.552 43.5827C270.964 41.173 270.869 38.7068 270.277 36.3326C269.684 33.9584 268.605 31.7222 267.101 29.7555C265.922 28.1776 264.416 26.8505 262.681 25.8598C260.945 24.8671 259.015 24.2317 257.013 23.9935L168.741 13.5579V10.997C169.694 10.9757 170.647 11.0185 171.596 11.1249L274.203 23.1617C276.563 23.4417 278.84 24.1816 280.894 25.3373C282.948 26.4931 284.735 28.0397 286.15 29.883C287.86 32.136 289.086 34.6941 289.758 37.409C290.432 40.1238 290.536 42.9411 290.065 45.6957L241.482 348.96C239.89 358.756 231.925 365.797 222.834 365.797ZM213.476 362.34L221.306 363.172C229.67 364.069 237.368 357.667 238.828 348.576L287.476 45.3111C287.888 42.9014 287.793 40.4352 287.201 38.061C286.607 35.6868 285.528 33.4506 284.027 31.4839C282.824 29.9206 281.314 28.5998 279.583 27.6007C277.852 26.6017 275.934 25.9413 273.937 25.6571L265.775 24.7605C267.086 25.7281 268.247 26.8714 269.226 28.1546C270.955 30.3846 272.199 32.9302 272.884 35.6367C273.568 38.3432 273.679 41.1542 273.209 43.9025L224.626 347.232C223.497 354.145 219.116 359.715 213.476 362.34Z" fill="#282928"/>
<path d="M212.016 33.4046H211.881L182.946 30.395C182.77 30.3783 182.601 30.3302 182.445 30.2508C182.291 30.1714 182.155 30.0627 182.042 29.9311C181.932 29.7994 181.849 29.6489 181.799 29.488C181.747 29.325 181.732 29.1557 181.75 28.9864C181.799 28.652 181.977 28.349 182.248 28.1358C182.519 27.9226 182.861 27.8139 183.21 27.8348L212.148 30.9071C212.321 30.9238 212.492 30.9719 212.646 31.0513C212.802 31.1307 212.939 31.2394 213.049 31.371C213.16 31.5027 213.244 31.6532 213.294 31.8141C213.344 31.9771 213.361 32.1464 213.342 32.3157C213.294 32.6209 213.134 32.8988 212.889 33.0995C212.646 33.3001 212.334 33.4067 212.016 33.4046Z" fill="#282928"/>
<path d="M129.119 182.06C129.119 182.06 117.837 187.692 115.116 185.771C112.394 183.851 108.345 181.483 105.623 181.228C102.902 180.971 95.5355 177.194 93.6115 178.281C91.6875 179.37 93.6786 183.404 96.9958 183.788C100.315 184.173 104.43 185.836 103.632 186.733C102.837 187.629 91.0895 190.959 86.9078 189.23C83.9872 188.014 84.1865 190.254 86.0455 191.918C89.0312 194.608 101.177 193.711 101.177 193.711C101.177 193.711 82.594 190.829 80.8672 194.159C80.3363 195.183 82.5268 195.887 83.7228 197.68C86.5091 202.034 95.6026 207.796 97.7931 208.563C101.045 209.716 106.221 210.613 127.925 190.447H135.89L129.119 182.06Z" fill="white"/>
<path d="M98.9199 201.776C88.5676 201.776 81.2659 198.577 79.7405 195.759C79.5022 195.371 79.3982 194.917 79.4459 194.468C79.4935 194.018 79.6907 193.596 80.0049 193.262C82.3276 190.894 86.1777 192.11 86.3099 192.173C86.6436 192.277 86.923 192.503 87.0834 192.802C87.2459 193.103 87.2784 193.452 87.1744 193.774C87.0531 194.102 86.806 194.37 86.4832 194.524C86.1625 194.681 85.7921 194.71 85.4476 194.606C85.4476 194.606 83.3914 193.966 82.1954 194.798C83.3914 196.399 91.3539 200.497 104.761 198.896C104.948 198.838 105.143 198.821 105.338 198.844C105.53 198.867 105.717 198.932 105.881 199.034C106.046 199.135 106.185 199.268 106.289 199.427C106.395 199.586 106.462 199.766 106.486 199.952C106.51 200.138 106.492 200.328 106.434 200.508C106.373 200.685 106.274 200.851 106.141 200.988C106.007 201.124 105.845 201.233 105.665 201.302C105.483 201.373 105.288 201.404 105.093 201.392C103.045 201.641 100.985 201.768 98.9199 201.776Z" fill="#282928"/>
<path d="M97.9907 206.899C84.4512 206.899 83.0581 199.281 82.9931 198.896C82.9389 198.556 83.0277 198.211 83.2401 197.935C83.4524 197.659 83.7687 197.475 84.1197 197.423C84.4729 197.373 84.8304 197.459 85.1164 197.663C85.4046 197.868 85.5931 198.173 85.6472 198.512C85.7122 198.832 87.1726 205.938 102.97 204.019C103.141 203.992 103.314 203.998 103.483 204.04C103.65 204.08 103.808 204.153 103.945 204.255C104.081 204.357 104.196 204.485 104.278 204.633C104.363 204.78 104.413 204.941 104.43 205.106C104.458 205.275 104.452 205.446 104.408 205.614C104.367 205.779 104.291 205.933 104.187 206.071C104.081 206.209 103.949 206.324 103.797 206.412C103.646 206.498 103.477 206.556 103.301 206.579C101.31 206.771 99.5854 206.899 97.9907 206.899Z" fill="#282928"/>
<path d="M99.3859 210.548C98.0231 210.558 96.6733 210.291 95.4253 209.762C94.1794 209.231 93.0636 208.452 92.1514 207.476C92.1168 207.476 92.0821 207.461 92.0583 207.438C92.0323 207.413 92.0193 207.382 92.0193 207.348C91.7571 207.177 91.5708 206.918 91.4949 206.621C91.4213 206.326 91.4668 206.013 91.6206 205.747C91.7896 205.451 92.0669 205.229 92.3984 205.12C92.7321 205.014 93.0939 205.033 93.4124 205.171L94.0104 205.683C97.3276 209.012 101.908 208.755 107.682 204.978C113.456 201.202 114.518 200.05 115.712 198.896C117.179 197.488 118.804 196.242 120.556 195.183C126.864 191.151 134.96 189.55 135.292 189.485C135.643 189.418 136.009 189.487 136.308 189.68C136.607 189.872 136.813 190.171 136.884 190.509C136.954 190.85 136.882 191.203 136.683 191.49C136.484 191.778 136.174 191.979 135.823 192.046C135.756 192.046 127.858 193.584 122.017 197.296C120.411 198.238 118.938 199.379 117.638 200.69C116.31 201.969 114.782 203.377 109.207 207.091C106.354 208.884 102.902 210.548 99.3859 210.548Z" fill="#282928"/>
<path d="M96.2657 196.079C92.5477 196.079 86.9078 195.695 84.6502 193.646C82.3947 191.598 82.659 190.19 83.5885 188.781C84.518 187.372 85.5797 187.18 87.5708 188.012C89.562 188.846 98.389 188.012 101.841 187.117C100.216 186.507 98.5233 186.079 96.7965 185.836C95.6373 185.711 94.5432 185.253 93.657 184.524C92.7687 183.792 92.1295 182.822 91.8197 181.74C91.655 181.107 91.7092 180.44 91.9735 179.84C92.2357 179.238 92.695 178.737 93.2778 178.411C94.8725 177.514 97.726 178.089 101.908 179.178C103.169 179.525 104.456 179.782 105.756 179.947C109.474 180.266 114.451 183.658 115.911 184.747C117.371 185.836 122.879 183.723 128.521 180.906C128.677 180.831 128.848 180.785 129.024 180.772C129.199 180.76 129.374 180.781 129.541 180.833C129.708 180.887 129.862 180.973 129.994 181.084C130.129 181.194 130.235 181.33 130.313 181.483C130.462 181.784 130.49 182.127 130.393 182.446C130.295 182.764 130.077 183.038 129.782 183.211C126.928 184.62 117.438 189.038 114.318 186.795C111.198 184.555 107.946 182.699 105.491 182.507C104.05 182.327 102.629 182.028 101.243 181.61C99.3185 181.163 95.4033 180.202 94.606 180.586C93.8087 180.971 94.3417 180.778 94.4739 181.226C94.645 181.796 94.9895 182.302 95.4618 182.678C95.9363 183.054 96.517 183.286 97.128 183.339C98.5884 183.468 104.629 184.62 105.556 186.668C105.665 186.944 105.695 187.243 105.649 187.533C105.602 187.826 105.481 188.1 105.292 188.334C103.832 190.062 90.823 192.175 86.5763 190.382C86.3272 190.265 86.0563 190.2 85.779 190.19C85.7422 190.488 85.7833 190.792 85.8982 191.072C86.0152 191.352 86.2015 191.598 86.442 191.791C88.3682 193.454 95.4033 193.646 99.3857 193.391C99.7323 193.389 100.068 193.513 100.326 193.738C100.584 193.964 100.746 194.273 100.779 194.608C100.796 194.771 100.781 194.938 100.729 195.097C100.677 195.256 100.595 195.402 100.482 195.527C100.369 195.653 100.233 195.757 100.079 195.828C99.923 195.901 99.7561 195.943 99.5828 195.952C98.4821 196.056 97.3729 196.098 96.2657 196.079Z" fill="#282928"/>
<path d="M94.6714 57.6126C95.4297 57.4914 95.8869 56.4611 95.6876 55.3095C95.4904 54.1579 94.7147 53.324 93.9564 53.4452C93.1959 53.5665 92.7409 54.5968 92.9381 55.7484C93.1352 56.9 93.9109 57.7338 94.6714 57.6126Z" fill="#282928"/>
<path d="M88.7672 54.275C88.4531 54.2625 88.1519 54.1684 87.8919 53.9971C87.6341 53.8278 87.4304 53.5916 87.3069 53.3136C87.2072 53.1255 87.1487 52.9207 87.1357 52.7096C87.1227 52.5006 87.1531 52.2896 87.2289 52.091C87.3026 51.8925 87.4196 51.7106 87.5691 51.5581C87.7207 51.4055 87.9006 51.2843 88.1021 51.2007L94.8729 48.2559C95.2781 48.0866 95.7352 48.0783 96.1469 48.235C96.5564 48.3918 96.8857 48.699 97.0634 49.0898C97.2389 49.4786 97.2476 49.9216 97.0851 50.3166C96.9226 50.7137 96.6041 51.0314 96.1989 51.2007L89.4974 54.1475L88.7672 54.275Z" fill="#282928"/>
<path d="M102.239 86.9892C100.218 86.9829 98.2223 86.5461 96.398 85.708C81.7968 78.8571 82.0633 46.3351 82.0633 44.9913C82.0633 44.6506 82.202 44.3267 82.4511 44.0864C82.7003 43.846 83.0383 43.7102 83.3893 43.7102C83.7425 43.7102 84.0805 43.846 84.3296 44.0864C84.5766 44.3267 84.7175 44.6506 84.7175 44.9913C84.7175 45.3111 84.451 77.2583 97.594 83.4028C102.837 85.9003 109.738 83.8521 118.102 77.3858C118.375 77.1747 118.723 77.0765 119.072 77.112C119.419 77.1475 119.739 77.3147 119.96 77.5781C120.179 77.8414 120.279 78.1779 120.242 78.5144C120.205 78.8488 120.032 79.156 119.761 79.3692C113.19 84.4269 107.283 86.9892 102.239 86.9892Z" fill="#282928"/>
<path d="M110.187 55.6418C110.947 55.5206 111.402 54.4882 111.205 53.3387C111.008 52.1871 110.232 51.3511 109.472 51.4723C108.713 51.5936 108.256 52.626 108.455 53.7776C108.653 54.9292 109.428 55.7631 110.187 55.6418Z" fill="#282928"/>
<path d="M112.063 47.8713H111.729L106.022 46.8472C105.6 46.7553 105.229 46.5129 104.982 46.1701C104.738 45.8253 104.633 45.4052 104.694 44.9914C104.792 44.5671 105.05 44.193 105.418 43.9443C105.786 43.6956 106.239 43.589 106.685 43.6475L112.327 44.6716C112.548 44.7092 112.756 44.7907 112.945 44.9078C113.131 45.0269 113.291 45.1795 113.415 45.3592C113.538 45.5389 113.625 45.7396 113.666 45.9528C113.707 46.1638 113.703 46.3812 113.656 46.5923C113.591 46.9538 113.396 47.282 113.103 47.5161C112.813 47.7522 112.442 47.8776 112.063 47.8713Z" fill="#282928"/>
<path d="M101.641 66.6308C101.085 66.681 100.523 66.5807 100.019 66.3445C99.5159 66.1062 99.0891 65.7405 98.7879 65.287C97.5941 63.3663 99.5852 60.3568 100.181 59.5249C100.274 59.3766 100.4 59.2512 100.547 59.155C100.695 59.0568 100.861 58.992 101.037 58.9607C101.212 58.9314 101.392 58.9356 101.566 58.9795C101.739 59.0213 101.899 59.0965 102.04 59.2031C102.183 59.295 102.304 59.4121 102.4 59.5479C102.493 59.6838 102.558 59.8384 102.588 59.9994C102.621 60.1624 102.616 60.3275 102.58 60.4884C102.543 60.6473 102.471 60.7998 102.372 60.9336C101.576 62.0852 100.911 63.5565 101.111 64.0058H102.04C102.213 63.9891 102.391 64.0058 102.558 64.0539C102.727 64.102 102.883 64.1835 103.017 64.2901C103.154 64.3967 103.266 64.5283 103.349 64.6767C103.431 64.8272 103.483 64.9902 103.5 65.1574C103.518 65.3267 103.5 65.496 103.451 65.6569C103.399 65.8199 103.316 65.9704 103.206 66.1C103.095 66.2316 102.959 66.3403 102.803 66.4197C102.649 66.4992 102.48 66.5493 102.307 66.5661L101.641 66.6308Z" fill="#282928"/>
<path d="M103.764 75.9145C103.435 75.9145 103.117 75.7974 102.87 75.5843C102.625 75.3711 102.471 75.0785 102.438 74.7608C102.419 74.5936 102.436 74.4222 102.486 74.2613C102.536 74.0983 102.62 73.9478 102.731 73.8162C102.841 73.6866 102.978 73.5779 103.134 73.4985C103.288 73.417 103.459 73.3689 103.632 73.3522C103.899 73.3522 110.069 72.8401 110.336 68.4867C110.371 68.1419 110.54 67.8221 110.813 67.5964C111.086 67.3686 111.437 67.2537 111.796 67.2704C111.967 67.2788 112.136 67.3205 112.29 67.3937C112.444 67.4648 112.583 67.5692 112.693 67.6946C112.806 67.82 112.89 67.9663 112.94 68.1252C112.992 68.284 113.01 68.4512 112.99 68.6142C112.591 73.929 106.884 75.7222 103.832 75.9145H103.764Z" fill="#282928"/>
<path d="M104.231 106.131C103.99 106.135 103.756 106.071 103.555 105.945C103.353 105.82 103.195 105.64 103.102 105.427C103.011 105.281 102.952 105.12 102.929 104.95C102.907 104.783 102.92 104.612 102.97 104.449C103.02 104.286 103.106 104.135 103.219 104.006C103.334 103.876 103.475 103.772 103.633 103.698H103.767C105.823 102.61 107.017 101.905 107.151 100.561C107.574 95.625 107.193 90.6571 106.023 85.8356C105.979 85.5325 106.053 85.2232 106.226 84.9661C106.4 84.7091 106.664 84.521 106.969 84.4353C107.275 84.3517 107.602 84.3747 107.89 84.5022C108.181 84.6296 108.412 84.8533 108.545 85.1312C109.894 90.2517 110.321 95.5581 109.806 100.816C109.541 103.569 107.017 104.915 105.028 105.939H104.894C104.697 106.06 104.467 106.127 104.231 106.131Z" fill="#282928"/>
<path d="M135.359 92.047C135.129 92.0428 134.904 91.9822 134.707 91.8693C134.51 91.7565 134.345 91.5976 134.23 91.4054L133.168 89.677C129.368 84.335 127.061 78.1404 126.465 71.6886L125.602 62.5325L126.265 62.1479C127.459 61.3809 130.711 58.8834 131.11 56.3859C131.195 55.9491 131.177 55.4997 131.062 55.0671C130.948 54.6366 130.737 54.2353 130.447 53.8905C129.916 53.2489 129.186 52.5466 128.521 52.6093C127.858 52.6741 126.133 54.7223 125.602 56.0661C125.544 56.2333 125.451 56.3859 125.332 56.5155C125.21 56.645 125.063 56.7496 124.898 56.8227C124.734 56.8958 124.554 56.9355 124.374 56.9397C124.192 56.9439 124.012 56.9126 123.845 56.8457C123.676 56.7809 123.525 56.6827 123.397 56.5573C123.271 56.434 123.171 56.2856 123.106 56.1225C123.039 55.9595 123.009 55.784 123.018 55.6105C123.024 55.435 123.067 55.2636 123.145 55.1068C123.345 54.6575 125.072 50.4964 128.124 50.1139C129.717 49.8568 131.177 50.626 132.57 52.3544C133.084 52.9793 133.454 53.7003 133.66 54.4715C133.866 55.2448 133.903 56.0494 133.764 56.8352C133.168 60.0998 129.849 62.7895 128.389 63.8136L129.119 71.4963C129.713 77.5008 131.858 83.2691 135.359 88.2683H135.424L136.553 90.0615C136.709 90.3541 136.746 90.6927 136.661 91.0103C136.574 91.3301 136.371 91.606 136.089 91.7899C135.872 91.9341 135.621 92.024 135.359 92.047Z" fill="#282928"/>
<path d="M118.301 35.4528C118.301 35.4528 90.4915 51.7775 79.6733 50.2414C68.8552 48.7052 77.6822 8.05164 109.406 10.4846C141.131 12.9173 140.004 41.4071 131.509 53.1213C131.509 53.1213 129.186 47.5516 123.212 55.9386C123.212 55.9386 117.172 41.8543 118.301 35.4528Z" fill="#282928"/>
<path d="M121.62 15.926C121.62 15.926 126.066 -5.96892 143.122 1.58547C160.18 9.13986 143.852 36.3494 166.949 52.2247C190.046 68.1022 190.312 54.2102 193.829 48.8975C197.347 43.5827 202.391 64.1981 188.919 75.9124C175.444 87.6287 151.685 106.643 128.521 68.7438L126.996 63.174C126.996 63.174 137.747 58.1163 131.509 53.1213C125.269 48.1284 121.62 15.926 121.62 15.926Z" fill="#282928"/>
<path d="M127.81 16.9983C127.188 15.3736 125.332 14.5386 123.663 15.1336C121.995 15.7284 121.15 17.5271 121.772 19.1531L124.196 25.4752C124.82 27.1012 126.677 27.9351 128.345 27.3415C130.011 26.7459 130.859 24.9465 130.235 23.3205L127.81 16.9983Z" fill="white"/>
<path d="M130.712 48.1932H130.181C130.018 48.1221 129.871 48.0239 129.747 47.8985C129.626 47.7731 129.531 47.6247 129.468 47.4638C129.407 47.3028 129.379 47.1315 129.388 46.958C129.396 46.7866 129.44 46.6194 129.518 46.4627C129.518 46.4627 132.105 40.5104 130.181 32.2509C130.131 32.0858 130.118 31.9144 130.144 31.7451C130.168 31.5759 130.228 31.4128 130.324 31.2686C130.417 31.1223 130.543 30.999 130.688 30.9029C130.835 30.8088 131.002 30.744 131.177 30.7148C131.346 30.6772 131.522 30.6709 131.695 30.6981C131.866 30.7273 132.031 30.7879 132.178 30.8757C132.328 30.9656 132.456 31.0826 132.558 31.2185C132.657 31.3564 132.731 31.511 132.77 31.6741C134.893 40.7654 132.04 47.2318 131.973 47.4888C131.851 47.7062 131.667 47.888 131.446 48.0113C131.223 48.1367 130.969 48.1973 130.712 48.1932Z" fill="white"/>
<path d="M41.8434 183.339C41.7329 183.654 41.6939 183.989 41.7308 184.321C41.7654 184.651 41.8759 184.971 42.0536 185.257C42.2291 185.542 42.4696 185.788 42.7534 185.976C43.0373 186.164 43.3601 186.292 43.7003 186.348C52.9931 187.884 82.5269 187.692 92.3506 178.154C104.031 166.887 106.553 147.807 106.553 147.807C106.553 147.807 124.339 149.281 131.509 186.988C131.509 186.988 131.509 193.392 136.087 192.877C140.667 192.365 201.13 173.8 198.608 160.548C196.086 147.295 179.758 152.225 163.034 123.288L173.653 120.343C173.653 120.343 161.506 81.6118 133.034 91.4054C133.034 91.4054 118.764 113.941 110.137 95.3115C110.137 95.3115 88.3011 98.7683 88.3011 124.761C88.3011 150.752 83.1899 176.168 49.6738 165.733C49.0671 165.549 48.4084 165.599 47.8386 165.875C47.2688 166.149 46.8333 166.627 46.6209 167.206L41.8434 183.339Z" fill="#3474C9"/>
<path d="M110.403 149.473C107.716 149.471 105.132 148.486 103.169 146.72C99.8493 143.646 96.0013 138.718 96.5972 132.444L97.6588 122.648C97.6935 122.32 97.8559 122.017 98.1159 121.802C98.3759 121.587 98.7118 121.478 99.0541 121.497C99.2275 121.511 99.3965 121.561 99.5525 121.641C99.7063 121.72 99.845 121.829 99.9555 121.959C100.066 122.09 100.148 122.241 100.2 122.404C100.25 122.565 100.265 122.736 100.248 122.903L99.2513 132.699C98.7205 137.884 102.107 142.175 105.028 144.862C105.972 145.715 107.121 146.33 108.371 146.654C109.621 146.978 110.934 147 112.195 146.72L128.124 143.134C128.302 143.05 128.499 143.007 128.696 143.007C128.896 143.007 129.093 143.048 129.27 143.13C129.45 143.213 129.608 143.333 129.734 143.483C129.86 143.631 129.946 143.805 129.994 143.991C130.04 144.179 130.042 144.373 129.998 144.559C129.955 144.748 129.871 144.923 129.749 145.074C129.626 145.226 129.47 145.347 129.292 145.433C129.114 145.519 128.919 145.565 128.72 145.567L112.791 149.216C112.009 149.396 111.207 149.483 110.403 149.473Z" fill="#282928"/>
<path d="M171.131 114.198C172.244 116.416 173.198 118.704 173.984 121.047C178.166 133.148 185.333 157.54 180.82 162.98L132.371 195.375C131.962 195.661 131.496 195.866 131.002 195.973C130.51 196.079 129.999 196.088 129.503 195.998C129.004 195.908 128.532 195.722 128.112 195.45C127.693 195.176 127.336 194.825 127.061 194.416L121.154 185.836C120.86 185.414 120.658 184.938 120.565 184.438C120.472 183.936 120.489 183.422 120.613 182.929C120.738 182.434 120.968 181.97 121.291 181.566C121.612 181.163 122.019 180.829 122.483 180.586C133.764 174.762 167.081 156.836 164.559 150.754C161.506 143.391 155.867 126.233 155.867 126.233L171.131 114.198Z" fill="#3474C9"/>
<path d="M137.283 174.632C137.092 174.64 136.902 174.605 136.728 174.525C136.555 174.448 136.403 174.331 136.286 174.185C136.163 174.066 136.065 173.926 136 173.769C135.935 173.612 135.905 173.443 135.912 173.273C135.918 173.106 135.961 172.941 136.037 172.789C136.113 172.636 136.221 172.502 136.354 172.392C136.553 172.199 156.796 154.788 159.717 146.401C162.039 139.615 152.151 122.201 148.168 116.119C147.986 115.827 147.928 115.48 148.002 115.147C148.075 114.813 148.277 114.52 148.565 114.326C148.868 114.15 149.228 114.094 149.572 114.165C149.919 114.236 150.222 114.43 150.424 114.711C151.022 115.67 165.424 137.886 162.239 147.232C159.052 156.579 139.008 173.608 138.145 174.312C138.03 174.419 137.896 174.502 137.747 174.557C137.599 174.611 137.441 174.638 137.283 174.632Z" fill="#282928"/>
<path d="M137.814 193.134C137.582 193.137 137.355 193.08 137.158 192.967C136.958 192.854 136.796 192.689 136.685 192.495C136.592 192.353 136.529 192.194 136.501 192.029C136.475 191.864 136.482 191.694 136.527 191.531C136.57 191.37 136.648 191.218 136.755 191.086C136.863 190.955 136.997 190.846 137.149 190.766C137.548 190.509 177.503 167.334 179.494 145.247C179.503 145.08 179.546 144.915 179.62 144.762C179.694 144.61 179.8 144.474 179.93 144.361C180.06 144.246 180.209 144.16 180.374 144.104C180.539 144.047 180.714 144.022 180.887 144.031C181.245 144.064 181.576 144.227 181.813 144.49C182.047 144.754 182.168 145.092 182.148 145.439C180.025 168.87 140.204 191.983 138.477 192.942C138.282 193.072 138.05 193.139 137.814 193.134Z" fill="#282928"/>
<path d="M126.066 68.679C126.066 68.679 126.333 70.0877 126.729 73.5445C127.327 78.6022 130.711 86.0926 133.964 91.0228C133.964 91.0228 121.884 105.682 119.362 102.162C116.84 98.6408 126.066 68.679 126.066 68.679Z" fill="white"/>
<path d="M86.8411 28.9216C86.5854 28.9195 86.3341 28.8526 86.1109 28.7293C85.8227 28.535 85.6213 28.2424 85.5476 27.9101C85.4739 27.5778 85.5324 27.2287 85.7144 26.9382C93.2804 15.4781 102.04 15.094 102.372 15.094C102.547 15.0854 102.721 15.1101 102.885 15.1665C103.05 15.2231 103.202 15.3103 103.332 15.4234C103.459 15.5362 103.566 15.6727 103.639 15.825C103.715 15.9764 103.758 16.1415 103.767 16.3108C103.767 16.6452 103.639 16.9691 103.405 17.2178C103.173 17.4665 102.851 17.6233 102.506 17.6546C102.107 17.6546 94.7408 18.104 87.9699 28.3469C87.8464 28.5266 87.6796 28.6729 87.4824 28.7732C87.2853 28.8735 87.0642 28.9258 86.8411 28.9216Z" fill="white"/>
<path d="M161.177 57.412C160.889 57.4161 160.607 57.3263 160.38 57.1549C152.348 51.4577 148.565 40.6379 148.433 40.1906C148.37 40.0339 148.342 39.8688 148.348 39.7016C148.355 39.5365 148.398 39.3735 148.472 39.223C148.545 39.0725 148.651 38.9388 148.781 38.8301C148.914 38.7214 149.065 38.6399 149.23 38.5897C149.395 38.5291 149.572 38.4999 149.748 38.5061C149.925 38.5103 150.099 38.55 150.259 38.6232C150.422 38.6942 150.565 38.7966 150.684 38.922C150.803 39.0474 150.896 39.1958 150.955 39.3567C150.955 39.4863 154.605 49.8567 161.972 55.1067C162.195 55.2677 162.36 55.4934 162.442 55.7484C162.527 56.0054 162.522 56.2813 162.436 56.5363C162.347 56.7913 162.178 57.0128 161.953 57.1695C161.725 57.3263 161.454 57.412 161.177 57.412Z" fill="white"/>
<path d="M101.243 188.396L100.116 173.992L84.2539 176.617L88.3012 189.228C88.3012 189.228 96.9289 190.574 101.243 188.396Z" fill="white"/>
<path d="M93.8759 190.894C91.9454 190.875 90.017 190.748 88.1017 190.509L87.3065 190.382L82.5269 175.593L101.31 172.519L102.571 189.101L101.841 189.485C99.65 190.637 96.5322 190.894 93.8759 190.894ZM89.3627 188.077C91.8868 188.396 96.7965 188.654 99.8493 187.565L98.8549 175.466L85.9783 177.641L89.3627 188.077Z" fill="#282928"/>
<path d="M104.629 208.18L107.084 216.695L89.4971 217.591V204.916L91.8847 205.106C92.2682 205.11 92.6431 205.212 92.9702 205.405C93.2974 205.595 93.5639 205.869 93.7437 206.195C94.8054 207.988 97.6589 211.125 104.629 208.18Z" fill="white"/>
<path d="M88.1689 218.935V203.57L92.0191 203.827C92.6171 203.856 93.1956 204.029 93.707 204.332C94.2161 204.633 94.6408 205.054 94.9398 205.555C96.0664 207.538 98.5234 209.396 104.098 207.026L105.491 206.45L108.811 217.911L88.1689 218.935ZM90.8231 206.322V216.245L105.359 215.541L103.7 209.909C96.6644 212.276 93.6116 208.563 92.6149 206.771C92.5261 206.644 92.4091 206.537 92.2705 206.458C92.1318 206.381 91.9779 206.335 91.8198 206.322H90.8231Z" fill="#282928"/>
</svg>
