<svg width="212" height="160" viewBox="0 0 212 160" fill="none" xmlns="http://www.w3.org/2000/svg">
<path d="M22.8555 1.0046L23.125 1.0489C48.1046 10.1427 71.9177 22.1605 94.0705 36.8496C127.881 59.2691 170.781 97.5558 183.096 152.645C183.201 153.113 183.116 153.605 182.858 154.013C182.602 154.419 182.195 154.707 181.726 154.814C181.492 154.88 181.249 154.894 181.009 154.861C180.77 154.825 180.54 154.742 180.336 154.612C180.131 154.482 179.956 154.312 179.822 154.109C179.687 153.91 179.597 153.682 179.556 153.443C167.498 99.5934 125.315 61.9809 92.1045 39.8436C70.1893 25.374 46.6687 13.4976 22.0112 4.45676C21.7832 4.39822 21.5694 4.29082 21.3827 4.14584C21.196 4.00086 21.0399 3.81586 20.9268 3.60778C20.8165 3.40019 20.7463 3.16905 20.7277 2.93442C20.7067 2.69638 20.7369 2.45778 20.8125 2.23563C20.9477 1.81576 21.2285 1.46193 21.6051 1.23815C21.9793 1.01096 22.426 0.927962 22.8555 1.0046Z" fill="#3474C9"/>
<path d="M195.101 120.532L195.37 120.576C195.6 120.635 195.814 120.742 196.001 120.887C196.187 121.035 196.342 121.217 196.455 121.425C196.567 121.636 196.636 121.864 196.655 122.102C196.676 122.337 196.647 122.575 196.571 122.801L187.505 152.723C187.176 153.806 186.585 154.794 185.785 155.595C184.985 156.396 184 156.989 182.918 157.319C181.834 157.652 180.687 157.713 179.575 157.497C178.464 157.279 177.422 156.794 176.542 156.081L157.125 140.266C156.747 139.97 156.502 139.538 156.442 139.062C156.382 138.586 156.513 138.105 156.805 137.726C157.119 137.345 157.569 137.1 158.059 137.045C158.549 136.988 159.042 137.123 159.435 137.422L178.853 153.234C179.262 153.593 179.758 153.834 180.291 153.937C180.824 154.043 181.375 154.004 181.888 153.827C182.4 153.694 182.866 153.425 183.237 153.047C183.607 152.672 183.868 152.2 183.99 151.685L193.146 121.774C193.277 121.372 193.543 121.028 193.9 120.801C194.257 120.574 194.682 120.478 195.101 120.532Z" fill="#3474C9"/>
</svg>
