<svg width="9" height="18" viewBox="0 0 9 18" fill="none" xmlns="http://www.w3.org/2000/svg">
<path d="M1.16042 0.21337L8.79097 8.45723C8.92499 8.60203 9 8.79624 9 8.99845C9 9.20066 8.92499 9.39487 8.79097 9.53967L1.16042 17.7866C1.09799 17.8542 1.02335 17.9078 0.9409 17.9445C0.858452 17.9811 0.769869 18 0.680379 18C0.590889 18 0.502304 17.9811 0.419857 17.9445C0.337409 17.9078 0.262769 17.8542 0.20034 17.7866C0.0719038 17.6482 0 17.4623 0 17.2687C0 17.0751 0.0719038 16.8892 0.20034 16.7507L7.37589 8.99845L0.20034 1.24773C0.0723444 1.10932 0.000719 0.923752 0.000719 0.73055C0.000719 0.537347 0.0723444 0.351779 0.20034 0.21337C0.262769 0.145844 0.337409 0.0921741 0.419857 0.0555273C0.502304 0.0188806 0.590889 0 0.680379 0C0.769869 0 0.858452 0.0188806 0.9409 0.0555273C1.02335 0.0921741 1.09799 0.145844 1.16042 0.21337Z" fill="#3474C9"/>
</svg>
