<svg width="65" height="60" viewBox="0 0 65 60" fill="none" xmlns="http://www.w3.org/2000/svg">
<path d="M28.3467 33.8124C24.4207 29.3088 25.5218 23.3161 29.132 20.2295C32.6609 17.2151 38.004 17.2693 41.4156 20.3198C45.1161 23.623 45.6035 29.002 42.8146 32.8557C40.107 36.5921 34.4841 38.2437 29.6284 34.9405C29.132 35.5091 28.6356 36.0777 28.1301 36.6643C28.3287 36.8448 28.5002 37.0073 28.7168 37.2059C27.011 39.1372 25.3142 41.0506 23.5903 43C22.7239 42.2148 21.8845 41.4567 21 40.6625C22.7058 38.7492 24.4026 36.8539 26.1265 34.9405C26.3702 35.1391 26.5958 35.3286 26.8575 35.5362C27.3539 34.9586 27.8413 34.39 28.3467 33.8124ZM35.17 34.9766C39.3669 35.0037 42.7785 31.6734 42.8597 27.5941C42.95 23.1898 39.3669 19.7422 35.2151 19.7151C31.0363 19.688 27.6428 23.0544 27.5796 27.197C27.5164 31.4839 30.8468 34.9857 35.17 34.9766Z" fill="#B6B6B6"/>
</svg>
